<svg width="28" height="26" viewBox="0 0 28 26" fill="none" xmlns="http://www.w3.org/2000/svg">
<path d="M26.0784 0H1.92159C1.41196 0 0.923206 0.203989 0.562842 0.567091C0.202478 0.930194 2.79869e-05 1.42267 2.79869e-05 1.93617V24.0638C-0.00195744 24.433 0.101733 24.7949 0.298675 25.1061C0.495616 25.4174 0.777455 25.6648 1.11042 25.8188C1.36462 25.9376 1.64138 25.9995 1.92159 26C2.37428 26.0002 2.81224 25.838 3.15689 25.5422L3.16512 25.5353L7.71786 21.5745H26.0784C26.5881 21.5745 27.0768 21.3705 27.4372 21.0074C27.7976 20.6443 28 20.1518 28 19.6383V1.93617C28 1.42267 27.7976 0.930194 27.4372 0.567091C27.0768 0.203989 26.5881 0 26.0784 0ZM26.3529 19.6383C26.3529 19.7117 26.324 19.782 26.2725 19.8339C26.2211 19.8858 26.1512 19.9149 26.0784 19.9149H7.41179C7.21421 19.915 7.02325 19.9867 6.87375 20.1168L2.09454 24.2754C2.05447 24.3082 2.00604 24.3289 1.95482 24.3352C1.9036 24.3415 1.85166 24.3331 1.80495 24.311C1.75824 24.2889 1.71865 24.254 1.69073 24.2103C1.66281 24.1666 1.64768 24.1158 1.64709 24.0638V1.93617C1.64709 1.86281 1.67601 1.79246 1.72749 1.74059C1.77897 1.68872 1.84879 1.65957 1.92159 1.65957H26.0784C26.1512 1.65957 26.2211 1.68872 26.2725 1.74059C26.324 1.79246 26.3529 1.86281 26.3529 1.93617V19.6383Z" fill="#3C5B5F" fill-opacity="0.7"/>
</svg>
