<svg width="28" height="28" viewBox="0 0 28 28" fill="none" xmlns="http://www.w3.org/2000/svg">
<path d="M26.6438 16.275C26.5748 16.3267 26.4964 16.3643 26.4129 16.3857C26.3294 16.4071 26.2425 16.4118 26.1572 16.3997C26.0719 16.3875 25.9898 16.3586 25.9156 16.3147C25.8415 16.2708 25.7767 16.2127 25.725 16.1437C25.1774 15.4076 24.4645 14.8102 23.6438 14.3999C22.8231 13.9895 21.9175 13.7776 21 13.7812C20.826 13.7812 20.659 13.7121 20.536 13.589C20.4129 13.466 20.3438 13.299 20.3438 13.125C20.3438 12.9509 20.4129 12.784 20.536 12.661C20.659 12.5379 20.826 12.4687 21 12.4687C21.5319 12.4686 22.053 12.3194 22.5043 12.0379C22.9556 11.7565 23.3189 11.3541 23.5529 10.8765C23.787 10.3989 23.8824 9.8653 23.8284 9.3362C23.7744 8.8071 23.5731 8.30375 23.2474 7.88332C22.9216 7.46289 22.4845 7.14223 21.9857 6.95777C21.4869 6.77331 20.9463 6.73243 20.4254 6.83978C19.9045 6.94713 19.4241 7.19841 19.0389 7.56508C18.6536 7.93174 18.3789 8.3991 18.2459 8.91406C18.2024 9.0826 18.0937 9.22695 17.9438 9.31535C17.7939 9.40376 17.6149 9.42898 17.4464 9.38547C17.2779 9.34195 17.1335 9.23327 17.0451 9.08333C16.9567 8.93339 16.9315 8.75447 16.975 8.58594C17.14 7.94438 17.4559 7.35154 17.8964 6.85683C18.337 6.36213 18.8894 5.97989 19.5076 5.74198C20.1258 5.50407 20.792 5.41737 21.4505 5.48912C22.109 5.56087 22.7409 5.78899 23.2934 6.15446C23.8458 6.51992 24.303 7.01216 24.6267 7.59012C24.9503 8.16809 25.1312 8.81505 25.1541 9.47709C25.177 10.1391 25.0414 10.797 24.7584 11.396C24.4755 11.995 24.0535 12.5177 23.5277 12.9205C24.8217 13.4034 25.9492 14.2491 26.775 15.3562C26.8267 15.4252 26.8643 15.5036 26.8857 15.5871C26.9071 15.6706 26.9118 15.7575 26.8997 15.8428C26.8875 15.9281 26.8586 16.0102 26.8147 16.0844C26.7708 16.1585 26.7127 16.2233 26.6438 16.275ZM20.6927 23.2969C20.7358 23.3715 20.7639 23.4539 20.7752 23.5393C20.7866 23.6248 20.781 23.7116 20.7587 23.7949C20.7365 23.8782 20.698 23.9563 20.6456 24.0247C20.5932 24.0932 20.5278 24.1506 20.4531 24.1937C20.3536 24.2521 20.2403 24.2827 20.125 24.2823C20.0097 24.2824 19.8965 24.2521 19.7966 24.1945C19.6968 24.1369 19.6139 24.054 19.5562 23.9542C18.9858 22.9877 18.1732 22.1867 17.1986 21.6303C16.224 21.0738 15.1212 20.7811 13.9989 20.7811C12.8766 20.7811 11.7738 21.0738 10.7992 21.6303C9.82461 22.1867 9.01199 22.9877 8.44156 23.9542C8.40054 24.0326 8.34407 24.102 8.27556 24.158C8.20705 24.214 8.12792 24.2556 8.04291 24.2803C7.95791 24.305 7.8688 24.3122 7.78094 24.3015C7.69308 24.2908 7.60828 24.2625 7.53165 24.2182C7.45503 24.1739 7.38815 24.1146 7.33505 24.0438C7.28195 23.9729 7.24372 23.8921 7.22266 23.8062C7.20161 23.7202 7.19816 23.6309 7.21252 23.5435C7.22689 23.4562 7.25877 23.3727 7.30625 23.298C8.2001 21.7622 9.59964 20.5846 11.2656 19.9664C10.3556 19.3755 9.66093 18.5063 9.28531 17.4883C8.90969 16.4704 8.87322 15.3582 9.18134 14.3179C9.48947 13.2775 10.1257 12.3646 10.9951 11.7154C11.8644 11.0661 12.9204 10.7154 14.0055 10.7154C15.0905 10.7154 16.1465 11.0661 17.0159 11.7154C17.8853 12.3646 18.5215 13.2775 18.8296 14.3179C19.1377 15.3582 19.1012 16.4704 18.7256 17.4883C18.35 18.5063 17.6554 19.3755 16.7453 19.9664C18.4067 20.5867 19.8016 21.7636 20.6927 23.2969ZM14 19.4687C14.7355 19.4687 15.4545 19.2506 16.066 18.842C16.6776 18.4334 17.1542 17.8526 17.4357 17.1731C17.7171 16.4936 17.7908 15.7459 17.6473 15.0245C17.5038 14.3031 17.1496 13.6405 16.6296 13.1204C16.1095 12.6004 15.4469 12.2462 14.7255 12.1027C14.0041 11.9592 13.2564 12.0329 12.5769 12.3143C11.8974 12.5958 11.3166 13.0724 10.908 13.684C10.4994 14.2955 10.2812 15.0145 10.2812 15.75C10.2812 16.7363 10.673 17.6821 11.3704 18.3796C12.0678 19.077 13.0137 19.4687 14 19.4687ZM7.65625 13.125C7.65625 12.9509 7.58711 12.784 7.46404 12.661C7.34097 12.5379 7.17405 12.4687 7 12.4687C6.46821 12.4686 5.94712 12.3193 5.49591 12.0379C5.04469 11.7564 4.68143 11.3541 4.44738 10.8766C4.21333 10.3991 4.11786 9.8655 4.17182 9.33645C4.22578 8.8074 4.42701 8.30409 4.75264 7.88366C5.07828 7.46323 5.51528 7.14253 6.01402 6.95798C6.51276 6.77343 7.05326 6.73243 7.57414 6.83962C8.09501 6.94682 8.57539 7.19793 8.96073 7.56442C9.34606 7.93091 9.62091 8.39811 9.75406 8.91297C9.77561 8.99642 9.81338 9.07481 9.86522 9.14366C9.91706 9.21252 9.98195 9.27048 10.0562 9.31426C10.1304 9.35803 10.2126 9.38675 10.2979 9.39878C10.3833 9.41082 10.4701 9.40592 10.5536 9.38437C10.637 9.36283 10.7154 9.32506 10.7843 9.27322C10.8531 9.22138 10.9111 9.15648 10.9549 9.08224C10.9987 9.008 11.0274 8.92586 11.0394 8.84051C11.0514 8.75517 11.0465 8.66829 11.025 8.58484C10.86 7.94328 10.5441 7.35044 10.1036 6.85574C9.66304 6.36104 9.11063 5.9788 8.4924 5.74089C7.87417 5.50297 7.20803 5.41628 6.5495 5.48803C5.89097 5.55978 5.25913 5.7879 4.70664 6.15336C4.15415 6.51883 3.69702 7.01106 3.37335 7.58903C3.04968 8.167 2.86884 8.81396 2.84592 9.47599C2.82299 10.138 2.95864 10.7959 3.24156 11.3949C3.52447 11.9939 3.94646 12.5166 4.47234 12.9194C3.17813 13.4026 2.05066 14.2487 1.225 15.3562C1.17329 15.4252 1.13567 15.5036 1.11428 15.5871C1.09289 15.6706 1.08816 15.7575 1.10035 15.8428C1.11253 15.9281 1.14141 16.0102 1.18531 16.0844C1.22922 16.1585 1.28731 16.2233 1.35625 16.275C1.42519 16.3267 1.50365 16.3643 1.58713 16.3857C1.67061 16.4071 1.75749 16.4118 1.84281 16.3997C1.92812 16.3875 2.0102 16.3586 2.08436 16.3147C2.15851 16.2708 2.22329 16.2127 2.275 16.1437C2.82265 15.4076 3.53551 14.8102 4.3562 14.3999C5.17688 13.9895 6.08245 13.7776 7 13.7812C7.17405 13.7812 7.34097 13.7121 7.46404 13.589C7.58711 13.466 7.65625 13.299 7.65625 13.125Z" fill="#3C5B5F" fill-opacity="0.7"/>
</svg>
