<svg width="28" height="27" viewBox="0 0 28 27" fill="none" xmlns="http://www.w3.org/2000/svg">
<path d="M15.4284 6.60642V13.0117L20.7269 16.2072C20.9221 16.3249 21.0627 16.5157 21.1179 16.7376C21.1731 16.9596 21.1383 17.1944 21.0212 17.3906C20.9042 17.5868 20.7144 17.7281 20.4936 17.7836C20.2729 17.8391 20.0392 17.8041 19.8441 17.6865L14.1299 14.2396C14.0029 14.163 13.8979 14.0545 13.825 13.9249C13.7522 13.7953 13.714 13.6489 13.7142 13.5V6.60642C13.7142 6.37788 13.8045 6.1587 13.9652 5.9971C14.126 5.8355 14.344 5.74472 14.5713 5.74472C14.7986 5.74472 15.0166 5.8355 15.1774 5.9971C15.3381 6.1587 15.4284 6.37788 15.4284 6.60642ZM14.5713 4.53155e-05C12.8063 -0.00456662 11.058 0.342897 9.42757 1.02231C7.79713 1.70173 6.31697 2.6996 5.07281 3.95812C3.84711 5.20472 2.78712 6.39961 1.71427 7.66344V4.30855C1.71427 4.08001 1.62396 3.86083 1.46322 3.69923C1.30248 3.53763 1.08446 3.44685 0.857135 3.44685C0.629809 3.44685 0.411793 3.53763 0.251049 3.69923C0.0903049 3.86083 0 4.08001 0 4.30855V10.0532C0 10.2818 0.0903049 10.5009 0.251049 10.6625C0.411793 10.8241 0.629809 10.9149 0.857135 10.9149H6.57137C6.79869 10.9149 7.01671 10.8241 7.17745 10.6625C7.3382 10.5009 7.4285 10.2818 7.4285 10.0532C7.4285 9.82468 7.3382 9.60551 7.17745 9.44391C7.01671 9.28231 6.79869 9.19152 6.57137 9.19152H2.67569C3.83711 7.797 4.96995 6.51307 6.28566 5.17025C7.91374 3.53358 9.98549 2.41553 12.242 1.9558C14.4986 1.49608 16.8398 1.71506 18.9733 2.5854C21.1067 3.45574 22.9377 4.93883 24.2375 6.84936C25.5373 8.75989 26.2483 11.0131 26.2816 13.3276C26.3148 15.642 25.669 17.915 24.4246 19.8625C23.1803 21.81 21.3926 23.3456 19.2851 24.2776C17.1776 25.2096 14.8436 25.4965 12.5748 25.1025C10.306 24.7085 8.20297 23.6511 6.52851 22.0625C6.44726 21.9819 6.35085 21.9186 6.24491 21.876C6.13898 21.8334 6.02566 21.8125 5.9116 21.8146C5.79753 21.8166 5.68502 21.8415 5.58066 21.8878C5.47629 21.9342 5.38217 22.001 5.30382 22.0843C5.22547 22.1677 5.16445 22.2659 5.12436 22.3733C5.08426 22.4807 5.06589 22.595 5.07032 22.7096C5.07475 22.8242 5.10189 22.9368 5.15015 23.0407C5.19842 23.1446 5.26683 23.2378 5.35138 23.3148C6.94508 24.8279 8.88303 25.9258 10.996 26.5126C13.109 27.0994 15.3327 27.1573 17.473 26.6811C19.6133 26.2049 21.6052 25.2092 23.2746 23.781C24.944 22.3527 26.2402 20.5353 27.05 18.4874C27.8599 16.4395 28.1587 14.2235 27.9204 12.0327C27.6822 9.84202 26.9141 7.74324 25.6832 5.91968C24.4523 4.09612 22.7961 2.60322 20.8591 1.57134C18.9222 0.539472 16.7634 3.03364e-06 14.5713 4.53155e-05Z" fill="#3C5B5F" fill-opacity="0.7"/>
</svg>
