<svg width="48" height="40" viewBox="0 0 48 40" fill="none" xmlns="http://www.w3.org/2000/svg">
<rect width="48" height="40" rx="16" fill="#D0DAE1"/>
<path d="M37.1303 18.4293L16.5561 6.22336C16.2522 6.04828 15.9042 5.97333 15.5584 6.00844C15.2126 6.04354 14.8852 6.18704 14.6196 6.41993C14.354 6.65281 14.1627 6.96409 14.0712 7.31252C13.9796 7.66094 13.992 8.03007 14.1068 8.37099L17.8763 19.9965L14.0982 31.6232C14.0067 31.892 13.9786 32.1796 14.0162 32.462C14.0538 32.7444 14.156 33.0133 14.3142 33.2461C14.4724 33.479 14.6821 33.6689 14.9256 33.8001C15.1691 33.9313 15.4393 33.9998 15.7135 34C16.011 33.9993 16.3032 33.9191 16.5622 33.767L37.1254 21.5369C37.3907 21.3819 37.6116 21.1563 37.7653 20.8832C37.919 20.6101 38 20.2995 38 19.9831C38 19.6667 37.919 19.3561 37.7653 19.083C37.6116 18.8099 37.3907 18.5843 37.1254 18.4293H37.1303ZM36.4016 20.2116L15.836 32.438C15.7925 32.4633 15.7425 32.4742 15.6929 32.4693C15.6432 32.4643 15.5962 32.4437 15.5581 32.4102C15.52 32.3767 15.4927 32.3319 15.4797 32.2818C15.4668 32.2317 15.4689 32.1787 15.4857 32.1299C15.4862 32.1257 15.4862 32.1214 15.4857 32.1172L19.1793 20.7603H26.4905C26.6854 20.7603 26.8723 20.6798 27.0101 20.5366C27.1479 20.3933 27.2253 20.199 27.2253 19.9965C27.2253 19.7939 27.1479 19.5996 27.0101 19.4564C26.8723 19.3131 26.6854 19.2326 26.4905 19.2326H19.1793L15.4894 7.87705C15.4901 7.87283 15.4901 7.86853 15.4894 7.86432C15.4702 7.81574 15.467 7.76194 15.4803 7.71129C15.4936 7.66064 15.5226 7.61597 15.5629 7.58425C15.5988 7.54857 15.6449 7.52613 15.6943 7.52038C15.7436 7.51463 15.7934 7.52588 15.836 7.55242L36.4102 19.7597C36.4482 19.7814 36.4797 19.8135 36.5013 19.8526C36.5229 19.8917 36.5338 19.9361 36.5327 19.9812C36.5329 20.0278 36.5208 20.0736 36.4977 20.1136C36.4746 20.1535 36.4413 20.1861 36.4016 20.2078V20.2116Z" fill="#3C5B5F"/>
</svg>
