<svg width="247" height="41" viewBox="0 0 247 41" fill="none" xmlns="http://www.w3.org/2000/svg">
<path d="M1.69922 0.164062C2.02474 0.164062 2.24609 0.313802 2.36328 0.613281L12.8711 24.6172L22.3047 0.632812C22.4219 0.320312 22.6497 0.164062 22.9883 0.164062C23.1836 0.164062 23.3529 0.235677 23.4961 0.378906C23.6393 0.522135 23.7109 0.691406 23.7109 0.886719C23.7109 0.925781 23.7044 0.971354 23.6914 1.02344C23.6784 1.07552 23.6654 1.12109 23.6523 1.16016L13.5742 26.7852C13.457 27.0846 13.2357 27.2344 12.9102 27.2344C12.5846 27.2344 12.3633 27.0911 12.2461 26.8047L1.03516 1.17969C0.996094 1.10156 0.976562 1.00391 0.976562 0.886719C0.976562 0.404948 1.21745 0.164062 1.69922 0.164062ZM44.7445 7.17578C45.2393 7.17578 45.4867 7.42318 45.4867 7.91797L45.4281 26.5312H45.4477C45.4477 26.7396 45.376 26.9154 45.2328 27.0586C45.0896 27.2018 44.9138 27.2734 44.7055 27.2734C44.4971 27.2734 44.3214 27.2018 44.1781 27.0586C44.0349 26.9154 43.9633 26.7396 43.9633 26.5312V26.5117L43.9828 22.4297C43.2276 23.7578 42.1404 24.8906 40.7211 25.8281C39.3148 26.7526 37.7719 27.2148 36.0922 27.2148C34.7901 27.2148 33.5792 26.9479 32.4594 26.4141C31.3396 25.8672 30.363 25.125 29.5297 24.1875C28.6964 23.25 28.0453 22.1823 27.5766 20.9844C27.1078 19.7865 26.8734 18.5365 26.8734 17.2344C26.8734 15.9323 27.1013 14.6823 27.557 13.4844C28.0258 12.2734 28.6768 11.1992 29.5102 10.2617C30.3565 9.3112 31.3461 8.5625 32.4789 8.01562C33.6117 7.46875 34.8487 7.19531 36.1898 7.19531C37.3747 7.19531 38.462 7.47526 39.4516 8.03516C40.4542 8.58203 41.3396 9.27865 42.1078 10.125C42.8891 10.9714 43.5206 11.8372 44.0023 12.7227L44.0219 7.91797C44.0219 7.42318 44.2628 7.17578 44.7445 7.17578ZM43.8656 17.1758C43.8656 15.6784 43.5336 14.2852 42.8695 12.9961C42.2185 11.707 41.3135 10.6654 40.1547 9.87109C39.0089 9.0638 37.6938 8.66016 36.2094 8.66016C34.712 8.66016 33.3643 9.0638 32.1664 9.87109C30.9815 10.6784 30.044 11.7396 29.3539 13.0547C28.6768 14.3568 28.3383 15.75 28.3383 17.2344C28.3383 18.7188 28.6768 20.112 29.3539 21.4141C30.031 22.7031 30.9555 23.7513 32.1273 24.5586C33.2992 25.3529 34.6208 25.75 36.0922 25.75C37.5766 25.75 38.9047 25.3464 40.0766 24.5391C41.2484 23.7318 42.1729 22.6771 42.85 21.375C43.5271 20.0729 43.8656 18.6732 43.8656 17.1758ZM51.0125 17.1367C51.0125 15.3398 51.4357 13.6797 52.282 12.1562C53.1284 10.6328 54.2742 9.40885 55.7195 8.48438C57.1648 7.54688 58.7794 7.07812 60.5633 7.07812C61.8784 7.07812 63.0698 7.32552 64.1375 7.82031C65.2182 8.30208 66.1492 8.9401 66.9305 9.73438C67.7247 10.5286 68.3367 11.401 68.7664 12.3516C68.8055 12.4297 68.825 12.5339 68.825 12.6641C68.825 13.1458 68.5841 13.3867 68.1023 13.3867C67.7638 13.3867 67.5359 13.2435 67.4188 12.957C66.8849 11.7721 66.019 10.7435 64.8211 9.87109C63.6232 8.98568 62.2039 8.54297 60.5633 8.54297C59.0529 8.54297 57.6857 8.9401 56.4617 9.73438C55.2378 10.5286 54.2677 11.5768 53.5516 12.8789C52.8354 14.181 52.4773 15.6003 52.4773 17.1367C52.4773 18.6602 52.8354 20.0794 53.5516 21.3945C54.2677 22.7096 55.2378 23.7708 56.4617 24.5781C57.6857 25.3724 59.0594 25.7695 60.5828 25.7695C62.2234 25.7695 63.6427 25.3333 64.8406 24.4609C66.0516 23.5755 66.924 22.5404 67.4578 21.3555C67.575 21.069 67.7964 20.9258 68.1219 20.9258C68.3302 20.9258 68.506 20.9974 68.6492 21.1406C68.7924 21.2708 68.8641 21.4401 68.8641 21.6484C68.8641 21.7526 68.838 21.8568 68.7859 21.9609C68.3563 22.8984 67.7443 23.7708 66.95 24.5781C66.1688 25.3724 65.2378 26.0169 64.157 26.5117C63.0893 26.9935 61.8979 27.2344 60.5828 27.2344C58.7859 27.2344 57.1648 26.7656 55.7195 25.8281C54.2742 24.8906 53.1284 23.6602 52.282 22.1367C51.4357 20.6003 51.0125 18.9336 51.0125 17.1367ZM73.5891 17.1367C73.5891 15.3398 74.0122 13.6797 74.8586 12.1562C75.705 10.6328 76.8508 9.40885 78.2961 8.48438C79.7414 7.54688 81.356 7.07812 83.1398 7.07812C84.455 7.07812 85.6464 7.32552 86.7141 7.82031C87.7948 8.30208 88.7258 8.9401 89.507 9.73438C90.3013 10.5286 90.9133 11.401 91.343 12.3516C91.382 12.4297 91.4016 12.5339 91.4016 12.6641C91.4016 13.1458 91.1607 13.3867 90.6789 13.3867C90.3404 13.3867 90.1125 13.2435 89.9953 12.957C89.4615 11.7721 88.5956 10.7435 87.3977 9.87109C86.1997 8.98568 84.7805 8.54297 83.1398 8.54297C81.6294 8.54297 80.2622 8.9401 79.0383 9.73438C77.8143 10.5286 76.8443 11.5768 76.1281 12.8789C75.412 14.181 75.0539 15.6003 75.0539 17.1367C75.0539 18.6602 75.412 20.0794 76.1281 21.3945C76.8443 22.7096 77.8143 23.7708 79.0383 24.5781C80.2622 25.3724 81.6359 25.7695 83.1594 25.7695C84.8 25.7695 86.2193 25.3333 87.4172 24.4609C88.6281 23.5755 89.5005 22.5404 90.0344 21.3555C90.1516 21.069 90.3729 20.9258 90.6984 20.9258C90.9068 20.9258 91.0826 20.9974 91.2258 21.1406C91.369 21.2708 91.4406 21.4401 91.4406 21.6484C91.4406 21.7526 91.4146 21.8568 91.3625 21.9609C90.9328 22.8984 90.3208 23.7708 89.5266 24.5781C88.7453 25.3724 87.8143 26.0169 86.7336 26.5117C85.6659 26.9935 84.4745 27.2344 83.1594 27.2344C81.3625 27.2344 79.7414 26.7656 78.2961 25.8281C76.8508 24.8906 75.705 23.6602 74.8586 22.1367C74.0122 20.6003 73.5891 18.9336 73.5891 17.1367ZM109.484 7.99609V7.97656C109.484 7.74219 109.562 7.56641 109.719 7.44922C109.875 7.33203 110.044 7.27344 110.227 7.27344C110.409 7.27344 110.572 7.33203 110.715 7.44922C110.871 7.56641 110.949 7.74219 110.949 7.97656V12.4297C111.717 10.9193 112.733 9.67578 113.996 8.69922C115.259 7.72266 116.698 7.23438 118.312 7.23438C120.109 7.23438 121.581 7.65755 122.727 8.50391C123.872 9.35026 124.712 10.4961 125.246 11.9414C125.793 13.3737 126.066 14.9753 126.066 16.7461V26.5117C126.066 26.7461 125.988 26.9219 125.832 27.0391C125.689 27.1562 125.526 27.2148 125.344 27.2148C125.161 27.2148 124.992 27.1562 124.836 27.0391C124.68 26.9219 124.602 26.7461 124.602 26.5117V16.7461C124.602 15.2487 124.393 13.8945 123.977 12.6836C123.56 11.4727 122.896 10.5091 121.984 9.79297C121.086 9.07682 119.895 8.71875 118.41 8.71875C117.043 8.71875 115.793 9.11589 114.66 9.91016C113.527 10.6914 112.622 11.694 111.945 12.918C111.281 14.1289 110.949 15.3919 110.949 16.707L110.988 26.5508C110.988 26.7852 110.91 26.9609 110.754 27.0781C110.598 27.2083 110.428 27.2734 110.246 27.2734C110.064 27.2734 109.895 27.2083 109.738 27.0781C109.595 26.9609 109.523 26.7852 109.523 26.5508L109.484 7.99609Z" fill="#7FA9C7"/>
<path d="M131.748 0.417969C134.509 0.417969 137.035 0.417969 139.327 0.417969C141.618 0.404948 143.819 0.398438 145.928 0.398438C148.051 0.385417 150.225 0.378906 152.452 0.378906C152.933 0.378906 153.174 0.619792 153.174 1.10156C153.174 1.3099 153.103 1.48568 152.959 1.62891C152.829 1.77214 152.66 1.84375 152.452 1.84375H152.432L142.862 1.86328L142.745 26.5117C142.745 26.7201 142.673 26.8893 142.53 27.0195C142.386 27.1628 142.211 27.2344 142.002 27.2344C141.521 27.2344 141.28 26.987 141.28 26.4922L141.397 1.86328L131.748 1.88281C131.54 1.88281 131.364 1.8112 131.221 1.66797C131.078 1.52474 131.006 1.34896 131.006 1.14062C131.006 0.932292 131.078 0.763021 131.221 0.632812C131.364 0.489583 131.54 0.417969 131.748 0.417969ZM157.723 0.847656C157.723 0.613281 157.802 0.4375 157.958 0.320312C158.114 0.203125 158.283 0.144531 158.466 0.144531C158.648 0.144531 158.817 0.203125 158.973 0.320312C159.13 0.4375 159.201 0.619792 159.188 0.867188V12.8789C159.644 11.9935 160.178 11.1797 160.79 10.4375C161.415 9.68229 162.137 9.03776 162.958 8.50391C163.557 8.11328 164.188 7.80729 164.852 7.58594C165.529 7.35156 166.239 7.23438 166.981 7.23438C168.739 7.23438 170.139 7.69661 171.18 8.62109C172.235 9.54557 172.99 10.7695 173.446 12.293C173.902 13.8164 174.13 15.4701 174.13 17.2539L174.11 26.5312C174.11 26.7656 174.032 26.9414 173.876 27.0586C173.733 27.1758 173.57 27.2344 173.387 27.2344C173.205 27.2344 173.029 27.1758 172.86 27.0586C172.704 26.9414 172.632 26.7591 172.645 26.5117L172.665 17.2539C172.665 15.7565 172.496 14.3633 172.157 13.0742C171.818 11.7721 171.239 10.724 170.419 9.92969C169.598 9.1224 168.459 8.71875 167.001 8.71875C165.868 8.71875 164.787 9.05729 163.759 9.73438C162.977 10.2552 162.235 10.9323 161.532 11.7656C160.842 12.599 160.276 13.5299 159.833 14.5586C159.403 15.5742 159.188 16.6224 159.188 17.7031V26.5312C159.188 26.7396 159.117 26.9154 158.973 27.0586C158.843 27.2018 158.674 27.2734 158.466 27.2734C158.257 27.2734 158.082 27.2018 157.938 27.0586C157.795 26.9154 157.723 26.7396 157.723 26.5312V0.847656ZM189.382 27.4102C187.494 27.4102 185.782 26.9414 184.245 26.0039C182.722 25.0534 181.504 23.7904 180.593 22.2148C179.695 20.6393 179.245 18.9141 179.245 17.0391C179.245 15.2552 179.668 13.6081 180.515 12.0977C181.374 10.5742 182.527 9.35026 183.972 8.42578C185.43 7.48828 187.058 7.01953 188.855 7.01953C190.508 7.01953 192.025 7.42969 193.405 8.25C194.786 9.07031 195.886 10.1706 196.706 11.5508C197.54 12.918 197.956 14.4479 197.956 16.1406C197.956 16.5052 197.924 16.8503 197.859 17.1758C197.793 17.5013 197.572 17.6641 197.195 17.6641L180.73 17.6836C180.847 19.168 181.29 20.5352 182.058 21.7852C182.839 23.0352 183.861 24.0443 185.124 24.8125C186.387 25.5677 187.8 25.9453 189.363 25.9453C190.613 25.9453 191.823 25.6719 192.995 25.125C194.18 24.5651 195.17 23.8034 195.964 22.8398C196.107 22.6576 196.303 22.5664 196.55 22.5664C196.758 22.5664 196.928 22.638 197.058 22.7812C197.201 22.9245 197.273 23.1003 197.273 23.3086C197.273 23.4779 197.214 23.6341 197.097 23.7773C196.159 24.9232 195.007 25.8151 193.64 26.4531C192.273 27.0911 190.853 27.4102 189.382 27.4102ZM196.491 16.1602C196.491 14.7409 196.14 13.4518 195.437 12.293C194.747 11.1341 193.822 10.2096 192.663 9.51953C191.504 8.82943 190.228 8.48438 188.835 8.48438C187.377 8.48438 186.062 8.84245 184.89 9.55859C183.718 10.2747 182.767 11.2188 182.038 12.3906C181.309 13.5625 180.879 14.8385 180.749 16.2188L196.491 16.1992V16.1602ZM204.947 11.9414C205.311 11.1081 205.826 10.3333 206.49 9.61719C207.154 8.88802 207.948 8.29557 208.873 7.83984C209.81 7.38411 210.858 7.15625 212.017 7.15625C212.356 7.15625 212.649 7.20182 212.896 7.29297C213.143 7.38411 213.267 7.59245 213.267 7.91797C213.267 8.39974 213.026 8.64062 212.545 8.64062C212.414 8.64062 212.291 8.63411 212.173 8.62109C212.056 8.60807 211.939 8.60156 211.822 8.60156C210.741 8.60156 209.778 8.86849 208.931 9.40234C208.085 9.92318 207.362 10.6263 206.763 11.5117C206.177 12.3971 205.728 13.3737 205.416 14.4414C205.103 15.5091 204.947 16.5898 204.947 17.6836V26.4922C204.947 26.7005 204.875 26.8763 204.732 27.0195C204.589 27.1628 204.413 27.2344 204.205 27.2344C203.996 27.2344 203.821 27.1628 203.677 27.0195C203.534 26.8763 203.462 26.7005 203.462 26.4922V8.07422C203.462 7.86589 203.534 7.69661 203.677 7.56641C203.821 7.42318 203.996 7.35156 204.205 7.35156C204.413 7.35156 204.589 7.42318 204.732 7.56641C204.875 7.69661 204.947 7.86589 204.947 8.07422V11.9414ZM217.406 7.78125C217.406 7.59896 217.471 7.44271 217.602 7.3125C217.745 7.16927 217.908 7.09766 218.09 7.09766C218.272 7.09766 218.428 7.16927 218.559 7.3125C218.702 7.44271 218.773 7.59896 218.773 7.78125V12.6836C219.034 11.8112 219.47 10.9583 220.082 10.125C220.694 9.29167 221.469 8.60807 222.406 8.07422C223.344 7.52734 224.431 7.25391 225.668 7.25391C227.478 7.25391 228.897 7.79427 229.926 8.875C230.954 9.95573 231.456 11.349 231.43 13.0547C231.677 12.0651 232.094 11.1276 232.68 10.2422C233.279 9.34375 234.053 8.61458 235.004 8.05469C235.967 7.49479 237.12 7.22135 238.461 7.23438C239.542 7.2474 240.447 7.51432 241.176 8.03516C241.918 8.54297 242.51 9.22656 242.953 10.0859C243.396 10.9453 243.715 11.8958 243.91 12.9375C244.105 13.9661 244.203 15.0013 244.203 16.043L244.223 26.5508C244.223 26.7331 244.151 26.8893 244.008 27.0195C243.878 27.1628 243.721 27.2344 243.539 27.2344C243.357 27.2344 243.194 27.1628 243.051 27.0195C242.921 26.8893 242.855 26.7331 242.855 26.5508L242.836 16.043C242.836 14.8841 242.712 13.7318 242.465 12.5859C242.23 11.4401 241.794 10.4896 241.156 9.73438C240.531 8.97917 239.633 8.60156 238.461 8.60156C236.872 8.60156 235.564 9.04427 234.535 9.92969C233.507 10.8151 232.745 11.9935 232.25 13.4648C231.755 14.9232 231.508 16.5312 231.508 18.2891V26.4922C231.508 26.6745 231.436 26.8372 231.293 26.9805C231.163 27.1107 231.007 27.1758 230.824 27.1758C230.642 27.1758 230.479 27.1107 230.336 26.9805C230.206 26.8372 230.141 26.6745 230.141 26.4922V15.5938C230.141 14.4089 230.01 13.2891 229.75 12.2344C229.503 11.1667 229.053 10.3008 228.402 9.63672C227.764 8.95964 226.853 8.62109 225.668 8.62109C224.053 8.62109 222.738 9.05078 221.723 9.91016C220.707 10.7695 219.965 11.9154 219.496 13.3477C219.027 14.7799 218.793 16.362 218.793 18.0938L218.812 26.5312C218.812 26.7135 218.741 26.8698 218.598 27C218.467 27.1432 218.311 27.2148 218.129 27.2148C217.947 27.2148 217.784 27.1432 217.641 27C217.51 26.8698 217.445 26.7135 217.445 26.5312L217.406 7.80078V7.78125Z" fill="#3C5B5F"/>
<path d="M103.4 20.125V11.1875C103.4 10.05 102.593 9.125 101.6 9.125V5.6875C101.6 5.308 101.331 5 101 5C100.669 5 100.4 5.308 100.4 5.6875V9.125C99.4073 9.125 98.6 10.05 98.6 11.1875V20.125C98.2688 20.125 98 20.433 98 20.8125C98 21.192 98.2688 21.5 98.6 21.5H100.4V25.625C100.4 25.625 99.2912 25.625 98.96 25.625C98.6288 25.625 98.36 25.933 98.36 26.3125C98.36 26.692 98.6288 27 98.96 27C99.2912 27 103.108 27 103.108 27C103.439 27 103.708 26.692 103.708 26.3125C103.708 25.933 103.439 25.625 103.108 25.625H101.6V21.5H103.4C103.731 21.5 104 21.192 104 20.8125C104 20.433 103.731 20.125 103.4 20.125ZM99.8 18.75C99.8 18.4965 99.8 18.4508 99.8 18.0713C99.8 17.6918 99.8 17.7019 99.8 17.375V16C99.8 15.4634 99.8 15.5746 99.8 15.1951C99.8 14.9268 99.8 14.9268 99.8 14.625V13.25C99.8 12.7805 99.8 12.8917 99.8 12.5122C99.8 12.1327 99.8 12.2439 99.8 11.875V11.1875C99.8 10.8083 100.069 10.5 100.4 10.5H101.6C101.931 10.5 102.2 10.8083 102.2 11.1875V20.125H99.8V18.75Z" fill="#7FA9C7"/>
</svg>
