<svg width="26" height="20" viewBox="0 0 26 20" fill="none" xmlns="http://www.w3.org/2000/svg">
<path d="M25.6438 11.275C25.5748 11.3267 25.4964 11.3643 25.4129 11.3857C25.3294 11.4071 25.2425 11.4118 25.1572 11.3997C25.0719 11.3875 24.9898 11.3586 24.9156 11.3147C24.8415 11.2708 24.7767 11.2127 24.725 11.1437C24.1774 10.4076 23.4645 9.81023 22.6438 9.39989C21.8231 8.98955 20.9175 8.77765 20 8.78125C19.826 8.78125 19.659 8.71211 19.536 8.58904C19.4129 8.46597 19.3438 8.29905 19.3438 8.125C19.3438 7.95095 19.4129 7.78403 19.536 7.66096C19.659 7.53789 19.826 7.46875 20 7.46875C20.5319 7.46863 21.053 7.31937 21.5043 7.03792C21.9556 6.75647 22.3189 6.3541 22.5529 5.87653C22.787 5.39895 22.8824 4.8653 22.8284 4.3362C22.7744 3.8071 22.5731 3.30375 22.2474 2.88332C21.9216 2.46289 21.4845 2.14223 20.9857 1.95777C20.4869 1.77331 19.9463 1.73243 19.4254 1.83978C18.9045 1.94713 18.4241 2.19841 18.0389 2.56508C17.6536 2.93174 17.3789 3.3991 17.2459 3.91406C17.2024 4.0826 17.0937 4.22695 16.9438 4.31535C16.7939 4.40376 16.6149 4.42898 16.4464 4.38547C16.2779 4.34195 16.1335 4.23327 16.0451 4.08333C15.9567 3.93339 15.9315 3.75447 15.975 3.58594C16.14 2.94438 16.4559 2.35154 16.8964 1.85683C17.337 1.36213 17.8894 0.979892 18.5076 0.74198C19.1258 0.504068 19.792 0.417374 20.4505 0.489124C21.109 0.560874 21.7409 0.78899 22.2934 1.15446C22.8458 1.51992 23.303 2.01216 23.6267 2.59012C23.9503 3.16809 24.1312 3.81505 24.1541 4.47709C24.177 5.13912 24.0414 5.79704 23.7584 6.39601C23.4755 6.99498 23.0535 7.51766 22.5277 7.92047C23.8217 8.40337 24.9492 9.24906 25.775 10.3562C25.8267 10.4252 25.8643 10.5036 25.8857 10.5871C25.9071 10.6706 25.9118 10.7575 25.8997 10.8428C25.8875 10.9281 25.8586 11.0102 25.8147 11.0844C25.7708 11.1585 25.7127 11.2233 25.6438 11.275ZM19.6927 18.2969C19.7358 18.3715 19.7639 18.4539 19.7752 18.5393C19.7866 18.6248 19.781 18.7116 19.7587 18.7949C19.7365 18.8782 19.698 18.9563 19.6456 19.0247C19.5932 19.0932 19.5278 19.1506 19.4531 19.1937C19.3536 19.2521 19.2403 19.2827 19.125 19.2823C19.0097 19.2824 18.8965 19.2521 18.7966 19.1945C18.6968 19.1369 18.6139 19.054 18.5562 18.9542C17.9858 17.9877 17.1732 17.1867 16.1986 16.6303C15.224 16.0738 14.1212 15.7811 12.9989 15.7811C11.8766 15.7811 10.7738 16.0738 9.7992 16.6303C8.82461 17.1867 8.01199 17.9877 7.44156 18.9542C7.40054 19.0326 7.34407 19.102 7.27556 19.158C7.20705 19.214 7.12792 19.2556 7.04291 19.2803C6.95791 19.305 6.8688 19.3122 6.78094 19.3015C6.69308 19.2908 6.60828 19.2625 6.53165 19.2182C6.45503 19.1739 6.38815 19.1146 6.33505 19.0438C6.28195 18.9729 6.24372 18.8921 6.22266 18.8062C6.20161 18.7202 6.19816 18.6309 6.21252 18.5435C6.22689 18.4562 6.25877 18.3727 6.30625 18.298C7.2001 16.7622 8.59964 15.5846 10.2656 14.9664C9.35557 14.3755 8.66093 13.5063 8.28531 12.4883C7.90969 11.4704 7.87322 10.3582 8.18134 9.31786C8.48947 8.27748 9.12567 7.36459 9.99506 6.71536C10.8644 6.06613 11.9204 5.71535 13.0055 5.71535C14.0905 5.71535 15.1465 6.06613 16.0159 6.71536C16.8853 7.36459 17.5215 8.27748 17.8296 9.31786C18.1377 10.3582 18.1012 11.4704 17.7256 12.4883C17.35 13.5063 16.6554 14.3755 15.7453 14.9664C17.4067 15.5867 18.8016 16.7636 19.6927 18.2969ZM13 14.4687C13.7355 14.4687 14.4545 14.2506 15.066 13.842C15.6776 13.4334 16.1542 12.8526 16.4357 12.1731C16.7171 11.4936 16.7908 10.7459 16.6473 10.0245C16.5038 9.30314 16.1496 8.64052 15.6296 8.12044C15.1095 7.60037 14.4469 7.24619 13.7255 7.1027C13.0041 6.95921 12.2564 7.03286 11.5769 7.31432C10.8974 7.59578 10.3166 8.07243 9.90797 8.68397C9.49935 9.29552 9.28125 10.0145 9.28125 10.75C9.28125 11.7363 9.67305 12.6821 10.3704 13.3796C11.0678 14.077 12.0137 14.4687 13 14.4687ZM6.65625 8.125C6.65625 7.95095 6.58711 7.78403 6.46404 7.66096C6.34097 7.53789 6.17405 7.46875 6 7.46875C5.46821 7.46858 4.94712 7.3193 4.49591 7.03786C4.04469 6.75643 3.68143 6.3541 3.44738 5.87659C3.21333 5.39907 3.11786 4.8655 3.17182 4.33645C3.22578 3.8074 3.42701 3.30409 3.75264 2.88366C4.07828 2.46323 4.51528 2.14253 5.01402 1.95798C5.51276 1.77343 6.05326 1.73243 6.57414 1.83962C7.09501 1.94682 7.57539 2.19793 7.96073 2.56442C8.34606 2.93091 8.62091 3.39811 8.75406 3.91297C8.77561 3.99642 8.81338 4.07481 8.86522 4.14366C8.91706 4.21252 8.98195 4.27048 9.0562 4.31426C9.13044 4.35803 9.21258 4.38675 9.29792 4.39878C9.38327 4.41082 9.47014 4.40592 9.55359 4.38437C9.63704 4.36283 9.71544 4.32506 9.78429 4.27322C9.85314 4.22138 9.91111 4.15648 9.95489 4.08224C9.99866 4.008 10.0274 3.92586 10.0394 3.84051C10.0514 3.75517 10.0465 3.66829 10.025 3.58484C9.86004 2.94328 9.54413 2.35044 9.10358 1.85574C8.66304 1.36104 8.11063 0.978798 7.4924 0.740886C6.87417 0.502974 6.20803 0.41628 5.5495 0.48803C4.89097 0.55978 4.25913 0.787896 3.70664 1.15336C3.15415 1.51883 2.69702 2.01106 2.37335 2.58903C2.04968 3.167 1.86884 3.81396 1.84592 4.47599C1.82299 5.13802 1.95864 5.79594 2.24156 6.39492C2.52447 6.99389 2.94646 7.51656 3.47234 7.91937C2.17813 8.40258 1.05066 9.24865 0.225 10.3562C0.173292 10.4252 0.13567 10.5036 0.114282 10.5871C0.0928934 10.6706 0.088158 10.7575 0.100346 10.8428C0.112533 10.9281 0.141406 11.0102 0.185314 11.0844C0.229222 11.1585 0.287306 11.2233 0.35625 11.275C0.425194 11.3267 0.503648 11.3643 0.587131 11.3857C0.670615 11.4071 0.757494 11.4118 0.842808 11.3997C0.928122 11.3875 1.0102 11.3586 1.08436 11.3147C1.15851 11.2708 1.22329 11.2127 1.275 11.1437C1.82265 10.4076 2.53551 9.81023 3.3562 9.39989C4.17688 8.98955 5.08245 8.77765 6 8.78125C6.17405 8.78125 6.34097 8.71211 6.46404 8.58904C6.58711 8.46597 6.65625 8.29905 6.65625 8.125Z" fill="#3C5B5F" fill-opacity="0.7"/>
</svg>
