<svg width="27" height="19" viewBox="0 0 27 19" fill="none" xmlns="http://www.w3.org/2000/svg">
<path d="M26.7342 6.88219L25.203 3.05406C25.0902 2.7693 24.8942 2.52514 24.6405 2.35344C24.3869 2.18175 24.0874 2.09049 23.7811 2.09156H19.7812V1C19.7812 0.825952 19.7121 0.659032 19.589 0.535961C19.466 0.41289 19.299 0.34375 19.125 0.34375H2.5C2.09389 0.34375 1.70441 0.505078 1.41724 0.792243C1.13008 1.07941 0.96875 1.46889 0.96875 1.875V14.125C0.96875 14.5311 1.13008 14.9206 1.41724 15.2078C1.70441 15.4949 2.09389 15.6563 2.5 15.6563H4.53437C4.68499 16.398 5.08742 17.0649 5.67346 17.5439C6.25949 18.0229 6.99311 18.2845 7.75 18.2845C8.50689 18.2845 9.24051 18.0229 9.82654 17.5439C10.4126 17.0649 10.815 16.398 10.9656 15.6563H16.7844C16.935 16.398 17.3374 17.0649 17.9235 17.5439C18.5095 18.0229 19.2431 18.2845 20 18.2845C20.7569 18.2845 21.4905 18.0229 22.0765 17.5439C22.6626 17.0649 23.065 16.398 23.2156 15.6563H25.25C25.6561 15.6563 26.0456 15.4949 26.3328 15.2078C26.6199 14.9206 26.7812 14.5311 26.7812 14.125V7.125C26.7811 7.04181 26.7651 6.95941 26.7342 6.88219ZM19.7812 3.40625H23.7822C23.826 3.40621 23.8688 3.41932 23.9051 3.44389C23.9414 3.46846 23.9694 3.50336 23.9856 3.54406L25.1559 6.46875H19.7812V3.40625ZM2.28125 1.875C2.28125 1.81698 2.3043 1.76134 2.34532 1.72032C2.38634 1.6793 2.44198 1.65625 2.5 1.65625H18.4688V9.09375H2.28125V1.875ZM7.75 16.9688C7.36062 16.9688 6.97998 16.8533 6.65622 16.637C6.33246 16.4206 6.08012 16.1132 5.93111 15.7534C5.7821 15.3937 5.74311 14.9978 5.81908 14.6159C5.89504 14.234 6.08255 13.8832 6.35788 13.6079C6.63322 13.3326 6.98402 13.145 7.36592 13.0691C7.74782 12.9931 8.14367 13.0321 8.50341 13.1811C8.86315 13.3301 9.17063 13.5825 9.38696 13.9062C9.60328 14.23 9.71875 14.6106 9.71875 15C9.71875 15.5221 9.51133 16.0229 9.14212 16.3921C8.7729 16.7613 8.27214 16.9688 7.75 16.9688ZM16.7844 14.3438H10.9656C10.815 13.602 10.4126 12.9351 9.82654 12.4561C9.24051 11.9771 8.50689 11.7155 7.75 11.7155C6.99311 11.7155 6.25949 11.9771 5.67346 12.4561C5.08742 12.9351 4.68499 13.602 4.53437 14.3438H2.5C2.44198 14.3438 2.38634 14.3207 2.34532 14.2797C2.3043 14.2387 2.28125 14.183 2.28125 14.125V10.4063H18.4688V12.0994C18.04 12.3263 17.6666 12.6451 17.3755 13.0331C17.0843 13.4211 16.8824 13.8687 16.7844 14.3438ZM20 16.9688C19.6106 16.9688 19.23 16.8533 18.9062 16.637C18.5825 16.4206 18.3301 16.1132 18.1811 15.7534C18.0321 15.3937 17.9931 14.9978 18.0691 14.6159C18.145 14.234 18.3325 13.8832 18.6079 13.6079C18.8832 13.3326 19.234 13.145 19.6159 13.0691C19.9978 12.9931 20.3937 13.0321 20.7534 13.1811C21.1131 13.3301 21.4206 13.5825 21.637 13.9062C21.8533 14.23 21.9688 14.6106 21.9688 15C21.9688 15.5221 21.7613 16.0229 21.3921 16.3921C21.0229 16.7613 20.5221 16.9688 20 16.9688ZM25.4688 14.125C25.4688 14.183 25.4457 14.2387 25.4047 14.2797C25.3637 14.3207 25.308 14.3438 25.25 14.3438H23.2156C23.0634 13.6031 22.6604 12.9375 22.0746 12.4594C21.4889 11.9812 20.7562 11.7196 20 11.7188C19.9267 11.7188 19.8534 11.7188 19.7812 11.7264V7.78125H25.4688V14.125Z" fill="#3C5B5F" fill-opacity="0.7"/>
</svg>
