<svg width="28" height="28" viewBox="0 0 28 28" fill="none" xmlns="http://www.w3.org/2000/svg">
<path d="M27.7342 12.8822L26.203 9.05406C26.0902 8.7693 25.8942 8.52514 25.6405 8.35344C25.3869 8.18175 25.0874 8.09049 24.7811 8.09156H20.7812V7C20.7812 6.82595 20.7121 6.65903 20.589 6.53596C20.466 6.41289 20.299 6.34375 20.125 6.34375H3.5C3.09389 6.34375 2.70441 6.50508 2.41724 6.79224C2.13008 7.07941 1.96875 7.46889 1.96875 7.875V20.125C1.96875 20.5311 2.13008 20.9206 2.41724 21.2078C2.70441 21.4949 3.09389 21.6563 3.5 21.6563H5.53437C5.68499 22.398 6.08742 23.0649 6.67346 23.5439C7.25949 24.0229 7.99311 24.2845 8.75 24.2845C9.50689 24.2845 10.2405 24.0229 10.8265 23.5439C11.4126 23.0649 11.815 22.398 11.9656 21.6563H17.7844C17.935 22.398 18.3374 23.0649 18.9235 23.5439C19.5095 24.0229 20.2431 24.2845 21 24.2845C21.7569 24.2845 22.4905 24.0229 23.0765 23.5439C23.6626 23.0649 24.065 22.398 24.2156 21.6563H26.25C26.6561 21.6563 27.0456 21.4949 27.3328 21.2078C27.6199 20.9206 27.7812 20.5311 27.7812 20.125V13.125C27.7811 13.0418 27.7651 12.9594 27.7342 12.8822ZM20.7812 9.40625H24.7822C24.826 9.40621 24.8688 9.41932 24.9051 9.44389C24.9414 9.46846 24.9694 9.50336 24.9856 9.54406L26.1559 12.4688H20.7812V9.40625ZM3.28125 7.875C3.28125 7.81698 3.3043 7.76134 3.34532 7.72032C3.38634 7.6793 3.44198 7.65625 3.5 7.65625H19.4688V15.0938H3.28125V7.875ZM8.75 22.9688C8.36062 22.9688 7.97998 22.8533 7.65622 22.637C7.33246 22.4206 7.08012 22.1132 6.93111 21.7534C6.7821 21.3937 6.74311 20.9978 6.81908 20.6159C6.89504 20.234 7.08255 19.8832 7.35788 19.6079C7.63322 19.3326 7.98402 19.145 8.36592 19.0691C8.74782 18.9931 9.14367 19.0321 9.50341 19.1811C9.86315 19.3301 10.1706 19.5825 10.387 19.9062C10.6033 20.23 10.7188 20.6106 10.7188 21C10.7188 21.5221 10.5113 22.0229 10.1421 22.3921C9.7729 22.7613 9.27214 22.9688 8.75 22.9688ZM17.7844 20.3438H11.9656C11.815 19.602 11.4126 18.9351 10.8265 18.4561C10.2405 17.9771 9.50689 17.7155 8.75 17.7155C7.99311 17.7155 7.25949 17.9771 6.67346 18.4561C6.08742 18.9351 5.68499 19.602 5.53437 20.3438H3.5C3.44198 20.3438 3.38634 20.3207 3.34532 20.2797C3.3043 20.2387 3.28125 20.183 3.28125 20.125V16.4063H19.4688V18.0994C19.04 18.3263 18.6666 18.6451 18.3755 19.0331C18.0843 19.4211 17.8824 19.8687 17.7844 20.3438ZM21 22.9688C20.6106 22.9688 20.23 22.8533 19.9062 22.637C19.5825 22.4206 19.3301 22.1132 19.1811 21.7534C19.0321 21.3937 18.9931 20.9978 19.0691 20.6159C19.145 20.234 19.3325 19.8832 19.6079 19.6079C19.8832 19.3326 20.234 19.145 20.6159 19.0691C20.9978 18.9931 21.3937 19.0321 21.7534 19.1811C22.1131 19.3301 22.4206 19.5825 22.637 19.9062C22.8533 20.23 22.9688 20.6106 22.9688 21C22.9688 21.5221 22.7613 22.0229 22.3921 22.3921C22.0229 22.7613 21.5221 22.9688 21 22.9688ZM26.4688 20.125C26.4688 20.183 26.4457 20.2387 26.4047 20.2797C26.3637 20.3207 26.308 20.3438 26.25 20.3438H24.2156C24.0634 19.6031 23.6604 18.9375 23.0746 18.4594C22.4889 17.9812 21.7562 17.7196 21 17.7188C20.9267 17.7188 20.8534 17.7188 20.7812 17.7264V13.7813H26.4688V20.125Z" fill="#3C5B5F" fill-opacity="0.7"/>
</svg>
