<svg width="500" height="373" viewBox="0 0 500 373" fill="none" xmlns="http://www.w3.org/2000/svg">
<path d="M500 327.4H0V327.65H500V327.4Z" fill="#EBEBEB"/>
<path d="M449.9 343.49H416.78V343.74H449.9V343.49Z" fill="#EBEBEB"/>
<path d="M331.22 346.21H322.53V346.46H331.22V346.21Z" fill="#EBEBEB"/>
<path d="M415.78 334.21H396.59V334.46H415.78V334.21Z" fill="#EBEBEB"/>
<path d="M95.65 335.89H52.46V336.14H95.65V335.89Z" fill="#EBEBEB"/>
<path d="M110.89 335.89H104.56V336.14H110.89V335.89Z" fill="#EBEBEB"/>
<path d="M225.15 340.11H131.47V340.36H225.15V340.11Z" fill="#EBEBEB"/>
<path d="M237 282.8H43.91C42.3973 282.797 40.9475 282.195 39.8788 281.124C38.8102 280.053 38.21 278.603 38.21 277.09V5.66C38.2231 4.15602 38.8292 2.71798 39.8964 1.65822C40.9637 0.598458 42.4059 0.00257639 43.91 0H237C238.514 0 239.967 0.601588 241.038 1.67242C242.108 2.74325 242.71 4.19561 242.71 5.71V277.09C242.71 278.604 242.108 280.057 241.038 281.128C239.967 282.198 238.514 282.8 237 282.8ZM43.91 0.200001C42.4636 0.20265 41.0774 0.779065 40.0556 1.80273C39.0338 2.82639 38.46 4.21365 38.46 5.66V277.09C38.46 278.536 39.0338 279.924 40.0556 280.947C41.0774 281.971 42.4636 282.547 43.91 282.55H237C238.447 282.547 239.834 281.971 240.858 280.948C241.881 279.924 242.457 278.537 242.46 277.09V5.66C242.457 4.21273 241.881 2.82549 240.858 1.80212C239.834 0.77874 238.447 0.202644 237 0.200001H43.91Z" fill="#EBEBEB"/>
<path d="M85.6201 291.06C85.6201 290.66 84.2701 251.38 77.8801 245.17C71.6701 239.17 64.5401 244.94 64.2401 245.17L63.6001 244.41C63.6801 244.34 71.7301 237.77 78.6001 244.41C85.2801 250.9 86.6001 289.35 86.6001 290.99L85.6201 291.06Z" fill="#E0E0E0"/>
<path d="M86.1699 298.78C86.1699 298.31 81.7999 251.62 98.8499 232.05L99.5999 232.71C82.8399 251.95 87.1199 298.21 87.1599 298.71L86.1699 298.78Z" fill="#E0E0E0"/>
<path d="M85.5299 293.84L84.5299 293.77C84.5299 293.24 87.8599 240.7 75.3599 229.19L76.0299 228.46C88.8999 240.28 85.6799 291.66 85.5299 293.84Z" fill="#E0E0E0"/>
<path d="M87.1602 293.81H86.1602C86.1602 292.36 86.5802 258.32 96.2502 252.81C97.1662 252.213 98.2125 251.846 99.3005 251.74C100.389 251.634 101.486 251.792 102.5 252.2C108.35 254.61 111.25 265.02 111.37 265.46L110.37 265.73C110.37 265.62 107.49 255.35 102.09 253.12C101.214 252.777 100.269 252.648 99.3335 252.743C98.3978 252.839 97.4984 253.157 96.7102 253.67C87.5702 258.89 87.1702 293.46 87.1602 293.81Z" fill="#E0E0E0"/>
<path d="M83.4002 293.83L82.4002 293.78C82.4002 293.51 83.8602 266.87 76.6702 257.49C74.9302 255.21 73.0402 254.13 71.0402 254.27C66.3302 254.6 62.3802 261.49 62.3402 261.56L61.4702 261.07C61.6402 260.77 65.7202 253.64 70.9702 253.27C73.3202 253.11 75.5002 254.32 77.4602 256.88C84.8802 266.56 83.4602 292.72 83.4002 293.83Z" fill="#E0E0E0"/>
<path d="M84.9998 297.46C84.8098 294.87 80.2998 234.05 88.2298 223.34L89.0298 223.93C81.3298 234.35 85.9498 296.75 86.0298 297.38L84.9998 297.46Z" fill="#E0E0E0"/>
<path d="M104.66 258.32C104.66 258.32 99.9002 260.07 101.32 264.21C102.74 268.35 117.76 275.15 117.76 275.15C117.76 275.15 124.06 269.38 118.28 260C112.5 250.62 104.79 255.36 104.66 258.32Z" fill="#EBEBEB"/>
<path d="M84.0001 250.44C84.0001 250.44 89.0701 250.23 89.3501 254.59C89.6301 258.95 78.3501 271.03 78.3501 271.03C78.3501 271.03 70.3501 268.12 72.0401 257.24C73.7301 246.36 82.7401 247.76 84.0001 250.44Z" fill="#EBEBEB"/>
<path d="M79.7099 229.56C79.7099 229.56 83.0799 229.2 82.8099 227.14C82.5399 225.08 69.6899 219.8 62.1099 228.35C62.1099 228.35 66.9699 236.69 73.9799 236.8C80.9899 236.91 79.7099 229.56 79.7099 229.56Z" fill="#EBEBEB"/>
<path d="M86.0001 224.57C86.0001 224.57 82.9401 226.05 82.0801 224.16C81.2201 222.27 89.3301 210.98 100.29 214.24C100.29 214.24 100.58 223.88 94.6801 227.68C88.7801 231.48 86.0001 224.57 86.0001 224.57Z" fill="#EBEBEB"/>
<path d="M70.0001 256.66C70.0001 256.66 72.3301 254.78 69.8101 253.86C67.2901 252.94 54.9701 253.2 54.8101 265.42C54.8101 265.42 69.1701 267.8 70.9501 263.15C72.7301 258.5 70.0001 256.66 70.0001 256.66Z" fill="#EBEBEB"/>
<path d="M99.3102 229.25C99.3102 229.25 96.9802 227.37 99.4902 226.46C102 225.55 114.34 225.8 114.49 238.02C114.49 238.02 100.13 240.4 98.3502 235.75C96.5702 231.1 99.3102 229.25 99.3102 229.25Z" fill="#EBEBEB"/>
<path d="M91.7199 239.1C91.7199 239.1 91.5099 236.81 93.3599 237.71C95.2099 238.61 101.63 245.54 94.9699 252.12C94.9699 252.12 85.9699 245.48 87.6099 242.02C89.2499 238.56 91.7199 239.1 91.7199 239.1Z" fill="#EBEBEB"/>
<path d="M67.94 242.35C67.94 242.35 69.33 240.53 67.29 240.3C65.25 240.07 56.11 242.52 58.24 251.64C58.24 251.64 69.37 250.8 69.85 247.01C70.33 243.22 67.94 242.35 67.94 242.35Z" fill="#EBEBEB"/>
<path d="M105.55 327.67H67.35L63.23 285.85H109.67L105.55 327.67Z" fill="#F0F0F0"/>
<path d="M111.71 281.24H61.1899V290.47H111.71V281.24Z" fill="#E6E6E6"/>
<path d="M319.56 327.67H418.28L418.28 61.5701H319.56V327.67Z" fill="#EBEBEB"/>
<path d="M386.84 190.12H409.56V90.83H386.84V190.12Z" fill="#FAFAFA"/>
<path d="M401.88 210.18C401.88 211.076 402.146 211.952 402.643 212.697C403.141 213.442 403.849 214.022 404.676 214.365C405.504 214.708 406.415 214.798 407.294 214.623C408.172 214.448 408.98 214.017 409.613 213.383C410.247 212.75 410.678 211.942 410.853 211.064C411.028 210.185 410.938 209.274 410.595 208.446C410.252 207.619 409.672 206.911 408.927 206.413C408.182 205.916 407.306 205.65 406.41 205.65C405.208 205.65 404.056 206.127 403.207 206.977C402.357 207.826 401.88 208.979 401.88 210.18Z" fill="#E0E0E0"/>
<path d="M241.49 153.84V64.53H171.2V153.84H241.49Z" fill="#E6E6E6"/>
<path d="M172.8 152.23H239.89V66.1299L172.8 66.1299V152.23Z" fill="#F0F0F0"/>
<path d="M190.08 106.5C192.68 109.38 193.33 103.67 193.33 103.67L200.77 91L202.38 104L196.8 144.18C196.8 144.18 191.67 145.7 191.35 146.56C191.03 147.42 200.12 147.65 201.1 146.56C202.08 145.47 200.1 144.18 200.1 144.18L207.1 110.96L207.22 111.49L214.14 144.18C214.14 144.18 212.2 145.47 213.14 146.56C214.08 147.65 223.21 147.42 222.88 146.56C222.55 145.7 217.44 144.18 217.44 144.18L211.93 104L213.54 91L221 103.67C221 103.67 221.65 109.38 224.25 106.5C226.85 103.62 222.25 101.04 222.25 101.04L214.17 87.0399L209.71 85.5L208.71 84.2599C208.71 84.2599 214.43 73.9899 207.23 73.7899H207.01C199.81 73.9899 205.52 84.2599 205.52 84.2599L204.52 85.5L200.12 87L192 101C192 101 187.49 103.64 190.08 106.5Z" fill="#FAFAFA"/>
<path d="M207.27 73.76V111.5L214.19 144.19C214.19 144.19 212.25 145.48 213.19 146.57C214.13 147.66 223.26 147.43 222.93 146.57C222.6 145.71 217.49 144.19 217.49 144.19L211.93 104L213.54 91L221 103.67C221 103.67 221.65 109.38 224.25 106.5C226.85 103.62 222.25 101.04 222.25 101.04L214.17 87.04L209.71 85.5L208.71 84.26C208.71 84.26 214.47 74 207.27 73.76Z" fill="#E6E6E6"/>
<path d="M183.15 79.78H192.44V76.16H183.15V79.78Z" fill="#E6E6E6"/>
<path d="M180 96.05H189.29V92.43H180V96.05Z" fill="#E6E6E6"/>
<path d="M224.09 113.15H233.38V109.53H224.09V113.15Z" fill="#E6E6E6"/>
<path d="M220.38 79.65H229.67V76.03H220.38V79.65Z" fill="#E6E6E6"/>
<path d="M183.15 119.15H192.44V115.53H183.15V119.15Z" fill="#E6E6E6"/>
<path d="M221.55 132.99H230.84V129.37H221.55V132.99Z" fill="#E6E6E6"/>
<path d="M178.5 136.61H187.79V132.99H178.5V136.61Z" fill="#E6E6E6"/>
<path d="M92.3101 64.12V154.27H160.2V64.12H92.3101Z" fill="#E6E6E6"/>
<path d="M158.6 65.71H93.9199V152.66H158.6V65.71Z" fill="#F5F5F5"/>
<path d="M158.6 65.71H93.9199V87.32H158.6V65.71Z" fill="#FAFAFA"/>
<path d="M158.6 107.32H93.9199V131.08H158.6V107.32Z" fill="#FAFAFA"/>
<path d="M100 75.56C100 76.8559 100.384 78.1227 101.105 79.2C101.825 80.2774 102.848 81.1169 104.046 81.6124C105.243 82.1078 106.561 82.237 107.832 81.9834C109.102 81.7299 110.269 81.1051 111.185 80.188C112.101 79.271 112.724 78.1029 112.975 76.8317C113.227 75.5605 113.096 74.2432 112.599 73.0465C112.101 71.8498 111.26 70.8275 110.182 70.109C109.103 69.3905 107.836 69.008 106.54 69.01C105.68 69.01 104.829 69.1795 104.035 69.5088C103.241 69.8381 102.519 70.3207 101.912 70.9291C101.305 71.5374 100.823 72.2596 100.495 73.0542C100.167 73.8488 99.9987 74.7003 100 75.56Z" fill="#F5F5F5"/>
<path d="M148.63 103.73C152.248 103.73 155.18 100.797 155.18 97.18C155.18 93.5625 152.248 90.63 148.63 90.63C145.013 90.63 142.08 93.5625 142.08 97.18C142.08 100.797 145.013 103.73 148.63 103.73Z" fill="#FAFAFA"/>
<path d="M105.76 126.82C109.377 126.82 112.31 123.887 112.31 120.27C112.31 116.653 109.377 113.72 105.76 113.72C102.142 113.72 99.21 116.653 99.21 120.27C99.21 123.887 102.142 126.82 105.76 126.82Z" fill="#F5F5F5"/>
<path d="M147.86 148.44C151.478 148.44 154.41 145.507 154.41 141.89C154.41 138.273 151.478 135.34 147.86 135.34C144.243 135.34 141.31 138.273 141.31 141.89C141.31 145.507 144.243 148.44 147.86 148.44Z" fill="#FAFAFA"/>
<path d="M250 372.56C357.082 372.56 443.89 367.492 443.89 361.24C443.89 354.988 357.082 349.92 250 349.92C142.917 349.92 56.1099 354.988 56.1099 361.24C56.1099 367.492 142.917 372.56 250 372.56Z" fill="#F5F5F5"/>
<path d="M408.46 348.22C408.46 348.22 413.73 323.34 404.14 309.86C394.55 296.38 412.8 309.7 414.9 322.32C414.9 322.32 418.05 299.76 408.75 283.88C399.45 268 416.85 281.04 418.33 297.4C418.33 297.4 421.18 277.27 416.91 265.96C412.64 254.65 420.07 261.96 422.91 269.01C425.75 276.06 422.01 293.66 422.01 293.66C422.01 293.66 429.47 261.19 436.54 263.78C443.61 266.37 425.98 287.63 423.54 298.7C423.54 298.7 431.87 283.81 438.19 286.91C444.51 290.01 428.4 291.55 421.03 313.75L418.44 324.16C418.44 324.16 426.1 309.47 431.11 314.1C436.12 318.73 416.27 326.74 411.65 349L408.46 348.22Z" fill="#9CC2DD"/>
<path d="M409.49 349.65C409.49 349.65 410.6 318.28 426.1 305C441.6 291.72 415.77 302.23 409.49 316.72C409.49 316.72 412.49 288.72 428.32 272.52C444.15 256.32 419.46 266.7 412.81 285.85C412.81 285.85 415.4 260.85 423.89 248.62C432.38 236.39 421.3 242.84 415.77 250.48C410.24 258.12 409.49 280.27 409.49 280.27C409.49 280.27 410.23 239.16 401 240.15C391.77 241.14 406.54 271.87 406.17 285.85C406.17 285.85 400.63 265.53 392.17 267.37C383.71 269.21 402.51 275.84 404.72 304.63V317.87C404.72 317.87 399.9 298 392.51 302C385.12 306 406.51 321.56 405.43 349.61L409.49 349.65Z" fill="#9CC2DD"/>
<path opacity="0.2" d="M409.49 349.65C409.49 349.65 410.6 318.28 426.1 305C441.6 291.72 415.77 302.23 409.49 316.72C409.49 316.72 412.49 288.72 428.32 272.52C444.15 256.32 419.46 266.7 412.81 285.85C412.81 285.85 415.4 260.85 423.89 248.62C432.38 236.39 421.3 242.84 415.77 250.48C410.24 258.12 409.49 280.27 409.49 280.27C409.49 280.27 410.23 239.16 401 240.15C391.77 241.14 406.54 271.87 406.17 285.85C406.17 285.85 400.63 265.53 392.17 267.37C383.71 269.21 402.51 275.84 404.72 304.63V317.87C404.72 317.87 399.9 298 392.51 302C385.12 306 406.51 321.56 405.43 349.61L409.49 349.65Z" fill="white"/>
<path d="M419.5 363.74H395.91C392.993 363.74 390.195 362.581 388.132 360.518C386.069 358.455 384.91 355.657 384.91 352.74V347.82H430.5V352.74C430.5 355.657 429.341 358.455 427.278 360.518C425.215 362.581 422.417 363.74 419.5 363.74Z" fill="#3C5B5F"/>
<path d="M436.51 345.2V348.67C436.51 349.787 436.067 350.857 435.277 351.647C434.488 352.436 433.417 352.88 432.3 352.88H383.2C382.647 352.881 382.099 352.773 381.588 352.562C381.076 352.351 380.612 352.041 380.22 351.65C379.829 351.259 379.519 350.794 379.308 350.283C379.097 349.771 378.989 349.223 378.99 348.67V345.2H436.51Z" fill="#3C5B5F"/>
<path opacity="0.2" d="M436.51 345.2V348.67C436.51 349.787 436.067 350.857 435.277 351.647C434.488 352.436 433.417 352.88 432.3 352.88H383.2C382.647 352.881 382.099 352.773 381.588 352.562C381.076 352.351 380.612 352.041 380.22 351.65C379.829 351.259 379.519 350.794 379.308 350.283C379.097 349.771 378.989 349.223 378.99 348.67V345.2H436.51Z" fill="white"/>
<path d="M293.86 90.55C287.406 90.548 281.077 92.3234 275.565 95.6815C270.054 99.0396 265.574 103.851 262.616 109.587C259.659 115.323 258.338 121.763 258.799 128.2C259.26 134.638 261.485 140.824 265.23 146.08L254.93 158.08L269.08 150.62C273.177 154.692 278.214 157.691 283.745 159.353C289.277 161.015 295.133 161.289 300.795 160.149C306.458 159.009 311.752 156.492 316.21 152.819C320.668 149.147 324.152 144.432 326.354 139.092C328.556 133.753 329.409 127.953 328.836 122.205C328.264 116.458 326.284 110.94 323.071 106.14C319.859 101.34 315.513 97.4053 310.418 94.6844C305.323 91.9635 299.636 90.5401 293.86 90.54V90.55Z" fill="#9CC2DD"/>
<path opacity="0.7" d="M293.86 90.55C287.406 90.548 281.077 92.3234 275.565 95.6815C270.054 99.0396 265.574 103.851 262.616 109.587C259.659 115.323 258.338 121.763 258.799 128.2C259.26 134.638 261.485 140.824 265.23 146.08L254.93 158.08L269.08 150.62C273.177 154.692 278.214 157.691 283.745 159.353C289.277 161.015 295.133 161.289 300.795 160.149C306.458 159.009 311.752 156.492 316.21 152.819C320.668 149.147 324.152 144.432 326.354 139.092C328.556 133.753 329.409 127.953 328.836 122.205C328.264 116.458 326.284 110.94 323.071 106.14C319.859 101.34 315.513 97.4053 310.418 94.6844C305.323 91.9635 299.636 90.5401 293.86 90.54V90.55Z" fill="white"/>
<path d="M287 112L289.61 116.57C289.513 116.789 289.348 116.971 289.14 117.09C288.918 117.193 288.665 117.211 288.43 117.14L286.43 112.28L287 112Z" fill="#9CC2DD"/>
<path opacity="0.1" d="M287 112L289.61 116.57C289.513 116.789 289.348 116.971 289.14 117.09C288.918 117.193 288.665 117.211 288.43 117.14L286.43 112.28L287 112Z" fill="white"/>
<path d="M285.93 112.34C286.04 112.56 286.45 112.57 286.85 112.34C287.25 112.11 287.49 111.81 287.38 111.59C287.27 111.37 286.87 111.36 286.47 111.59C286.07 111.82 285.83 112.12 285.93 112.34Z" fill="#9CC2DD"/>
<path opacity="0.1" d="M285.93 112.34C286.04 112.56 286.45 112.57 286.85 112.34C287.25 112.11 287.49 111.81 287.38 111.59C287.27 111.37 286.87 111.36 286.47 111.59C286.07 111.82 285.83 112.12 285.93 112.34Z" fill="white"/>
<path d="M279.56 119.47L284.56 121.2C284.637 121.43 284.637 121.68 284.56 121.91C284.46 122.132 284.282 122.31 284.06 122.41L279.36 120.05L279.56 119.47Z" fill="#9CC2DD"/>
<path opacity="0.1" d="M279.56 119.47L284.56 121.2C284.637 121.43 284.637 121.68 284.56 121.91C284.46 122.132 284.282 122.31 284.06 122.41L279.36 120.05L279.56 119.47Z" fill="white"/>
<path d="M279 120.46C279.22 120.56 279.55 120.3 279.72 119.89C279.89 119.48 279.85 119.07 279.63 118.97C279.41 118.87 279.09 119.14 278.91 119.55C278.73 119.96 278.79 120.37 279 120.46Z" fill="#9CC2DD"/>
<path opacity="0.1" d="M279 120.46C279.22 120.56 279.55 120.3 279.72 119.89C279.89 119.48 279.85 119.07 279.63 118.97C279.41 118.87 279.09 119.14 278.91 119.55C278.73 119.96 278.79 120.37 279 120.46Z" fill="white"/>
<path d="M281 134.91L285.26 131.83C285.491 131.903 285.691 132.051 285.83 132.25C285.961 132.455 286.007 132.702 285.96 132.94L281.33 135.44L281 134.91Z" fill="#9CC2DD"/>
<path opacity="0.1" d="M281 134.91L285.26 131.83C285.491 131.903 285.691 132.051 285.83 132.25C285.961 132.455 286.007 132.702 285.96 132.94L281.33 135.44L281 134.91Z" fill="white"/>
<path d="M281.48 135.92C281.69 135.79 281.66 135.38 281.43 135.01C281.2 134.64 280.83 134.43 280.63 134.55C280.43 134.67 280.45 135.09 280.68 135.47C280.91 135.85 281.28 136.05 281.48 135.92Z" fill="#9CC2DD"/>
<path opacity="0.1" d="M281.48 135.92C281.69 135.79 281.66 135.38 281.43 135.01C281.2 134.64 280.83 134.43 280.63 134.55C280.43 134.67 280.45 135.09 280.68 135.47C280.91 135.85 281.28 136.05 281.48 135.92Z" fill="white"/>
<path d="M288.07 140.06L289.49 135C289.717 134.923 289.963 134.923 290.19 135C290.42 135.082 290.613 135.246 290.73 135.46L288.67 140.3L288.07 140.06Z" fill="#9CC2DD"/>
<path opacity="0.1" d="M288.07 140.06L289.49 135C289.717 134.923 289.963 134.923 290.19 135C290.42 135.082 290.613 135.246 290.73 135.46L288.67 140.3L288.07 140.06Z" fill="white"/>
<path d="M289.09 140.54C289.17 140.32 288.9 140.01 288.48 139.86C288.06 139.71 287.65 139.78 287.57 140.01C287.49 140.24 287.77 140.54 288.19 140.69C288.61 140.84 289 140.77 289.09 140.54Z" fill="#9CC2DD"/>
<path opacity="0.1" d="M289.09 140.54C289.17 140.32 288.9 140.01 288.48 139.86C288.06 139.71 287.65 139.78 287.57 140.01C287.49 140.24 287.77 140.54 288.19 140.69C288.61 140.84 289 140.77 289.09 140.54Z" fill="white"/>
<path d="M298.28 138.9L295.77 134.28C295.874 134.062 296.046 133.883 296.26 133.77C296.486 133.686 296.734 133.686 296.96 133.77L298.86 138.68L298.28 138.9Z" fill="#9CC2DD"/>
<path opacity="0.1" d="M298.28 138.9L295.77 134.28C295.874 134.062 296.046 133.883 296.26 133.77C296.486 133.686 296.734 133.686 296.96 133.77L298.86 138.68L298.28 138.9Z" fill="white"/>
<path d="M299.35 138.53C299.25 138.31 298.84 138.29 298.44 138.48C298.04 138.67 297.79 138.99 297.89 139.21C297.99 139.43 298.4 139.46 298.8 139.27C299.2 139.08 299.45 138.75 299.35 138.53Z" fill="#9CC2DD"/>
<path opacity="0.1" d="M299.35 138.53C299.25 138.31 298.84 138.29 298.44 138.48C298.04 138.67 297.79 138.99 297.89 139.21C297.99 139.43 298.4 139.46 298.8 139.27C299.2 139.08 299.45 138.75 299.35 138.53Z" fill="white"/>
<path d="M309.81 123.92L304.69 125.13C304.504 124.972 304.375 124.758 304.32 124.52C304.285 124.279 304.338 124.034 304.47 123.83L309.71 123.3L309.81 123.92Z" fill="#9CC2DD"/>
<path opacity="0.1" d="M309.81 123.92L304.69 125.13C304.504 124.972 304.375 124.758 304.32 124.52C304.285 124.279 304.338 124.034 304.47 123.83L309.71 123.3L309.81 123.92Z" fill="white"/>
<path d="M309.74 122.79C309.5 122.79 309.37 123.22 309.44 123.66C309.51 124.1 309.77 124.43 310.01 124.39C310.25 124.35 310.38 123.96 310.3 123.52C310.22 123.08 310 122.75 309.74 122.79Z" fill="#9CC2DD"/>
<path opacity="0.1" d="M309.74 122.79C309.5 122.79 309.37 123.22 309.44 123.66C309.51 124.1 309.77 124.43 310.01 124.39C310.25 124.35 310.38 123.96 310.3 123.52C310.22 123.08 310 122.75 309.74 122.79Z" fill="white"/>
<path d="M299.67 112.88L297.57 117.71C297.332 117.76 297.084 117.735 296.86 117.64C296.646 117.522 296.483 117.33 296.4 117.1L299.11 112.59L299.67 112.88Z" fill="#9CC2DD"/>
<path opacity="0.1" d="M299.67 112.88L297.57 117.71C297.332 117.76 297.084 117.735 296.86 117.64C296.646 117.522 296.483 117.33 296.4 117.1L299.11 112.59L299.67 112.88Z" fill="white"/>
<path d="M298.72 112.27C298.61 112.48 298.84 112.82 299.24 113.03C299.64 113.24 300.05 113.22 300.16 113.03C300.27 112.84 300.04 112.47 299.64 112.27C299.24 112.07 298.83 112.05 298.72 112.27Z" fill="#9CC2DD"/>
<path opacity="0.1" d="M298.72 112.27C298.61 112.48 298.84 112.82 299.24 113.03C299.64 113.24 300.05 113.22 300.16 113.03C300.27 112.84 300.04 112.47 299.64 112.27C299.24 112.07 298.83 112.05 298.72 112.27Z" fill="white"/>
<path d="M305.42 133.34L300.63 131.17C300.581 130.934 300.609 130.689 300.71 130.47C300.828 130.256 301.02 130.092 301.25 130.01L305.72 132.78L305.42 133.34Z" fill="#9CC2DD"/>
<path opacity="0.1" d="M305.42 133.34L300.63 131.17C300.581 130.934 300.609 130.689 300.71 130.47C300.828 130.256 301.02 130.092 301.25 130.01L305.72 132.78L305.42 133.34Z" fill="white"/>
<path d="M306.05 132.4C305.84 132.29 305.5 132.51 305.29 132.91C305.08 133.31 305.08 133.71 305.29 133.82C305.5 133.93 305.85 133.71 306.06 133.32C306.27 132.93 306.27 132.51 306.05 132.4Z" fill="#9CC2DD"/>
<path opacity="0.1" d="M306.05 132.4C305.84 132.29 305.5 132.51 305.29 132.91C305.08 133.31 305.08 133.71 305.29 133.82C305.5 133.93 305.85 133.71 306.06 133.32C306.27 132.93 306.27 132.51 306.05 132.4Z" fill="white"/>
<path d="M293.26 138.18C300.048 138.18 305.55 132.678 305.55 125.89C305.55 119.102 300.048 113.6 293.26 113.6C286.473 113.6 280.97 119.102 280.97 125.89C280.97 132.678 286.473 138.18 293.26 138.18Z" fill="#9CC2DD"/>
<path opacity="0.2" d="M293.26 138.18C300.048 138.18 305.55 132.678 305.55 125.89C305.55 119.102 300.048 113.6 293.26 113.6C286.473 113.6 280.97 119.102 280.97 125.89C280.97 132.678 286.473 138.18 293.26 138.18Z" fill="white"/>
<path d="M293.57 109.37L293.92 114.62C293.733 114.775 293.502 114.866 293.26 114.88C293.016 114.877 292.781 114.784 292.6 114.62L292.94 109.37H293.57Z" fill="#9CC2DD"/>
<path opacity="0.4" d="M293.57 109.37L293.92 114.62C293.733 114.775 293.502 114.866 293.26 114.88C293.016 114.877 292.781 114.784 292.6 114.62L292.94 109.37H293.57Z" fill="white"/>
<path d="M292.45 109.26C292.45 109.5 292.81 109.69 293.26 109.69C293.71 109.69 294.07 109.5 294.07 109.26C294.07 109.02 293.7 108.82 293.26 108.82C292.82 108.82 292.45 109 292.45 109.26Z" fill="#9CC2DD"/>
<path opacity="0.2" d="M292.45 109.26C292.45 109.5 292.81 109.69 293.26 109.69C293.71 109.69 294.07 109.5 294.07 109.26C294.07 109.02 293.7 108.82 293.26 108.82C292.82 108.82 292.45 109 292.45 109.26Z" fill="white"/>
<path d="M283.93 115.27L288.06 118.53C288.055 118.77 287.971 119.002 287.82 119.19C287.654 119.372 287.426 119.486 287.18 119.51L283.51 115.74L283.93 115.27Z" fill="#9CC2DD"/>
<path opacity="0.4" d="M283.93 115.27L288.06 118.53C288.055 118.77 287.971 119.002 287.82 119.19C287.654 119.372 287.426 119.486 287.18 119.51L283.51 115.74L283.93 115.27Z" fill="white"/>
<path d="M283.1 116C283.28 116.16 283.66 116 283.96 115.69C284.26 115.38 284.36 114.96 284.18 114.8C284 114.64 283.61 114.8 283.31 115.11C283.01 115.42 282.92 115.87 283.1 116Z" fill="#9CC2DD"/>
<path opacity="0.2" d="M283.1 116C283.28 116.16 283.66 116 283.96 115.69C284.26 115.38 284.36 114.96 284.18 114.8C284 114.64 283.61 114.8 283.31 115.11C283.01 115.42 282.92 115.87 283.1 116Z" fill="white"/>
<path d="M305.27 114.58L301.57 118.32C301.333 118.284 301.113 118.176 300.94 118.01C300.781 117.824 300.696 117.585 300.7 117.34L304.85 114.11L305.27 114.58Z" fill="#9CC2DD"/>
<path opacity="0.4" d="M305.27 114.58L301.57 118.32C301.333 118.284 301.113 118.176 300.94 118.01C300.781 117.824 300.696 117.585 300.7 117.34L304.85 114.11L305.27 114.58Z" fill="white"/>
<path d="M304.61 113.67C304.43 113.83 304.52 114.23 304.82 114.56C305.12 114.89 305.5 115.04 305.68 114.88C305.86 114.72 305.77 114.31 305.47 113.98C305.17 113.65 304.79 113.51 304.61 113.67Z" fill="#9CC2DD"/>
<path opacity="0.2" d="M304.61 113.67C304.43 113.83 304.52 114.23 304.82 114.56C305.12 114.89 305.5 115.04 305.68 114.88C305.86 114.72 305.77 114.31 305.47 113.98C305.17 113.65 304.79 113.51 304.61 113.67Z" fill="white"/>
<path d="M306.27 120.78L302.47 122.78C302.273 122.649 302.117 122.466 302.02 122.25C301.947 122.026 301.947 121.784 302.02 121.56L306 120.2L306.27 120.78Z" fill="#9CC2DD"/>
<path opacity="0.4" d="M306.27 120.78L302.47 122.78C302.273 122.649 302.117 122.466 302.02 122.25C301.947 122.026 301.947 121.784 302.02 121.56L306 120.2L306.27 120.78Z" fill="white"/>
<path d="M305.79 119.77C305.53 119.88 305.46 120.3 305.63 120.71C305.8 121.12 306.15 121.37 306.41 121.26C306.67 121.15 306.74 120.73 306.56 120.32C306.38 119.91 306 119.66 305.79 119.77Z" fill="#9CC2DD"/>
<path opacity="0.2" d="M305.79 119.77C305.53 119.88 305.46 120.3 305.63 120.71C305.8 121.12 306.15 121.37 306.41 121.26C306.67 121.15 306.74 120.73 306.56 120.32C306.38 119.91 306 119.66 305.79 119.77Z" fill="white"/>
<path d="M297.91 117.65L297.52 119.47C297.52 119.47 297.07 119.78 296.74 119.64C296.619 119.569 296.518 119.47 296.443 119.352C296.368 119.234 296.323 119.099 296.31 118.96L297.31 117.41L297.91 117.65Z" fill="#9CC2DD"/>
<path opacity="0.5" d="M297.91 117.65L297.52 119.47C297.52 119.47 297.07 119.78 296.74 119.64C296.619 119.569 296.518 119.47 296.443 119.352C296.368 119.234 296.323 119.099 296.31 118.96L297.31 117.41L297.91 117.65Z" fill="white"/>
<path d="M296.71 117.61C296.649 117.803 296.662 118.012 296.748 118.196C296.833 118.38 296.984 118.525 297.171 118.603C297.358 118.681 297.568 118.685 297.758 118.616C297.949 118.547 298.106 118.41 298.2 118.23C298.262 118.037 298.248 117.828 298.163 117.644C298.078 117.46 297.926 117.315 297.739 117.237C297.552 117.159 297.343 117.155 297.152 117.224C296.962 117.293 296.804 117.43 296.71 117.61Z" fill="#9CC2DD"/>
<path opacity="0.3" d="M296.71 117.61C296.649 117.803 296.662 118.012 296.748 118.196C296.833 118.38 296.984 118.525 297.171 118.603C297.358 118.681 297.568 118.685 297.758 118.616C297.949 118.547 298.106 118.41 298.2 118.23C298.262 118.037 298.248 117.828 298.163 117.644C298.078 117.46 297.926 117.315 297.739 117.237C297.552 117.159 297.343 117.155 297.152 117.224C296.962 117.293 296.804 117.43 296.71 117.61Z" fill="white"/>
<path d="M291 116.89L291.93 118.5C291.93 118.5 291.8 119.02 291.46 119.14C291.324 119.169 291.184 119.165 291.05 119.128C290.916 119.092 290.792 119.024 290.69 118.93L290.41 117.1L291 116.89Z" fill="#9CC2DD"/>
<path opacity="0.5" d="M291 116.89L291.93 118.5C291.93 118.5 291.8 119.02 291.46 119.14C291.324 119.169 291.184 119.165 291.05 119.128C290.916 119.092 290.792 119.024 290.69 118.93L290.41 117.1L291 116.89Z" fill="white"/>
<path d="M290.12 117.66C290.212 117.834 290.363 117.969 290.547 118.041C290.73 118.113 290.933 118.116 291.118 118.051C291.304 117.985 291.46 117.855 291.557 117.684C291.655 117.513 291.688 117.313 291.65 117.12C291.558 116.946 291.407 116.811 291.224 116.739C291.041 116.667 290.838 116.664 290.652 116.729C290.467 116.795 290.311 116.925 290.213 117.096C290.115 117.267 290.082 117.467 290.12 117.66Z" fill="#9CC2DD"/>
<path opacity="0.3" d="M290.12 117.66C290.212 117.834 290.363 117.969 290.547 118.041C290.73 118.113 290.933 118.116 291.118 118.051C291.304 117.985 291.46 117.855 291.557 117.684C291.655 117.513 291.688 117.313 291.65 117.12C291.558 116.946 291.407 116.811 291.224 116.739C291.041 116.667 290.838 116.664 290.652 116.729C290.467 116.795 290.311 116.925 290.213 117.096C290.115 117.267 290.082 117.467 290.12 117.66Z" fill="white"/>
<path d="M285.68 121.92L287.49 122.32C287.49 122.32 287.8 122.78 287.65 123.11C287.5 123.44 286.98 123.54 286.98 123.54L285.43 122.54L285.68 121.92Z" fill="#9CC2DD"/>
<path opacity="0.5" d="M285.68 121.92L287.49 122.32C287.49 122.32 287.8 122.78 287.65 123.11C287.5 123.44 286.98 123.54 286.98 123.54L285.43 122.54L285.68 121.92Z" fill="white"/>
<path d="M285.63 123.12C285.773 123.204 285.937 123.242 286.102 123.23C286.267 123.218 286.424 123.155 286.553 123.051C286.681 122.946 286.774 122.805 286.82 122.646C286.866 122.487 286.862 122.318 286.809 122.162C286.755 122.005 286.655 121.868 286.522 121.77C286.389 121.672 286.229 121.617 286.064 121.613C285.898 121.608 285.736 121.654 285.597 121.745C285.459 121.836 285.352 121.967 285.29 122.12C285.203 122.298 285.191 122.503 285.254 122.69C285.318 122.877 285.453 123.032 285.63 123.12Z" fill="#9CC2DD"/>
<path opacity="0.3" d="M285.63 123.12C285.773 123.204 285.937 123.242 286.102 123.23C286.267 123.218 286.424 123.155 286.553 123.051C286.681 122.946 286.774 122.805 286.82 122.646C286.866 122.487 286.862 122.318 286.809 122.162C286.755 122.005 286.655 121.868 286.522 121.77C286.389 121.672 286.229 121.617 286.064 121.613C285.898 121.608 285.736 121.654 285.597 121.745C285.459 121.836 285.352 121.967 285.29 122.12C285.203 122.298 285.191 122.503 285.254 122.69C285.318 122.877 285.453 123.032 285.63 123.12Z" fill="white"/>
<path d="M287.12 131.2L288.12 129.63C288.12 129.63 288.65 129.5 288.91 129.75C288.999 129.857 289.06 129.984 289.09 130.119C289.119 130.255 289.116 130.396 289.08 130.53L287.58 131.63L287.12 131.2Z" fill="#9CC2DD"/>
<path opacity="0.5" d="M287.12 131.2L288.12 129.63C288.12 129.63 288.65 129.5 288.91 129.75C288.999 129.857 289.06 129.984 289.09 130.119C289.119 130.255 289.116 130.396 289.08 130.53L287.58 131.63L287.12 131.2Z" fill="white"/>
<path d="M288.23 131.66C288.356 131.55 288.445 131.405 288.485 131.243C288.526 131.081 288.516 130.911 288.458 130.754C288.399 130.598 288.294 130.464 288.157 130.369C288.02 130.274 287.857 130.223 287.69 130.223C287.523 130.223 287.36 130.274 287.223 130.369C287.086 130.464 286.981 130.598 286.923 130.754C286.864 130.911 286.854 131.081 286.895 131.243C286.936 131.405 287.025 131.55 287.15 131.66C287.294 131.802 287.488 131.881 287.69 131.881C287.892 131.881 288.086 131.802 288.23 131.66Z" fill="#9CC2DD"/>
<path opacity="0.3" d="M288.23 131.66C288.356 131.55 288.445 131.405 288.485 131.243C288.526 131.081 288.516 130.911 288.458 130.754C288.399 130.598 288.294 130.464 288.157 130.369C288.02 130.274 287.857 130.223 287.69 130.223C287.523 130.223 287.36 130.274 287.223 130.369C287.086 130.464 286.981 130.598 286.923 130.754C286.864 130.911 286.854 131.081 286.895 131.243C286.936 131.405 287.025 131.55 287.15 131.66C287.294 131.802 287.488 131.881 287.69 131.881C287.892 131.881 288.086 131.802 288.23 131.66Z" fill="white"/>
<path d="M294.4 133L293.62 131.31C293.62 131.31 293.8 130.79 294.15 130.71C294.287 130.694 294.427 130.711 294.557 130.757C294.687 130.804 294.804 130.88 294.9 130.98L295.02 132.84L294.4 133Z" fill="#9CC2DD"/>
<path opacity="0.5" d="M294.4 133L293.62 131.31C293.62 131.31 293.8 130.79 294.15 130.71C294.287 130.694 294.427 130.711 294.557 130.757C294.687 130.804 294.804 130.88 294.9 130.98L295.02 132.84L294.4 133Z" fill="white"/>
<path d="M295.39 132.35C295.36 132.25 295.309 132.157 295.242 132.077C295.175 131.997 295.091 131.932 294.998 131.885C294.904 131.838 294.802 131.811 294.698 131.805C294.593 131.799 294.489 131.814 294.39 131.85C294.194 131.891 294.02 132.007 293.907 132.173C293.793 132.338 293.748 132.542 293.78 132.74C293.841 132.938 293.975 133.106 294.156 133.208C294.336 133.31 294.549 133.339 294.75 133.289C294.952 133.239 295.126 133.114 295.238 132.939C295.349 132.765 295.39 132.554 295.35 132.35H295.39Z" fill="#9CC2DD"/>
<path opacity="0.3" d="M295.39 132.35C295.36 132.25 295.309 132.157 295.242 132.077C295.175 131.997 295.091 131.932 294.998 131.885C294.904 131.838 294.802 131.811 294.698 131.805C294.593 131.799 294.489 131.814 294.39 131.85C294.194 131.891 294.02 132.007 293.907 132.173C293.793 132.338 293.748 132.542 293.78 132.74C293.841 132.938 293.975 133.106 294.156 133.208C294.336 133.31 294.549 133.339 294.75 133.289C294.952 133.239 295.126 133.114 295.238 132.939C295.349 132.765 295.39 132.554 295.35 132.35H295.39Z" fill="white"/>
<path d="M299.48 130.54L297.75 129.84C297.695 129.714 297.667 129.578 297.667 129.44C297.667 129.302 297.695 129.166 297.75 129.04C297.841 128.935 297.955 128.852 298.084 128.798C298.212 128.744 298.351 128.721 298.49 128.73L299.85 130.01L299.48 130.54Z" fill="#9CC2DD"/>
<path opacity="0.5" d="M299.48 130.54L297.75 129.84C297.695 129.714 297.667 129.578 297.667 129.44C297.667 129.302 297.695 129.166 297.75 129.04C297.841 128.935 297.955 128.852 298.084 128.798C298.212 128.744 298.351 128.721 298.49 128.73L299.85 130.01L299.48 130.54Z" fill="white"/>
<path d="M299.72 129.36C299.593 129.257 299.437 129.195 299.274 129.182C299.111 129.169 298.947 129.206 298.805 129.288C298.663 129.37 298.55 129.493 298.479 129.641C298.409 129.789 298.385 129.955 298.41 130.117C298.436 130.278 298.51 130.429 298.623 130.547C298.736 130.666 298.882 130.748 299.043 130.782C299.203 130.816 299.37 130.8 299.521 130.738C299.672 130.675 299.801 130.567 299.89 130.43C299.95 130.349 299.993 130.257 300.017 130.159C300.041 130.061 300.045 129.959 300.029 129.859C300.013 129.76 299.978 129.664 299.925 129.579C299.872 129.493 299.802 129.419 299.72 129.36Z" fill="#9CC2DD"/>
<path opacity="0.3" d="M299.72 129.36C299.593 129.257 299.437 129.195 299.274 129.182C299.111 129.169 298.947 129.206 298.805 129.288C298.663 129.37 298.55 129.493 298.479 129.641C298.409 129.789 298.385 129.955 298.41 130.117C298.436 130.278 298.51 130.429 298.623 130.547C298.736 130.666 298.882 130.748 299.043 130.782C299.203 130.816 299.37 130.8 299.521 130.738C299.672 130.675 299.801 130.567 299.89 130.43C299.95 130.349 299.993 130.257 300.017 130.159C300.041 130.061 300.045 129.959 300.029 129.859C300.013 129.76 299.978 129.664 299.925 129.579C299.872 129.493 299.802 129.419 299.72 129.36Z" fill="white"/>
<path d="M300.9 125.24L299.09 125.65C299.09 125.65 298.62 125.37 298.61 125.01C298.622 124.872 298.667 124.738 298.742 124.622C298.817 124.505 298.919 124.408 299.04 124.34L300.88 124.6L300.9 125.24Z" fill="#9CC2DD"/>
<path opacity="0.5" d="M300.9 125.24L299.09 125.65C299.09 125.65 298.62 125.37 298.61 125.01C298.622 124.872 298.667 124.738 298.742 124.622C298.817 124.505 298.919 124.408 299.04 124.34L300.88 124.6L300.9 125.24Z" fill="white"/>
<path d="M300.43 124.13C300.229 124.153 300.045 124.253 299.918 124.411C299.791 124.568 299.731 124.769 299.75 124.97C299.773 125.107 299.836 125.233 299.929 125.336C300.023 125.438 300.144 125.511 300.278 125.546C300.412 125.581 300.553 125.577 300.685 125.533C300.816 125.49 300.933 125.41 301.02 125.302C301.107 125.195 301.161 125.064 301.176 124.926C301.191 124.789 301.166 124.65 301.103 124.526C301.041 124.402 300.945 124.299 300.825 124.229C300.706 124.159 300.569 124.124 300.43 124.13Z" fill="#9CC2DD"/>
<path opacity="0.3" d="M300.43 124.13C300.229 124.153 300.045 124.253 299.918 124.411C299.791 124.568 299.731 124.769 299.75 124.97C299.773 125.107 299.836 125.233 299.929 125.336C300.023 125.438 300.144 125.511 300.278 125.546C300.412 125.581 300.553 125.577 300.685 125.533C300.816 125.49 300.933 125.41 301.02 125.302C301.107 125.195 301.161 125.064 301.176 124.926C301.191 124.789 301.166 124.65 301.103 124.526C301.041 124.402 300.945 124.299 300.825 124.229C300.706 124.159 300.569 124.124 300.43 124.13Z" fill="white"/>
<path d="M278 123.66L283.24 124.07C283.37 124.275 283.43 124.518 283.41 124.76C283.371 124.999 283.247 125.216 283.06 125.37L277.91 124.29L278 123.66Z" fill="#9CC2DD"/>
<path opacity="0.4" d="M278 123.66L283.24 124.07C283.37 124.275 283.43 124.518 283.41 124.76C283.371 124.999 283.247 125.216 283.06 125.37L277.91 124.29L278 123.66Z" fill="white"/>
<path d="M277.73 124.76C277.96 124.76 278.21 124.46 278.27 124.02C278.33 123.58 278.19 123.19 277.95 123.16C277.71 123.13 277.47 123.45 277.41 123.9C277.35 124.35 277.49 124.72 277.73 124.76Z" fill="#9CC2DD"/>
<path opacity="0.2" d="M277.73 124.76C277.96 124.76 278.21 124.46 278.27 124.02C278.33 123.58 278.19 123.19 277.95 123.16C277.71 123.13 277.47 123.45 277.41 123.9C277.35 124.35 277.49 124.72 277.73 124.76Z" fill="white"/>
<path d="M279.9 130.31L284.74 128.26C284.949 128.379 285.112 128.566 285.2 128.79C285.293 129.018 285.293 129.272 285.2 129.5L280.13 130.9L279.9 130.31Z" fill="#9CC2DD"/>
<path opacity="0.4" d="M279.9 130.31L284.74 128.26C284.949 128.379 285.112 128.566 285.2 128.79C285.293 129.018 285.293 129.272 285.2 129.5L280.13 130.9L279.9 130.31Z" fill="white"/>
<path d="M280.16 131.4C280.39 131.33 280.45 130.92 280.31 130.5C280.17 130.08 279.85 129.8 279.63 129.88C279.41 129.96 279.33 130.37 279.48 130.79C279.63 131.21 279.93 131.48 280.16 131.4Z" fill="#9CC2DD"/>
<path opacity="0.2" d="M280.16 131.4C280.39 131.33 280.45 130.92 280.31 130.5C280.17 130.08 279.85 129.8 279.63 129.88C279.41 129.96 279.33 130.37 279.48 130.79C279.63 131.21 279.93 131.48 280.16 131.4Z" fill="white"/>
<path d="M293.8 142.05L292.9 136.87C293.065 136.695 293.283 136.579 293.52 136.54C293.763 136.519 294.004 136.586 294.2 136.73L294.42 141.99L293.8 142.05Z" fill="#9CC2DD"/>
<path opacity="0.4" d="M293.8 142.05L292.9 136.87C293.065 136.695 293.283 136.579 293.52 136.54C293.763 136.519 294.004 136.586 294.2 136.73L294.42 141.99L293.8 142.05Z" fill="white"/>
<path d="M294.93 142.05C294.93 141.81 294.52 141.65 294.08 141.7C293.64 141.75 293.29 141.98 293.32 142.22C293.35 142.46 293.73 142.62 294.17 142.57C294.61 142.52 295 142.29 294.93 142.05Z" fill="#9CC2DD"/>
<path opacity="0.2" d="M294.93 142.05C294.93 141.81 294.52 141.65 294.08 141.7C293.64 141.75 293.29 141.98 293.32 142.22C293.35 142.46 293.73 142.62 294.17 142.57C294.61 142.52 295 142.29 294.93 142.05Z" fill="white"/>
<path d="M308.33 129.86L303.17 128.86C303.066 128.639 303.034 128.39 303.08 128.15C303.146 127.915 303.296 127.712 303.5 127.58L308.5 129.24L308.33 129.86Z" fill="#9CC2DD"/>
<path opacity="0.4" d="M308.33 129.86L303.17 128.86C303.066 128.639 303.034 128.39 303.08 128.15C303.146 127.915 303.296 127.712 303.5 127.58L308.5 129.24L308.33 129.86Z" fill="white"/>
<path d="M308.73 128.8C308.49 128.74 308.21 129.04 308.1 129.47C307.99 129.9 308.1 130.3 308.32 130.36C308.54 130.42 308.83 130.12 308.95 129.69C309.07 129.26 309 128.86 308.73 128.8Z" fill="#9CC2DD"/>
<path opacity="0.2" d="M308.73 128.8C308.49 128.74 308.21 129.04 308.1 129.47C307.99 129.9 308.1 130.3 308.32 130.36C308.54 130.42 308.83 130.12 308.95 129.69C309.07 129.26 309 128.86 308.73 128.8Z" fill="white"/>
<path d="M283.61 139.28L286.35 134.79C286.593 134.772 286.834 134.831 287.04 134.96C287.238 135.1 287.375 135.312 287.42 135.55L284.12 139.64L283.61 139.28Z" fill="#9CC2DD"/>
<path opacity="0.4" d="M283.61 139.28L286.35 134.79C286.593 134.772 286.834 134.831 287.04 134.96C287.238 135.1 287.375 135.312 287.42 135.55L284.12 139.64L283.61 139.28Z" fill="white"/>
<path d="M284.46 140C284.6 139.8 284.46 139.44 284.05 139.18C283.64 138.92 283.28 138.87 283.14 139.07C283 139.27 283.14 139.64 283.55 139.89C283.96 140.14 284.32 140.22 284.46 140Z" fill="#9CC2DD"/>
<path opacity="0.2" d="M284.46 140C284.6 139.8 284.46 139.44 284.05 139.18C283.64 138.92 283.28 138.87 283.14 139.07C283 139.27 283.14 139.64 283.55 139.89C283.96 140.14 284.32 140.22 284.46 140Z" fill="white"/>
<path d="M304.92 138.22L300.92 134.8C300.938 134.557 301.033 134.326 301.19 134.14C301.364 133.967 301.595 133.864 301.84 133.85L305.36 137.77L304.92 138.22Z" fill="#9CC2DD"/>
<path opacity="0.4" d="M304.92 138.22L300.92 134.8C300.938 134.557 301.033 134.326 301.19 134.14C301.364 133.967 301.595 133.864 301.84 133.85L305.36 137.77L304.92 138.22Z" fill="white"/>
<path d="M305.78 137.49C305.61 137.33 305.22 137.49 304.91 137.77C304.6 138.05 304.48 138.48 304.66 138.65C304.84 138.82 305.22 138.65 305.53 138.38C305.84 138.11 306 137.66 305.78 137.49Z" fill="#9CC2DD"/>
<path opacity="0.2" d="M305.78 137.49C305.61 137.33 305.22 137.49 304.91 137.77C304.6 138.05 304.48 138.48 304.66 138.65C304.84 138.82 305.22 138.65 305.53 138.38C305.84 138.11 306 137.66 305.78 137.49Z" fill="white"/>
<path opacity="0.2" d="M295.44 122.76C295.44 122.98 295.528 123.191 295.684 123.347C295.839 123.503 296.05 123.59 296.27 123.59C296.491 123.59 296.704 123.503 296.861 123.348C297.018 123.192 297.108 122.981 297.11 122.76C297.108 122.538 297.018 122.326 296.862 122.169C296.705 122.012 296.492 121.923 296.27 121.92C296.049 121.923 295.838 122.012 295.683 122.17C295.528 122.327 295.44 122.539 295.44 122.76Z" fill="white"/>
<path opacity="0.2" d="M294.32 127.59C294.32 127.811 294.407 128.023 294.563 128.18C294.718 128.338 294.929 128.427 295.15 128.43C295.372 128.427 295.584 128.338 295.741 128.181C295.898 128.024 295.988 127.812 295.99 127.59C295.988 127.369 295.898 127.158 295.741 127.002C295.584 126.847 295.371 126.76 295.15 126.76C294.93 126.76 294.719 126.847 294.563 127.003C294.408 127.159 294.32 127.37 294.32 127.59Z" fill="white"/>
<path opacity="0.2" d="M300.81 130.9C300.81 131.121 300.897 131.333 301.053 131.49C301.208 131.648 301.419 131.737 301.64 131.74C301.862 131.737 302.074 131.648 302.231 131.491C302.388 131.334 302.477 131.122 302.48 130.9C302.477 130.679 302.388 130.468 302.231 130.312C302.073 130.157 301.861 130.07 301.64 130.07C301.42 130.07 301.209 130.157 301.053 130.313C300.898 130.469 300.81 130.68 300.81 130.9Z" fill="white"/>
<path opacity="0.2" d="M297.64 134.65C298.098 134.65 298.47 134.278 298.47 133.82C298.47 133.362 298.098 132.99 297.64 132.99C297.182 132.99 296.81 133.362 296.81 133.82C296.81 134.278 297.182 134.65 297.64 134.65Z" fill="white"/>
<path opacity="0.2" d="M289.19 122C289.19 122.164 289.239 122.325 289.33 122.461C289.422 122.598 289.551 122.704 289.703 122.767C289.854 122.83 290.021 122.846 290.182 122.814C290.343 122.782 290.491 122.703 290.607 122.587C290.723 122.471 290.802 122.323 290.834 122.162C290.866 122.001 290.85 121.834 290.787 121.682C290.724 121.531 290.618 121.401 290.482 121.31C290.345 121.219 290.185 121.17 290.02 121.17C289.911 121.17 289.803 121.191 289.703 121.233C289.602 121.275 289.511 121.336 289.434 121.413C289.356 121.49 289.295 121.582 289.254 121.682C289.212 121.783 289.19 121.891 289.19 122Z" fill="white"/>
<path opacity="0.2" d="M285.59 126.24C285.593 126.462 285.682 126.674 285.839 126.831C285.996 126.988 286.208 127.077 286.43 127.08C286.651 127.077 286.862 126.988 287.018 126.83C287.173 126.673 287.26 126.461 287.26 126.24C287.26 126.02 287.173 125.809 287.017 125.653C286.862 125.497 286.65 125.41 286.43 125.41C286.209 125.41 285.997 125.497 285.84 125.652C285.683 125.808 285.593 126.019 285.59 126.24Z" fill="white"/>
<path opacity="0.2" d="M284.42 132.15C284.423 132.372 284.512 132.584 284.669 132.741C284.826 132.898 285.038 132.987 285.26 132.99C285.481 132.987 285.693 132.898 285.848 132.74C286.003 132.583 286.09 132.371 286.09 132.15C286.09 131.93 286.003 131.719 285.847 131.563C285.692 131.407 285.481 131.32 285.26 131.32C285.039 131.32 284.827 131.407 284.67 131.562C284.513 131.718 284.423 131.929 284.42 132.15Z" fill="white"/>
<path opacity="0.2" d="M292.43 124.34C292.43 124.56 292.518 124.771 292.673 124.927C292.829 125.083 293.04 125.17 293.26 125.17C293.48 125.17 293.691 125.083 293.847 124.927C294.003 124.771 294.09 124.56 294.09 124.34C294.09 124.12 294.003 123.909 293.847 123.753C293.691 123.597 293.48 123.51 293.26 123.51C293.04 123.51 292.829 123.597 292.673 123.753C292.518 123.909 292.43 124.12 292.43 124.34Z" fill="white"/>
<path opacity="0.2" d="M289.89 132.85C289.893 133.071 289.982 133.282 290.14 133.438C290.297 133.593 290.509 133.68 290.73 133.68C290.839 133.68 290.947 133.659 291.048 133.617C291.148 133.575 291.24 133.514 291.317 133.437C291.394 133.36 291.455 133.268 291.497 133.168C291.539 133.067 291.56 132.959 291.56 132.85C291.56 132.629 291.473 132.417 291.318 132.26C291.162 132.102 290.951 132.013 290.73 132.01C290.508 132.013 290.296 132.102 290.139 132.259C289.982 132.416 289.893 132.628 289.89 132.85Z" fill="white"/>
<path opacity="0.2" d="M293.92 116.89C293.92 117.11 294.008 117.321 294.164 117.477C294.319 117.633 294.53 117.72 294.75 117.72C294.971 117.72 295.182 117.633 295.337 117.477C295.493 117.321 295.58 117.11 295.58 116.89C295.58 116.67 295.493 116.459 295.337 116.303C295.182 116.147 294.971 116.06 294.75 116.06C294.53 116.06 294.319 116.147 294.164 116.303C294.008 116.459 293.92 116.67 293.92 116.89Z" fill="white"/>
<path opacity="0.2" d="M284.47 121.56C284.929 121.56 285.3 121.188 285.3 120.73C285.3 120.272 284.929 119.9 284.47 119.9C284.012 119.9 283.64 120.272 283.64 120.73C283.64 121.188 284.012 121.56 284.47 121.56Z" fill="white"/>
<path opacity="0.2" d="M300.07 121.34C300.529 121.34 300.9 120.968 300.9 120.51C300.9 120.052 300.529 119.68 300.07 119.68C299.612 119.68 299.24 120.052 299.24 120.51C299.24 120.968 299.612 121.34 300.07 121.34Z" fill="white"/>
<path opacity="0.2" d="M292.79 121.15C292.79 121.205 292.801 121.259 292.822 121.309C292.843 121.36 292.874 121.405 292.914 121.443C292.953 121.482 292.999 121.512 293.05 121.532C293.101 121.552 293.155 121.561 293.21 121.56C293.319 121.56 293.423 121.517 293.5 121.44C293.577 121.363 293.62 121.259 293.62 121.15C293.621 121.095 293.612 121.041 293.592 120.99C293.572 120.939 293.542 120.893 293.504 120.854C293.465 120.814 293.42 120.783 293.369 120.762C293.319 120.741 293.265 120.73 293.21 120.73C293.099 120.73 292.992 120.774 292.913 120.853C292.834 120.932 292.79 121.039 292.79 121.15Z" fill="white"/>
<path opacity="0.2" d="M288.48 116.34C288.48 116.451 288.524 116.558 288.603 116.637C288.682 116.716 288.789 116.76 288.9 116.76C289.011 116.76 289.118 116.716 289.197 116.637C289.276 116.558 289.32 116.451 289.32 116.34C289.32 116.229 289.276 116.122 289.197 116.043C289.118 115.964 289.011 115.92 288.9 115.92C288.789 115.92 288.682 115.964 288.603 116.043C288.524 116.122 288.48 116.229 288.48 116.34Z" fill="white"/>
<path opacity="0.2" d="M297.9 116.47C297.899 116.525 297.908 116.579 297.928 116.63C297.948 116.681 297.978 116.727 298.017 116.766C298.055 116.806 298.1 116.837 298.151 116.858C298.201 116.879 298.255 116.89 298.31 116.89C298.421 116.89 298.528 116.846 298.607 116.767C298.686 116.688 298.73 116.581 298.73 116.47C298.73 116.359 298.686 116.252 298.607 116.173C298.528 116.094 298.421 116.05 298.31 116.05C298.255 116.05 298.201 116.061 298.151 116.082C298.1 116.103 298.055 116.134 298.017 116.174C297.978 116.213 297.948 116.259 297.928 116.31C297.908 116.361 297.899 116.415 297.9 116.47Z" fill="white"/>
<path opacity="0.2" d="M303 125C303 125.111 303.044 125.218 303.123 125.297C303.202 125.376 303.309 125.42 303.42 125.42C303.475 125.42 303.529 125.409 303.579 125.388C303.63 125.367 303.675 125.336 303.714 125.296C303.752 125.257 303.782 125.211 303.802 125.16C303.822 125.109 303.831 125.055 303.83 125C303.83 124.891 303.787 124.787 303.71 124.71C303.633 124.633 303.529 124.59 303.42 124.59C303.365 124.589 303.311 124.598 303.26 124.618C303.209 124.638 303.163 124.668 303.124 124.706C303.084 124.745 303.053 124.79 303.032 124.841C303.011 124.891 303 124.945 303 125Z" fill="white"/>
<path opacity="0.2" d="M289.84 126.07C289.84 126.181 289.885 126.288 289.963 126.367C290.042 126.446 290.149 126.49 290.26 126.49C290.372 126.49 290.479 126.446 290.557 126.367C290.636 126.288 290.68 126.181 290.68 126.07C290.68 125.959 290.636 125.852 290.557 125.773C290.479 125.694 290.372 125.65 290.26 125.65C290.149 125.65 290.042 125.694 289.963 125.773C289.885 125.852 289.84 125.959 289.84 126.07Z" fill="white"/>
<path opacity="0.2" d="M282.58 127.49C282.58 127.601 282.624 127.708 282.703 127.787C282.782 127.866 282.889 127.91 283 127.91C283.111 127.91 283.218 127.866 283.297 127.787C283.376 127.708 283.42 127.601 283.42 127.49C283.42 127.379 283.376 127.272 283.297 127.193C283.218 127.114 283.111 127.07 283 127.07C282.889 127.07 282.782 127.114 282.703 127.193C282.624 127.272 282.58 127.379 282.58 127.49Z" fill="white"/>
<path opacity="0.2" d="M290.56 129.75C290.559 129.805 290.568 129.859 290.588 129.91C290.608 129.961 290.638 130.007 290.677 130.046C290.715 130.086 290.761 130.117 290.811 130.138C290.861 130.159 290.915 130.17 290.97 130.17C291.082 130.17 291.188 130.126 291.267 130.047C291.346 129.968 291.39 129.861 291.39 129.75C291.39 129.639 291.346 129.532 291.267 129.453C291.188 129.374 291.082 129.33 290.97 129.33C290.915 129.33 290.861 129.341 290.811 129.362C290.761 129.383 290.715 129.414 290.677 129.454C290.638 129.493 290.608 129.539 290.588 129.59C290.568 129.641 290.559 129.695 290.56 129.75Z" fill="white"/>
<path opacity="0.2" d="M287.91 134.51C287.91 134.621 287.954 134.728 288.033 134.807C288.112 134.886 288.219 134.93 288.33 134.93C288.442 134.93 288.548 134.886 288.627 134.807C288.706 134.728 288.75 134.621 288.75 134.51C288.75 134.399 288.706 134.292 288.627 134.213C288.548 134.134 288.442 134.09 288.33 134.09C288.219 134.09 288.112 134.134 288.033 134.213C287.954 134.292 287.91 134.399 287.91 134.51Z" fill="white"/>
<path opacity="0.2" d="M293 134.51C293.016 134.609 293.066 134.699 293.142 134.764C293.218 134.83 293.315 134.865 293.415 134.865C293.515 134.865 293.612 134.83 293.688 134.764C293.764 134.699 293.815 134.609 293.83 134.51C293.839 134.45 293.836 134.389 293.819 134.331C293.803 134.272 293.774 134.218 293.734 134.172C293.695 134.126 293.646 134.089 293.591 134.064C293.536 134.039 293.476 134.025 293.415 134.025C293.355 134.025 293.295 134.039 293.24 134.064C293.184 134.089 293.136 134.126 293.096 134.172C293.057 134.218 293.028 134.272 293.011 134.331C292.995 134.389 292.991 134.45 293 134.51Z" fill="white"/>
<path d="M293.86 151.62C287.867 151.625 282.057 149.552 277.42 145.755C272.783 141.957 269.607 136.669 268.431 130.792C267.255 124.915 268.154 118.812 270.973 113.523C273.792 108.234 278.358 104.086 283.892 101.785C289.426 99.4843 295.587 99.1734 301.325 100.905C307.063 102.637 312.023 106.305 315.36 111.283C318.697 116.262 320.205 122.243 319.627 128.209C319.049 134.174 316.421 139.755 312.19 144C309.791 146.419 306.935 148.339 303.788 149.647C300.642 150.955 297.267 151.625 293.86 151.62ZM293.86 102.78C288.557 102.779 283.418 104.617 279.318 107.981C275.218 111.345 272.412 116.026 271.377 121.227C270.342 126.428 271.143 131.827 273.642 136.504C276.142 141.181 280.186 144.846 285.085 146.875C289.985 148.905 295.436 149.172 300.511 147.633C305.585 146.093 309.969 142.841 312.915 138.432C315.861 134.022 317.186 128.727 316.666 123.45C316.145 118.173 313.811 113.239 310.06 109.49C307.938 107.355 305.414 105.663 302.633 104.511C299.852 103.359 296.87 102.771 293.86 102.78Z" fill="#9CC2DD"/>
<path d="M277.658 107.366L275.537 109.487L310.072 144.022L312.193 141.901L277.658 107.366Z" fill="#9CC2DD"/>
<path d="M320.48 285.39H213.47V361.85H320.48V285.39Z" fill="#2E353A"/>
<path opacity="0.2" d="M320.48 285.39H213.47V361.85H320.48V285.39Z" fill="white"/>
<path opacity="0.2" d="M275.85 285.39H213.47V361.85H275.85V285.39Z" fill="white"/>
<path d="M324.49 356.93H209.77L206.77 363.74H327.49L324.49 356.93Z" fill="#2E353A"/>
<path opacity="0.2" d="M274.49 356.93H209.77L206.77 363.74H273.49L274.49 356.93Z" fill="white"/>
<path d="M197.6 195.6H249.24L266.19 233.08H310.59C313.213 233.08 315.729 234.122 317.583 235.977C319.438 237.831 320.48 240.347 320.48 242.97V277.77C320.481 278.972 320.246 280.163 319.786 281.275C319.327 282.386 318.653 283.396 317.804 284.246C316.954 285.097 315.945 285.772 314.834 286.233C313.723 286.693 312.532 286.93 311.33 286.93H231L189.31 209.47C188.187 207.374 187.894 204.932 188.49 202.63C189.02 200.617 190.201 198.836 191.848 197.564C193.496 196.293 195.519 195.602 197.6 195.6Z" fill="#9CC2DD"/>
<path opacity="0.5" d="M320.48 243V277.8C320.48 280.147 319.58 282.404 317.965 284.107C316.35 285.809 314.143 286.827 311.8 286.95H231L189.31 209.49C188.541 208.056 188.157 206.447 188.195 204.82C188.233 203.193 188.692 201.604 189.527 200.207C190.361 198.81 191.544 197.654 192.959 196.85C194.374 196.046 195.972 195.622 197.6 195.62H249.24L266.19 233.1H311C313.554 233.203 315.968 234.293 317.736 236.139C319.503 237.985 320.487 240.444 320.48 243Z" fill="white"/>
<path opacity="0.2" d="M320.48 243V277.8C320.481 280.147 319.581 282.404 317.965 284.107C316.35 285.809 314.143 286.827 311.8 286.95H311.65C309.493 286.845 307.459 285.914 305.97 284.35C304.481 282.786 303.65 280.709 303.65 278.55V241.45C303.649 239.404 304.395 237.428 305.749 235.894C307.102 234.36 308.97 233.374 311 233.12C313.55 233.223 315.962 234.31 317.729 236.151C319.496 237.993 320.482 240.448 320.48 243Z" fill="black"/>
<path opacity="0.2" d="M303.67 266V286.95H231L189.31 209.49C188.635 208.236 188.254 206.846 188.195 205.423C188.136 204.001 188.4 202.583 188.968 201.278C189.536 199.972 190.393 198.813 191.474 197.886C192.556 196.96 193.833 196.291 195.21 195.93C196.62 196.273 197.945 196.902 199.101 197.78C200.258 198.657 201.22 199.764 201.93 201.03L238.3 266.03L303.67 266Z" fill="white"/>
<path d="M331.42 270.98H230.65C225.039 270.98 220.49 275.529 220.49 281.14C220.49 286.751 225.039 291.3 230.65 291.3H331.42C337.031 291.3 341.58 286.751 341.58 281.14C341.58 275.529 337.031 270.98 331.42 270.98Z" fill="#9CC2DD"/>
<path opacity="0.5" d="M341.58 281.14C341.577 283.834 340.506 286.416 338.601 288.321C336.696 290.226 334.114 291.297 331.42 291.3H230.66C229.326 291.3 228.005 291.037 226.772 290.527C225.539 290.016 224.419 289.268 223.476 288.324C222.532 287.381 221.784 286.261 221.273 285.028C220.763 283.795 220.5 282.474 220.5 281.14C220.5 279.806 220.763 278.485 221.273 277.252C221.784 276.019 222.532 274.899 223.476 273.956C224.419 273.012 225.539 272.264 226.772 271.753C228.005 271.243 229.326 270.98 230.66 270.98H331.42C334.115 270.98 336.699 272.05 338.604 273.956C340.51 275.861 341.58 278.445 341.58 281.14Z" fill="white"/>
<path opacity="0.2" d="M287.58 281.14C287.577 283.834 286.506 286.416 284.601 288.321C282.696 290.226 280.114 291.297 277.42 291.3H210.66C209.326 291.3 208.005 291.037 206.772 290.527C205.539 290.016 204.419 289.268 203.476 288.324C202.532 287.381 201.784 286.261 201.273 285.028C200.763 283.795 200.5 282.474 200.5 281.14C200.5 279.806 200.763 278.485 201.273 277.252C201.784 276.019 202.532 274.899 203.476 273.956C204.419 273.012 205.539 272.264 206.772 271.753C208.005 271.243 209.326 270.98 210.66 270.98H277.42C280.115 270.98 282.699 272.05 284.604 273.956C286.51 275.861 287.58 278.445 287.58 281.14Z" fill="white"/>
<path d="M391.33 321.27L358.08 280.32C357.052 279.052 355.725 278.057 354.22 277.426C352.714 276.794 351.075 276.545 349.45 276.7H307.2C304.643 276.477 302.1 277.259 300.11 278.88C299.093 279.702 298.248 280.717 297.625 281.867C297.001 283.016 296.611 284.278 296.476 285.579C296.341 286.88 296.465 288.194 296.84 289.447C297.215 290.7 297.833 291.867 298.66 292.88L331.92 333.88C332.847 335.024 334.017 335.948 335.345 336.583C336.674 337.217 338.127 337.548 339.6 337.55H383.52C385.405 337.569 387.257 337.052 388.859 336.057C390.461 335.063 391.747 333.633 392.566 331.935C393.385 330.237 393.704 328.34 393.485 326.468C393.266 324.595 392.519 322.823 391.33 321.36V321.27Z" fill="#9CC2DD"/>
<path opacity="0.2" d="M345.88 335.24C344.867 336.068 343.701 336.688 342.448 337.063C341.195 337.439 339.879 337.563 338.578 337.428C337.277 337.293 336.015 336.902 334.866 336.278C333.716 335.654 332.701 334.808 331.88 333.79L298.63 292.79C297.801 291.778 297.181 290.612 296.805 289.359C296.428 288.106 296.303 286.792 296.437 285.49C296.571 284.189 296.961 282.927 297.584 281.777C298.208 280.627 299.053 279.612 300.07 278.79C301.083 277.964 302.249 277.346 303.502 276.971C304.754 276.596 306.068 276.472 307.369 276.606C308.669 276.739 309.93 277.128 311.08 277.75C312.23 278.372 313.246 279.215 314.07 280.23L347.32 321.18C348.157 322.194 348.784 323.364 349.165 324.623C349.545 325.881 349.672 327.203 349.539 328.511C349.405 329.819 349.012 331.087 348.384 332.242C347.756 333.398 346.905 334.416 345.88 335.24Z" fill="white"/>
<path opacity="0.5" d="M391.33 321.27L358.08 280.32C357.052 279.052 355.725 278.057 354.22 277.426C352.714 276.794 351.075 276.545 349.45 276.7H307.2C304.643 276.477 302.1 277.259 300.11 278.88C299.093 279.702 298.248 280.717 297.625 281.867C297.001 283.016 296.611 284.278 296.476 285.579C296.341 286.88 296.465 288.194 296.84 289.447C297.215 290.7 297.833 291.867 298.66 292.88L331.92 333.88C332.847 335.024 334.017 335.948 335.345 336.583C336.674 337.217 338.127 337.548 339.6 337.55H383.52C385.405 337.569 387.257 337.052 388.859 336.057C390.461 335.063 391.747 333.633 392.566 331.935C393.385 330.237 393.704 328.34 393.485 326.468C393.266 324.595 392.519 322.823 391.33 321.36V321.27Z" fill="white"/>
<path d="M225.45 201.93C225.411 201.932 225.372 201.923 225.337 201.906C225.302 201.888 225.272 201.862 225.25 201.83C222.46 198.12 223.71 189.56 225.84 185.05C226.394 183.88 226.626 182.583 226.514 181.293C226.401 180.003 225.948 178.767 225.2 177.71C225.176 177.685 225.158 177.655 225.146 177.622C225.135 177.59 225.13 177.555 225.132 177.521C225.135 177.486 225.144 177.452 225.16 177.422C225.177 177.391 225.199 177.364 225.226 177.343C225.253 177.321 225.284 177.305 225.318 177.297C225.351 177.288 225.386 177.286 225.421 177.291C225.455 177.297 225.487 177.309 225.517 177.328C225.546 177.347 225.571 177.371 225.59 177.4C226.396 178.531 226.885 179.857 227.008 181.24C227.131 182.623 226.883 184.014 226.29 185.27C224.22 189.66 222.97 197.97 225.65 201.53C225.67 201.556 225.684 201.586 225.692 201.618C225.7 201.65 225.702 201.683 225.697 201.715C225.693 201.748 225.682 201.779 225.665 201.807C225.648 201.836 225.626 201.86 225.6 201.88C225.557 201.914 225.504 201.932 225.45 201.93Z" fill="#3C5B5F"/>
<path d="M224.1 177.78C224.1 177.78 216.62 166.62 225.22 158C232.17 151 245.33 152.33 252.06 165.25C258.32 177.25 251.94 178.71 260.06 183.87C268.18 189.03 268.84 194.35 264.06 204.35C259.28 214.35 245.92 219.21 237.23 214.23C228.54 209.25 224.92 193.23 227.17 186.08C229.42 178.93 224.1 177.78 224.1 177.78Z" fill="#3C5B5F"/>
<path d="M268.72 195.85H268.64C268.578 195.829 268.527 195.785 268.497 195.728C268.467 195.67 268.461 195.602 268.48 195.54C269.88 191.08 265.4 187.37 261.48 184.1C259.756 182.806 258.195 181.308 256.83 179.64C255.67 177.94 255.46 175.79 255.23 173.29C254.84 169.14 254.4 164.44 249.48 159.8C241.74 152.48 232.39 156.53 232.3 156.57C232.27 156.585 232.237 156.593 232.204 156.594C232.171 156.596 232.137 156.59 232.106 156.578C232.075 156.566 232.047 156.547 232.024 156.523C232 156.5 231.982 156.471 231.97 156.44C231.943 156.38 231.94 156.312 231.962 156.25C231.985 156.189 232.031 156.138 232.09 156.11C232.19 156.11 241.83 151.89 249.83 159.44C254.88 164.21 255.35 169.22 255.73 173.25C255.96 175.67 256.15 177.76 257.25 179.35C258.581 180.988 260.109 182.456 261.8 183.72C265.86 187.09 270.47 190.91 268.97 195.72C268.946 195.764 268.91 195.8 268.865 195.824C268.82 195.847 268.77 195.856 268.72 195.85Z" fill="#3C5B5F"/>
<path d="M299.22 228.31L305.22 230.42C305.22 230.42 313.1 230.7 313.97 231.04C314.84 231.38 314.97 237.76 315.05 238.45C315.13 239.14 307.33 239.53 306.46 238.92C305.59 238.31 304.76 235.76 304.76 235.76L296.76 232.29L299.22 228.31Z" fill="#EBB376"/>
<path d="M303.67 229.3L301.67 234.52C301.67 234.52 291.67 232.52 283.07 230.43C277.43 229.05 272.39 227.63 271.22 226.69C269.6 225.4 265.82 217.35 262.71 210.29C260.1 204.35 257.96 199.09 257.96 199.09L260.77 196.23C267.06 198.4 277.3 219.98 277.3 219.98L303.67 229.3Z" fill="#9CC2DD"/>
<path opacity="0.2" d="M283.09 230.43C277.45 229.05 272.41 227.63 271.24 226.69C269.62 225.4 265.84 217.35 262.73 210.29L265.2 206.21C265.2 206.21 276.28 217.69 283.09 230.43Z" fill="black"/>
<path d="M388.57 314.27L384.12 317.85L378.41 312.24L373.18 307.09L377.77 301.98L383.49 308.49L388.57 314.27Z" fill="#EBB376"/>
<path d="M383 318.89C382.51 318.49 387.61 312.66 387.61 312.66C387.61 312.66 394.35 311.83 398.03 308.83C401.71 305.83 402.33 309.56 399.19 313.66L391.4 323.8C389.18 326.71 388.1 323 383 318.89Z" fill="#2E353A"/>
<path d="M388.86 312.64H388.81C388.745 312.623 388.689 312.584 388.65 312.53C388.65 312.46 387.56 310.83 387.86 309.72C387.904 309.548 387.986 309.387 388.098 309.249C388.21 309.111 388.351 308.999 388.51 308.92C388.636 308.827 388.788 308.776 388.945 308.776C389.102 308.776 389.254 308.827 389.38 308.92C389.522 309.14 389.616 309.387 389.653 309.646C389.691 309.905 389.673 310.169 389.6 310.42C389.87 309.955 390.261 309.572 390.73 309.31C390.839 309.263 390.956 309.239 391.075 309.239C391.194 309.239 391.311 309.263 391.42 309.31C391.88 309.51 391.98 309.79 391.99 310C391.99 311 389.48 312.37 388.99 312.63L388.86 312.64ZM391.09 309.71C391.03 309.698 390.969 309.698 390.91 309.71C390.35 309.94 389.74 311.02 389.36 311.81C390.36 311.21 391.52 310.4 391.5 309.95C391.5 309.86 391.41 309.77 391.23 309.7C391.183 309.693 391.135 309.696 391.09 309.71ZM389 309.26C388.904 309.268 388.811 309.299 388.73 309.35C388.631 309.396 388.543 309.465 388.474 309.549C388.405 309.634 388.356 309.734 388.33 309.84C388.263 310.539 388.425 311.241 388.79 311.84C389.13 310.7 389.3 309.53 389.06 309.32L389 309.26Z" fill="#577AFA"/>
<path opacity="0.2" d="M383.6 308.62L378.51 312.36L373.23 307.15L377.79 302.01L383.6 308.62Z" fill="black"/>
<path d="M276.92 232.52L282.67 242.46C282.67 242.46 332.88 251.8 340.26 256.12C347.64 260.44 380.26 304.64 380.26 304.64L374 309.43L323.63 269.75L266.17 264.16L276.92 232.52Z" fill="#2E353A"/>
<path opacity="0.3" d="M276.92 232.52L282.67 242.46C282.67 242.46 332.88 251.8 340.26 256.12C347.64 260.44 380.26 304.64 380.26 304.64L374 309.43L323.63 269.75L266.17 264.16L276.92 232.52Z" fill="black"/>
<path d="M377.16 316.24L372.93 320.08L366.89 314.82L361.36 309.98L365.64 304.61L371.74 310.77L377.16 316.24Z" fill="#EBB376"/>
<path d="M371.86 319.89C371.45 319.41 377.54 314.62 377.54 314.62C377.54 314.62 384.32 315.04 388.48 312.77C392.64 310.5 392.58 314.28 388.73 317.77L379.22 326.31C376.48 328.72 376.1 324.86 371.86 319.89Z" fill="#2E353A"/>
<path d="M378.79 314.83H378.71L378.64 314.78C378.618 314.765 378.601 314.744 378.59 314.72C378.59 314.65 377.83 312.85 378.33 311.81C378.405 311.649 378.513 311.506 378.647 311.39C378.782 311.275 378.94 311.189 379.11 311.14C379.6 311 379.85 311.14 379.97 311.3C380.21 311.6 380.12 312.2 379.91 312.82C380.259 312.411 380.712 312.104 381.22 311.93C381.337 311.903 381.459 311.9 381.577 311.921C381.695 311.942 381.809 311.985 381.91 312.05C382.052 312.121 382.168 312.234 382.243 312.374C382.319 312.513 382.349 312.672 382.33 312.83C382.18 313.83 379.43 314.7 378.88 314.83H378.79ZM381.41 312.35H381.3C380.71 312.48 379.91 313.42 379.39 314.13C380.52 313.73 381.77 313.13 381.84 312.7C381.84 312.61 381.78 312.51 381.62 312.4C381.557 312.363 381.483 312.345 381.41 312.35ZM379.41 311.53C379.334 311.518 379.256 311.518 379.18 311.53C379.072 311.556 378.972 311.607 378.887 311.678C378.802 311.749 378.735 311.839 378.69 311.94C378.512 312.601 378.547 313.3 378.79 313.94C379.33 312.88 379.72 311.76 379.52 311.51C379.499 311.513 379.478 311.519 379.46 311.53H379.41Z" fill="#577AFA"/>
<path opacity="0.2" d="M371.86 310.9L367 314.93L361.41 310.04L365.67 304.64L371.86 310.9Z" fill="black"/>
<path d="M369.38 306.17L362.38 313.05C338.67 295.05 317.05 275.99 317.05 275.99C282.64 280.71 256.51 275.34 253.54 273.66C240.18 266.08 246.54 239.58 246.54 239.58L275.3 229.3C277.72 232.73 279.3 240.68 280.09 245.75C280.51 248.4 280.71 250.26 280.71 250.26C313.32 257.08 324.03 256.94 329.71 263.47C334.69 269.2 369.38 306.17 369.38 306.17Z" fill="#2E353A"/>
<path d="M361.28 312.24L368.88 303.96L371.15 308.28L364.89 314.9L361.28 312.24Z" fill="#9CC2DD"/>
<path opacity="0.5" d="M246.54 239.57L246.17 242.98L276.92 232.52L275.2 228.96L246.54 239.57Z" fill="black"/>
<path d="M262.68 233.75L264.02 237.07C264.093 237.244 264.23 237.384 264.403 237.46C264.576 237.536 264.772 237.543 264.95 237.48L269.41 235.81C269.5 235.777 269.583 235.726 269.653 235.66C269.723 235.595 269.78 235.517 269.82 235.429C269.86 235.342 269.882 235.248 269.886 235.152C269.889 235.056 269.874 234.96 269.84 234.87L268.55 231.58C268.481 231.405 268.346 231.264 268.174 231.187C268.002 231.111 267.806 231.104 267.63 231.17L263.11 232.79C263.018 232.823 262.933 232.875 262.861 232.942C262.789 233.008 262.731 233.089 262.691 233.179C262.651 233.268 262.629 233.365 262.627 233.463C262.625 233.561 262.643 233.659 262.68 233.75Z" fill="white"/>
<path d="M255.15 236.34L255.93 240.47L254.8 240.8L253.83 236.71L255.15 236.34Z" fill="#3C5B5F"/>
<path d="M271.24 230.43L272.89 234.52L273.93 234.22L272.32 229.93L271.24 230.43Z" fill="#3C5B5F"/>
<path opacity="0.3" d="M280.71 250.26L273.93 249.08L280.09 245.75C280.51 248.4 280.71 250.26 280.71 250.26Z" fill="black"/>
<path d="M372.2 309.47L379.91 301.29L382.12 305.64L375.77 312.18L372.2 309.47Z" fill="#9CC2DD"/>
<path d="M275.85 230.3L246.54 239.58C241.223 233.58 236.313 227.233 231.84 220.58C229.522 217.121 227.46 213.498 225.67 209.74C223.78 205.66 222.58 201.74 222.67 198.5C222.67 198.5 224.59 197.84 227.83 197.08C236.783 194.896 246.048 194.287 255.21 195.28C257.096 195.518 258.968 195.851 260.82 196.28L275.85 230.3Z" fill="#9CC2DD"/>
<path d="M238.48 191.92C238.924 194.148 238.924 196.442 238.48 198.67L248.63 196.67C246.68 195.52 245.72 188.19 245.24 185.19C245 183.76 244.88 182.43 244.82 181.51C244.76 180.59 244.76 180.23 244.76 180.23L241.1 182.12L235.1 185.2C236.635 187.21 237.781 189.489 238.48 191.92Z" fill="#EBB376"/>
<path opacity="0.2" d="M235.17 185.22C236.678 187.23 237.8 189.501 238.48 191.92C241.473 190.567 243.882 188.187 245.27 185.21C245.03 183.78 244.91 182.45 244.85 181.53C243.54 181.72 242.3 181.93 241.13 182.14L235.17 185.22Z" fill="black"/>
<path d="M238.3 155.87C238.3 155.87 221.58 150.43 217.23 166.35C212.88 182.27 225.67 181.12 225.67 181.12L238.3 155.87Z" fill="#3C5B5F"/>
<path d="M231 161.78C223.11 164.04 221.78 168.99 223.53 177.29C225.71 187.66 230.03 194.23 239.28 189.29C251.87 182.45 244.13 158 231 161.78Z" fill="#EBB376"/>
<path d="M228.53 175.38C228.238 176.744 227.781 178.067 227.17 179.32C227.495 179.58 227.886 179.745 228.299 179.796C228.712 179.847 229.131 179.783 229.51 179.61L228.53 175.38Z" fill="#D58745"/>
<path d="M233.18 173.36C233.35 174.01 233.84 174.45 234.27 174.36C234.7 174.27 234.92 173.63 234.75 172.98C234.58 172.33 234.09 171.89 233.66 171.98C233.23 172.07 233 172.7 233.18 173.36Z" fill="#3C5B5F"/>
<path d="M233.85 172L232.28 171.82C232.28 171.82 233.3 172.78 233.85 172Z" fill="#3C5B5F"/>
<path d="M225 175.34C225.17 175.99 225.66 176.43 226.09 176.34C226.52 176.25 226.74 175.6 226.57 174.95C226.4 174.3 225.91 173.86 225.48 173.95C225.05 174.04 224.86 174.69 225 175.34Z" fill="#3C5B5F"/>
<path d="M225.7 173.94L224.13 173.75C224.13 173.75 225.15 174.76 225.7 173.94Z" fill="#3C5B5F"/>
<path d="M235.46 168.46C235.386 168.459 235.314 168.438 235.25 168.4C234.733 168.113 234.157 167.948 233.566 167.917C232.975 167.886 232.385 167.989 231.84 168.22C231.751 168.255 231.652 168.254 231.563 168.219C231.474 168.184 231.401 168.116 231.36 168.03C231.323 167.941 231.322 167.841 231.358 167.751C231.393 167.662 231.462 167.589 231.55 167.55C232.209 167.269 232.924 167.145 233.64 167.188C234.355 167.232 235.05 167.441 235.67 167.8C235.747 167.858 235.799 167.943 235.815 168.037C235.832 168.132 235.812 168.229 235.76 168.31C235.725 168.357 235.68 168.395 235.628 168.421C235.576 168.447 235.518 168.46 235.46 168.46Z" fill="#3C5B5F"/>
<path d="M222.9 171.1C222.816 171.103 222.734 171.074 222.67 171.02C222.636 170.987 222.61 170.947 222.591 170.903C222.573 170.859 222.564 170.812 222.564 170.765C222.564 170.718 222.573 170.671 222.591 170.627C222.61 170.583 222.636 170.543 222.67 170.51C223.05 170.001 223.541 169.585 224.106 169.294C224.671 169.003 225.295 168.845 225.93 168.83C226.025 168.83 226.117 168.868 226.184 168.935C226.252 169.003 226.29 169.095 226.29 169.19C226.29 169.285 226.252 169.377 226.184 169.445C226.117 169.512 226.025 169.55 225.93 169.55C225.408 169.574 224.898 169.715 224.437 169.962C223.977 170.21 223.578 170.558 223.27 170.98C223.226 171.033 223.168 171.073 223.102 171.094C223.037 171.116 222.967 171.118 222.9 171.1Z" fill="#3C5B5F"/>
<path d="M243.46 172.61C243.46 172.61 237.91 167.18 237 162C237 162 219.53 160.08 223.31 176.18C223.31 176.18 217.74 162.52 231.22 158.32C244.7 154.12 250.32 173.99 245.01 181.91C245.05 181.93 246.9 176 243.46 172.61Z" fill="#3C5B5F"/>
<path d="M231.33 183.15C231.257 183.148 231.186 183.126 231.126 183.085C231.066 183.044 231.019 182.987 230.99 182.92C230.958 182.828 230.962 182.728 231.004 182.64C231.045 182.552 231.119 182.484 231.21 182.45C233.93 181.45 233.99 179.53 233.99 179.45C233.99 179.403 233.999 179.356 234.017 179.312C234.035 179.269 234.062 179.229 234.095 179.195C234.129 179.162 234.168 179.135 234.212 179.117C234.256 179.099 234.303 179.09 234.35 179.09C234.445 179.09 234.537 179.128 234.604 179.195C234.672 179.263 234.71 179.355 234.71 179.45C234.71 179.55 234.71 181.94 231.46 183.13C231.419 183.146 231.374 183.153 231.33 183.15Z" fill="#3C5B5F"/>
<path d="M224.13 179.73C225.357 178.743 226.799 178.058 228.34 177.73C231.669 177.51 235.007 177.467 238.34 177.6L242.62 186.07C242.62 186.07 238.94 190.77 230.93 190.94C230.89 190.94 225 188.22 224.13 179.73Z" fill="#9CC2DD"/>
<path opacity="0.5" d="M224.13 179.73C225.357 178.743 226.799 178.058 228.34 177.73C231.669 177.51 235.007 177.467 238.34 177.6L242.62 186.07C242.62 186.07 238.94 190.77 230.93 190.94C230.89 190.94 225 188.22 224.13 179.73Z" fill="white"/>
<path d="M241.94 186.32C241.874 186.316 241.811 186.292 241.76 186.25C241.713 186.202 241.687 186.137 241.687 186.07C241.687 186.003 241.713 185.938 241.76 185.89C244.426 183.422 246.007 180 246.16 176.37C246.254 174.759 245.72 173.175 244.67 171.95C244.555 171.819 244.407 171.721 244.242 171.665C244.078 171.609 243.901 171.597 243.73 171.63C241.86 171.98 239.33 176.81 238.52 178.63C238.491 178.692 238.44 178.74 238.376 178.764C238.313 178.789 238.242 178.787 238.18 178.76C238.12 178.732 238.075 178.681 238.052 178.62C238.03 178.558 238.032 178.49 238.06 178.43C238.18 178.15 241.13 171.6 243.63 171.13C243.881 171.078 244.141 171.093 244.384 171.172C244.628 171.25 244.847 171.391 245.02 171.58C246.165 172.901 246.753 174.614 246.66 176.36C246.508 180.125 244.872 183.677 242.11 186.24C242.063 186.284 242.003 186.312 241.94 186.32Z" fill="white"/>
<path d="M242.65 174.64C242.464 173.705 242.657 172.735 243.186 171.942C243.714 171.149 244.536 170.598 245.47 170.41C247.99 169.98 250.59 174.67 244.86 177.61C244 178 243.3 177.33 242.65 174.64Z" fill="#EBB376"/>
<path d="M249.71 203.35C239.9 204.09 230.96 199.07 227.8 197.05C236.753 194.866 246.018 194.257 255.18 195.25C256.68 198.51 257.15 202.78 249.71 203.35Z" fill="#EBB376"/>
<path opacity="0.2" d="M231.84 220.55C229.523 217.091 227.461 213.468 225.67 209.71C226.648 208.547 227.898 207.643 229.31 207.08C229.31 207.08 234.5 214.11 231.84 220.55Z" fill="black"/>
<path d="M209.14 236.34H248.33C250.067 236.34 251.733 237.03 252.961 238.258C254.19 239.487 254.88 241.153 254.88 242.89V283.89C254.88 285.768 254.134 287.569 252.806 288.896C251.478 290.224 249.678 290.97 247.8 290.97H210.16C208.152 290.97 206.227 290.172 204.807 288.753C203.387 287.333 202.59 285.408 202.59 283.4V242.89C202.59 241.153 203.28 239.487 204.508 238.258C205.737 237.03 207.403 236.34 209.14 236.34Z" fill="#9CC2DD"/>
<path opacity="0.5" d="M254.88 242.89V283.89C254.884 285.568 254.292 287.193 253.21 288.475C252.127 289.757 250.625 290.613 248.97 290.89C248.587 290.958 248.199 290.992 247.81 290.99H210.16C208.152 290.99 206.227 290.192 204.807 288.773C203.387 287.353 202.59 285.428 202.59 283.42V242.89C202.59 241.153 203.28 239.487 204.508 238.258C205.737 237.03 207.403 236.34 209.14 236.34H248.34C248.473 236.33 248.607 236.33 248.74 236.34C250.406 236.442 251.97 237.177 253.111 238.395C254.253 239.613 254.886 241.221 254.88 242.89Z" fill="white"/>
<path opacity="0.2" d="M254.88 242.89V283.89C254.884 285.568 254.292 287.193 253.209 288.475C252.127 289.757 250.625 290.613 248.97 290.89C247.19 290.611 245.569 289.704 244.399 288.335C243.229 286.965 242.587 285.222 242.59 283.42V242.89C242.531 242.047 242.646 241.201 242.928 240.404C243.21 239.607 243.653 238.877 244.23 238.259C244.806 237.641 245.503 237.148 246.278 236.811C247.053 236.474 247.89 236.3 248.735 236.3C249.58 236.3 250.416 236.474 251.191 236.811C251.966 237.148 252.663 237.641 253.24 238.259C253.816 238.877 254.259 239.607 254.541 240.404C254.823 241.201 254.939 242.047 254.88 242.89Z" fill="black"/>
<path d="M228.83 233.11L234.83 235.22C234.83 235.22 242.72 235.5 243.58 235.84C244.44 236.18 244.58 242.56 244.66 243.25C244.74 243.94 236.94 244.34 236.08 243.73C235.22 243.12 234.38 240.56 234.38 240.56L226.38 237.81L228.83 233.11Z" fill="#EBB376"/>
<path d="M222.64 198.47C217.02 200.57 205.49 224.53 205.49 229.3C205.49 234.07 233.31 239.3 233.31 239.3L235.97 235.3C235.97 235.3 216.75 227.98 216.14 226.3C215.53 224.62 227.59 211 227.59 211C227.59 211 228.84 205.72 227.59 203.4C226.34 201.08 222.64 198.47 222.64 198.47Z" fill="#EBB376"/>
<path d="M222.64 198.47C220.34 197.54 214.86 205.59 214.86 205.59L226.73 214L228.65 212.47C228.65 212.47 232.4 202.43 222.64 198.47Z" fill="#9CC2DD"/>
<path d="M213.47 206.21L214.41 203.42L227.52 214.02L226.59 215.15L213.47 206.21Z" fill="#9CC2DD"/>
<path opacity="0.6" d="M213.47 206.21L214.41 203.42L227.52 214.02L226.59 215.15L213.47 206.21Z" fill="white"/>
<path d="M174.9 194.14L168.57 198.29L166.3 192.41L172.82 189.13L174.9 194.14Z" fill="#E4897B"/>
<path d="M141.47 197.8C141.57 198.03 147.91 205.26 151.71 206.09C155.51 206.92 170 198.63 170 198.63L166.73 190.42C166.73 190.42 154.96 194.67 153.97 195.16C152.98 195.65 149.42 190.85 149.42 190.85L141.47 197.8Z" fill="#9CC2DD"/>
<path opacity="0.1" d="M141.47 197.8C141.57 198.03 147.91 205.26 151.71 206.09C155.51 206.92 170 198.63 170 198.63L166.73 190.42C166.73 190.42 154.96 194.67 153.97 195.16C152.98 195.65 149.42 190.85 149.42 190.85L141.47 197.8Z" fill="white"/>
<path d="M170.94 189L173.84 196.5L176.08 194.89L178.82 194.57C180.22 194.41 186.25 190.2 186.56 189.57C186.87 188.94 182.39 179.34 182.13 179.51C181.87 179.68 173.36 184.78 172.9 184.96C172.44 185.14 172.23 188.45 172.23 188.45L170.94 189Z" fill="#9CC2DD"/>
<path opacity="0.8" d="M170.94 189L173.84 196.5L176.08 194.89L178.82 194.57C180.22 194.41 186.25 190.2 186.56 189.57C186.87 188.94 182.39 179.34 182.13 179.51C181.87 179.68 173.36 184.78 172.9 184.96C172.44 185.14 172.23 188.45 172.23 188.45L170.94 189Z" fill="white"/>
<path d="M177.891 188.45L179.044 189.226L183.537 182.546L182.383 181.77L177.891 188.45Z" fill="#9CC2DD"/>
<path opacity="0.3" d="M177.891 188.45L179.044 189.226L183.537 182.546L182.383 181.77L177.891 188.45Z" fill="white"/>
<path d="M176.945 188.381L179.459 190.072L179.85 189.491L177.336 187.801L176.945 188.381Z" fill="#9CC2DD"/>
<path opacity="0.5" d="M176.945 188.381L179.459 190.072L179.85 189.491L177.336 187.801L176.945 188.381Z" fill="white"/>
<path d="M178.75 182.21L184.49 186.07L183.29 183.59L181.51 182.39L178.75 182.21Z" fill="#9CC2DD"/>
<path d="M178.594 182.471L184.328 186.328L184.501 186.07L178.767 182.214L178.594 182.471Z" fill="#9CC2DD"/>
<path opacity="0.6" d="M178.594 182.471L184.328 186.328L184.501 186.07L178.767 182.214L178.594 182.471Z" fill="white"/>
<path opacity="0.5" d="M178.75 182.21L184.49 186.07L183.29 183.59L181.51 182.39L178.75 182.21Z" fill="white"/>
<path d="M188.95 173.61L188.61 173.38L192.62 167.43L192.51 168.31L188.95 173.61Z" fill="#9CC2DD"/>
<path d="M187.86 173.867L188.789 174.492L189.71 173.123L188.78 172.498L187.86 173.867Z" fill="#9CC2DD"/>
<path opacity="0.5" d="M187.86 173.867L188.789 174.492L189.71 173.123L188.78 172.498L187.86 173.867Z" fill="white"/>
<path d="M183.743 184.522L180.49 182.334L186.824 172.916C186.895 172.81 187.005 172.737 187.13 172.713C187.255 172.688 187.385 172.714 187.49 172.785L189.98 174.459C190.085 174.531 190.158 174.641 190.183 174.766C190.207 174.89 190.181 175.02 190.11 175.126L183.804 184.503L183.743 184.522Z" fill="#9CC2DD"/>
<path opacity="0.6" d="M183.743 184.522L180.49 182.334L186.824 172.916C186.895 172.81 187.005 172.737 187.13 172.713C187.255 172.688 187.385 172.714 187.49 172.785L189.98 174.459C190.085 174.531 190.158 174.641 190.183 174.766C190.207 174.89 190.181 175.02 190.11 175.126L183.804 184.503L183.743 184.522Z" fill="white"/>
<path d="M172.33 138.57C172.33 138.57 168.47 164.64 167.19 165.86C165.91 167.08 150.05 162.34 150.05 162.34L152.3 136.86L172.33 138.57Z" fill="#9CC2DD"/>
<path opacity="0.8" d="M172.33 138.57C172.33 138.57 168.47 164.64 167.19 165.86C165.91 167.08 150.05 162.34 150.05 162.34L152.3 136.86L172.33 138.57Z" fill="white"/>
<path d="M166.49 151.12C166.199 152.481 165.742 153.8 165.13 155.05C165.455 155.31 165.845 155.475 166.258 155.528C166.671 155.581 167.09 155.519 167.47 155.35L166.49 151.12Z" fill="#CC6633"/>
<path d="M168.18 146.2C168.107 146.201 168.036 146.176 167.98 146.13C167.46 145.844 166.882 145.68 166.289 145.651C165.697 145.621 165.105 145.727 164.56 145.96C164.475 145.981 164.385 145.972 164.306 145.933C164.228 145.894 164.165 145.828 164.131 145.748C164.096 145.668 164.091 145.577 164.116 145.493C164.142 145.41 164.196 145.337 164.27 145.29C164.929 145.009 165.644 144.885 166.359 144.928C167.074 144.972 167.77 145.181 168.39 145.54C168.468 145.595 168.521 145.678 168.538 145.771C168.555 145.865 168.534 145.962 168.48 146.04C168.448 146.091 168.404 146.132 168.351 146.16C168.298 146.188 168.239 146.202 168.18 146.2Z" fill="#3C5B5F"/>
<path d="M166.38 148.76C166.18 149.4 166.38 150.03 166.79 150.17C167.2 150.31 167.73 149.89 167.94 149.25C168.15 148.61 167.94 147.98 167.53 147.84C167.12 147.7 166.59 148.12 166.38 148.76Z" fill="#3C5B5F"/>
<path d="M163.3 159.27C161.732 161.793 159.324 163.68 156.5 164.6C155.896 164.798 155.277 164.949 154.65 165.05C152.238 165.477 149.753 165.104 147.572 163.988C145.392 162.873 143.635 161.076 142.57 158.87C139.71 153.18 141.44 148.24 143.7 139.67C144.195 137.659 145.197 135.808 146.609 134.294C148.021 132.779 149.797 131.651 151.769 131.017C153.74 130.382 155.841 130.263 157.872 130.669C159.902 131.076 161.795 131.995 163.37 133.34C170.53 139.4 167.59 152.29 163.3 159.27Z" fill="#E4897B"/>
<path opacity="0.2" d="M156.5 164.6C155.896 164.798 155.277 164.949 154.65 165.05C152.996 165.339 151.299 165.256 149.681 164.806C148.064 164.356 146.567 163.551 145.3 162.45C146.005 161.562 146.822 160.769 147.73 160.09C151.026 160.719 154.071 162.285 156.5 164.6Z" fill="black"/>
<path d="M129.85 167.85C131.3 173.56 144.21 174.33 144.21 174.33C144.21 174.33 150.78 176.48 150.76 173.97C147.85 171.26 147.27 168.69 147.91 166.3C148.353 164.839 149.081 163.48 150.05 162.3C150.568 161.634 151.122 160.996 151.71 160.39L146.09 145C144 151.32 136 166.3 129.85 167.85Z" fill="#E4897B"/>
<path d="M162.16 128.94C162.16 128.94 164.83 128.3 167.46 133.12C169.68 137.18 165.67 138.55 166.34 143.06C167.01 147.57 163.17 150.52 163.17 150.52C163.17 150.52 160.02 153.9 156.89 152.6C156.89 152.6 153.24 154.92 152.59 158.34C151.94 161.76 145.3 156.45 140 158C140 158 136 155 135.34 146.7C135.147 143.073 135.642 139.443 136.8 136C136.8 136 137.8 130.91 143.68 127.48C149.56 124.05 160.54 124.94 162.16 128.94Z" fill="#3C5B5F"/>
<path d="M163.65 152C163.65 152 160.55 159.86 157.51 161.35C157.654 162.506 157.565 163.679 157.25 164.8C157.25 164.8 166.8 163.34 167.7 153.8L163.65 152Z" fill="#9CC2DD"/>
<path opacity="0.5" d="M163.65 152C163.65 152 160.55 159.86 157.51 161.35C157.654 162.506 157.565 163.679 157.25 164.8C157.25 164.8 166.8 163.34 167.7 153.8L163.65 152Z" fill="white"/>
<path d="M157.83 162.1C157.784 162.099 157.739 162.086 157.7 162.061C157.661 162.036 157.63 162.001 157.61 161.96C157.49 161.72 154.61 156.06 155.21 151.96C155.268 151.149 155.528 150.366 155.964 149.68C156.4 148.994 157 148.427 157.71 148.03C158.278 147.759 158.903 147.63 159.532 147.654C160.161 147.679 160.774 147.856 161.32 148.17C163.32 149.34 164.32 153.06 164.41 153.22C164.427 153.285 164.418 153.354 164.384 153.412C164.35 153.47 164.295 153.513 164.23 153.53C164.165 153.547 164.095 153.538 164.037 153.504C163.979 153.47 163.937 153.415 163.92 153.35C163.92 153.35 162.92 149.67 161.07 148.6C160.595 148.329 160.062 148.176 159.515 148.153C158.969 148.13 158.425 148.239 157.93 148.47C157.294 148.834 156.759 149.349 156.371 149.971C155.984 150.592 155.757 151.299 155.71 152.03C155.13 155.93 158.03 161.63 158.06 161.68C158.088 161.74 158.093 161.809 158.072 161.872C158.052 161.935 158.008 161.988 157.95 162.02C157.918 162.057 157.876 162.085 157.83 162.1Z" fill="white"/>
<path d="M155.88 150.25C155.785 151.094 155.877 151.948 156.151 152.751C156.424 153.555 156.871 154.289 157.46 154.9C158.94 156.18 160.85 154.14 161.46 151.52C161.96 149.21 161.82 145.67 159.85 145.52C157.88 145.37 156 147.79 155.88 150.25Z" fill="#E4897B"/>
<path d="M140.57 355.41L149.32 354.21L150.53 333.42L141.8 334.63L140.57 355.41Z" fill="#EBB376"/>
<path opacity="0.2" d="M141.8 334.63L150.53 333.43L149.84 345.31L141.12 346.08L141.8 334.63Z" fill="black"/>
<path d="M170.44 257C167.93 284.58 155.54 342.63 155.54 342.63L139.44 341.4C139.44 341.4 138.78 287.53 145.52 259.97C134.3 258.68 96.1498 265.26 88.6898 252.33C88.6428 252.259 88.5994 252.185 88.5598 252.11C84.5598 244.71 89.7698 216.89 89.7698 216.89L138.77 219.82L140.91 233.19C147.91 235.69 154.76 236.99 160.14 239.27C167 242.18 171.38 246.62 170.44 257Z" fill="#9CC2DD"/>
<path d="M150 353.15L140.12 352.54C139.955 352.523 139.791 352.571 139.662 352.674C139.533 352.777 139.45 352.926 139.43 353.09L138.43 360.89C138.407 361.298 138.545 361.699 138.814 362.008C139.083 362.316 139.462 362.507 139.87 362.54C143.32 362.7 144.98 362.6 149.32 362.84C151.99 363 157.25 363.56 160.93 363.21C164.61 362.86 164.17 359.21 162.58 359.05C158.8 358.62 153.81 355.85 151.45 353.74C151.042 353.393 150.534 353.186 150 353.15Z" fill="#3C5B5F"/>
<path d="M150.19 354.23H150.37C150.37 354.23 150.57 354.29 150.6 354.32C150.63 354.35 150.6 354.32 150.6 354.38C150.625 354.39 150.654 354.39 150.68 354.38C151.427 354.618 152.198 354.772 152.98 354.84C153.558 354.94 154.153 354.822 154.65 354.51C154.804 354.371 154.916 354.191 154.973 353.991C155.03 353.791 155.029 353.579 154.97 353.38C154.954 353.248 154.906 353.122 154.829 353.014C154.752 352.905 154.649 352.818 154.53 352.76C153.689 352.623 152.826 352.782 152.09 353.21C152.606 352.667 152.914 351.958 152.96 351.21C152.922 351.033 152.829 350.873 152.694 350.752C152.559 350.632 152.39 350.557 152.21 350.54C152.036 350.509 151.858 350.514 151.686 350.553C151.514 350.593 151.352 350.666 151.21 350.77C150.29 351.57 150.14 354.06 150.14 354.21L150.19 354.23ZM151.14 353.72L150.96 353.82C150.96 352.99 151.15 351.59 151.7 351.12C151.76 351.064 151.831 351.022 151.908 350.994C151.986 350.967 152.068 350.955 152.15 350.96H152.25C152.54 350.96 152.61 351.16 152.62 351.28C152.43 352.243 151.906 353.107 151.14 353.72ZM151.26 354.16C152.33 353.57 153.84 352.93 154.4 353.16C154.459 353.186 154.51 353.227 154.547 353.28C154.584 353.333 154.606 353.396 154.61 353.46C154.644 353.586 154.645 353.719 154.612 353.846C154.578 353.972 154.512 354.088 154.42 354.18C154 354.59 152.82 354.57 151.26 354.16Z" fill="#9CC2DD"/>
<path d="M89.7695 216.91C89.7695 216.91 101.15 141.05 161.25 167.41L163.65 187.09L159.48 191.94C159.48 191.94 143.77 203.05 138.79 219.84L89.7695 216.91Z" fill="#9CC2DD"/>
<path opacity="0.2" d="M163.65 187.09L159.48 191.94C157.24 193.601 155.125 195.423 153.15 197.39C148.15 202.24 141.68 210.08 138.79 219.84L89.7896 216.91C89.7896 216.91 101.17 141.05 161.27 167.41L163.27 184.07L163.65 187.09Z" fill="white"/>
<path opacity="0.2" d="M163.65 187.09L159.48 191.94C157.24 193.601 155.125 195.423 153.15 197.39C152.489 191.116 153.119 184.772 155 178.75L163.29 184.07L163.65 187.09Z" fill="black"/>
<path d="M193 210.65L201.68 214.75C202.41 213.655 203.233 212.624 204.14 211.67C207.212 210.889 210.348 210.387 213.51 210.17C214.15 210.37 215.51 218.09 214.51 219.11C213.51 220.13 205.27 221.11 205.27 221.11L203.11 220.38L191.51 217.16L193 210.65Z" fill="#E4897B"/>
<path d="M161.25 167.41C167.12 169.65 172 194.68 173.71 196.93C175.42 199.18 198 212 198 212L196 219.7C196 219.7 170.55 210.8 167.12 207.9C163.69 205 155.52 186.65 155.52 186.65C154.677 182.482 154.677 178.188 155.52 174.02C157 167.67 161.25 167.41 161.25 167.41Z" fill="#9CC2DD"/>
<path opacity="0.2" d="M161.25 167.41C167.12 169.65 172 194.68 173.71 196.93C175.42 199.18 198 212 198 212L196 219.7C196 219.7 170.55 210.8 167.12 207.9C163.69 205 155.52 186.65 155.52 186.65C154.677 182.482 154.677 178.188 155.52 174.02C157 167.67 161.25 167.41 161.25 167.41Z" fill="white"/>
<path d="M136.4 134.7L172.79 139.12L172.33 142.67L135.71 138.05L136.4 134.7Z" fill="#9CC2DD"/>
<path d="M200.52 213.8V221.85L203.18 221.15L205.86 221.85C207.22 222.2 214.36 220.45 214.86 220.02C215.36 219.59 214.66 209.02 214.36 209.02C214.06 209.02 204.27 210.77 203.78 210.77C203.29 210.77 201.9 213.77 201.9 213.77L200.52 213.8Z" fill="white"/>
<path opacity="0.2" d="M170.44 257C167.93 284.58 155.54 342.63 155.54 342.63L139.44 341.4C139.44 341.4 138.78 287.53 145.52 259.97C134.3 258.68 96.1499 265.26 88.6899 252.33C93.6899 254.4 102.43 255.67 115.82 250.09L160.16 239.27C167 242.18 171.38 246.62 170.44 257Z" fill="black"/>
<path d="M163.96 352.91L172.78 353.05L177.15 332.69L168.33 332.56L163.96 352.91Z" fill="#EBB376"/>
<path d="M174 353.37C174 353.37 174 353.42 174 353.44H174.07C174.774 353.782 175.511 354.05 176.27 354.24C176.829 354.428 177.438 354.403 177.98 354.17C178.155 354.056 178.294 353.895 178.382 353.706C178.471 353.517 178.505 353.307 178.48 353.1C178.485 352.969 178.457 352.838 178.397 352.721C178.338 352.603 178.249 352.503 178.14 352.43C177.335 352.154 176.458 352.179 175.67 352.5C176.276 352.041 176.701 351.382 176.87 350.64C176.875 350.466 176.82 350.296 176.714 350.157C176.609 350.019 176.459 349.921 176.29 349.88C176.147 349.825 175.993 349.804 175.841 349.818C175.688 349.831 175.541 349.88 175.41 349.96C174.41 350.61 174.1 353.09 174.08 353.23H173.93C173.925 353.258 173.929 353.286 173.941 353.312C173.954 353.337 173.975 353.357 174 353.37ZM174.62 352.85L174.43 352.92C174.59 352.1 174.96 350.75 175.58 350.37C175.646 350.321 175.723 350.287 175.805 350.271C175.886 350.256 175.97 350.259 176.05 350.28H176.14C176.42 350.37 176.47 350.53 176.46 350.65C176.45 351.28 175.49 352.32 174.65 352.85H174.62ZM174.68 353.3C175.82 352.88 177.41 352.47 177.93 352.82C177.984 352.856 178.027 352.905 178.055 352.963C178.083 353.021 178.095 353.086 178.09 353.15C178.105 353.28 178.086 353.411 178.033 353.531C177.98 353.651 177.896 353.754 177.79 353.83C177.33 354.14 176.19 353.94 174.71 353.3H174.68Z" fill="#9CC2DD"/>
<path opacity="0.2" d="M168.33 332.56L177.14 332.7L174.65 344.34L165.91 343.77L168.33 332.56Z" fill="black"/>
<path d="M180.7 342.58L165 338.91C165 338.91 171.26 286.24 179.6 267.62C178.88 267.43 177.94 267.19 176.77 266.91C174.66 266.41 171.86 265.79 168.58 265.07C145.73 260.12 99.4897 251.07 99.4897 251.07L119.2 230.45C119.2 230.45 202.86 238.36 205.83 260.12C207.21 270.54 180.7 342.58 180.7 342.58Z" fill="#9CC2DD"/>
<path d="M173.6 352.11L163.93 350C163.769 349.957 163.599 349.979 163.454 350.062C163.31 350.144 163.204 350.28 163.16 350.44L161 358C160.913 358.4 160.987 358.819 161.206 359.165C161.425 359.511 161.771 359.757 162.17 359.85C165.56 360.53 167.17 360.69 171.47 361.59C174.09 362.15 179.2 363.51 182.89 363.72C186.58 363.93 186.69 360.27 185.15 359.86C181.49 358.86 176.97 355.36 174.96 352.92C174.607 352.509 174.129 352.225 173.6 352.11Z" fill="#3C5B5F"/>
<path d="M82.8999 256.76H149.82C151.146 256.76 152.418 257.287 153.355 258.224C154.293 259.162 154.82 260.434 154.82 261.76V268.45H77.8999V261.76C77.8999 260.434 78.4267 259.162 79.3644 258.224C80.302 257.287 81.5738 256.76 82.8999 256.76Z" fill="#9CC2DD"/>
<path opacity="0.3" d="M82.8999 256.76H149.82C151.146 256.76 152.418 257.287 153.355 258.224C154.293 259.162 154.82 260.434 154.82 261.76V268.45H77.8999V261.76C77.8999 260.434 78.4267 259.162 79.3644 258.224C80.302 257.287 81.5738 256.76 82.8999 256.76Z" fill="black"/>
<path d="M70.0001 211.98H97.5001C105.552 211.98 112.08 205.452 112.08 197.4V186.64C112.08 178.588 105.552 172.06 97.5001 172.06H70.0001C61.9478 172.06 55.4201 178.588 55.4201 186.64V197.4C55.4201 205.452 61.9478 211.98 70.0001 211.98Z" fill="#9CC2DD"/>
<g opacity="0.3">
<path d="M70.0001 211.98H97.5001C105.552 211.98 112.08 205.452 112.08 197.4V186.64C112.08 178.588 105.552 172.06 97.5001 172.06H70.0001C61.9478 172.06 55.4201 178.588 55.4201 186.64V197.4C55.4201 205.452 61.9478 211.98 70.0001 211.98Z" fill="black"/>
</g>
<path d="M80.83 341L109.65 338.17V291.67H121.07V338.15L150 341C151.388 341.137 152.676 341.784 153.613 342.817C154.55 343.851 155.069 345.195 155.07 346.59V350.91H75.77V346.59C75.7705 345.197 76.2885 343.853 77.2235 342.821C78.1584 341.788 79.4437 341.139 80.83 341Z" fill="#3C5B5F"/>
<path opacity="0.2" d="M80.83 341L109.65 338.17V291.67H121.07V338.15L150 341C151.388 341.137 152.676 341.784 153.613 342.817C154.55 343.851 155.069 345.195 155.07 346.59V350.91H75.77V346.59C75.7705 345.197 76.2885 343.853 77.2235 342.821C78.1584 341.788 79.4437 341.139 80.83 341Z" fill="white"/>
<path d="M152.01 363.74C156.136 363.74 159.48 360.396 159.48 356.27C159.48 352.144 156.136 348.8 152.01 348.8C147.884 348.8 144.54 352.144 144.54 356.27C144.54 360.396 147.884 363.74 152.01 363.74Z" fill="#3C5B5F"/>
<path d="M78.8201 363.74C82.9457 363.74 86.2901 360.396 86.2901 356.27C86.2901 352.144 82.9457 348.8 78.8201 348.8C74.6945 348.8 71.3501 352.144 71.3501 356.27C71.3501 360.396 74.6945 363.74 78.8201 363.74Z" fill="#3C5B5F"/>
<path d="M118.9 300.37H111.81C110.714 300.37 109.664 299.935 108.889 299.16C108.115 298.386 107.68 297.335 107.68 296.24V264.31H123.03V296.24C123.03 297.335 122.595 298.386 121.82 299.16C121.046 299.935 119.995 300.37 118.9 300.37Z" fill="#3C5B5F"/>
<path opacity="0.3" d="M118.9 300.37H111.81C110.714 300.37 109.664 299.935 108.889 299.16C108.115 298.386 107.68 297.335 107.68 296.24V264.31H123.03V296.24C123.03 297.335 122.595 298.386 121.82 299.16C121.046 299.935 119.995 300.37 118.9 300.37Z" fill="white"/>
<path d="M88.0597 201C88.0597 201 85.8797 255 100.91 264.3H83.7497C83.7497 264.3 70.4497 245.9 74.2097 201H88.0597Z" fill="#3C5B5F"/>
<path opacity="0.3" d="M88.0597 201C88.0597 201 85.8797 255 100.91 264.3H83.7497C83.7497 264.3 70.4497 245.9 74.2097 201H88.0597Z" fill="white"/>
<path d="M156.02 262.6H76.7097C75.5996 262.6 74.6997 263.5 74.6997 264.61V266.43C74.6997 267.54 75.5996 268.44 76.7097 268.44H156.02C157.13 268.44 158.03 267.54 158.03 266.43V264.61C158.03 263.5 157.13 262.6 156.02 262.6Z" fill="#3C5B5F"/>
<path opacity="0.6" d="M156.02 262.6H76.7097C75.5996 262.6 74.6997 263.5 74.6997 264.61V266.43C74.6997 267.54 75.5996 268.44 76.7097 268.44H156.02C157.13 268.44 158.03 267.54 158.03 266.43V264.61C158.03 263.5 157.13 262.6 156.02 262.6Z" fill="white"/>
<path d="M88.2798 184.19H72.7498C68.1989 184.19 64.5098 187.879 64.5098 192.43V198.5C64.5098 203.051 68.1989 206.74 72.7498 206.74H88.2798C92.8306 206.74 96.5198 203.051 96.5198 198.5V192.43C96.5198 187.879 92.8306 184.19 88.2798 184.19Z" fill="#3C5B5F"/>
<path opacity="0.2" d="M88.2798 184.19H72.7498C68.1989 184.19 64.5098 187.879 64.5098 192.43V198.5C64.5098 203.051 68.1989 206.74 72.7498 206.74H88.2798C92.8306 206.74 96.5198 203.051 96.5198 198.5V192.43C96.5198 187.879 92.8306 184.19 88.2798 184.19Z" fill="white"/>
</svg>
