<svg width="34" height="34" viewBox="0 0 34 34" fill="none" xmlns="http://www.w3.org/2000/svg">
  <path d="M24.6495 1H9.35048C4.73864 1 1 4.73864 1 9.35048V24.6495C1 29.2614 4.73864 33 9.35048 33H24.6495C29.2614 33 33 29.2614 33 24.6495V9.35048C33 4.73864 29.2614 1 24.6495 1Z" stroke="#3C5B5F" stroke-opacity="0.7" stroke-width="1.5" stroke-linecap="round" stroke-linejoin="round"/>
  <path d="M17.002 25.3809C21.6307 25.3809 25.383 21.6286 25.383 17C25.383 12.3713 21.6307 8.61902 17.002 8.61902C12.3734 8.61902 8.62109 12.3713 8.62109 17C8.62109 21.6286 12.3734 25.3809 17.002 25.3809Z" stroke="#3C5B5F" stroke-opacity="0.7" stroke-width="1.5" stroke-linecap="round" stroke-linejoin="round"/>
  <path d="M26.1408 7.09522C26.5616 7.09522 26.9027 6.7541 26.9027 6.33332C26.9027 5.91253 26.5616 5.57141 26.1408 5.57141C25.72 5.57141 25.3789 5.91253 25.3789 6.33332C25.3789 6.7541 25.72 7.09522 26.1408 7.09522Z" stroke="#3C5B5F" stroke-opacity="0.7" stroke-width="1.5" stroke-linecap="round" stroke-linejoin="round"/>
</svg>
