<svg width="416" height="400" viewBox="0 0 416 400" fill="none" xmlns="http://www.w3.org/2000/svg">
<path d="M55.3419 25.6145C56.4006 26.0627 57.304 26.8132 57.9393 27.7723C58.5747 28.7313 58.9138 29.8565 58.9144 31.0073V46.7385C58.9119 48.2882 58.2953 49.7735 57.1999 50.8685C56.1045 51.9634 54.6198 52.5783 53.0719 52.5783C51.5249 52.5783 50.0412 51.9631 48.9473 50.8679C47.8533 49.7727 47.2388 48.2873 47.2388 46.7385V31.0073C47.2398 29.8578 47.578 28.7339 48.2115 27.7752C48.8449 26.8165 49.7457 26.0652 50.8019 25.6145" stroke="#808080" stroke-linecap="round" stroke-linejoin="round"/>
<path d="M53.0534 52.5783C51.5063 52.5783 50.0226 51.9631 48.9287 50.8679C47.8348 49.7727 47.2202 48.2873 47.2202 46.7385V38.8682H58.8958V46.7385C58.8934 48.2882 58.2767 49.7735 57.1813 50.8684C56.0859 51.9634 54.6013 52.5783 53.0534 52.5783Z" stroke="#808080" stroke-linecap="round" stroke-linejoin="round"/>
<path d="M40.5033 23.3792L31.9164 30.2715C31.3168 30.7505 30.6288 31.1064 29.8917 31.3189C29.1546 31.5314 28.3828 31.5962 27.6207 31.5097C26.8585 31.4232 26.1208 31.187 25.4499 30.8147C24.779 30.4424 24.1881 29.9413 23.7109 29.3401C22.7464 28.1254 22.3027 26.5772 22.4771 25.0354C22.6515 23.4935 23.4298 22.0839 24.6412 21.1159L36.875 11.3083C38.0868 10.3433 39.6317 9.8993 41.1703 10.0739C42.7088 10.2486 44.1152 11.0275 45.0805 12.2397C46.0388 13.4477 46.4817 14.9858 46.3127 16.5192C46.1437 18.0525 45.3765 19.4569 44.1781 20.4267L43.1919 21.2183" stroke="#808080" stroke-linecap="round" stroke-linejoin="round"/>
<path d="M23.7109 29.3773C22.7464 28.1626 22.3027 26.6145 22.4771 25.0726C22.6515 23.5307 23.4298 22.1211 24.6412 21.1531L30.7721 16.2354L38.0751 25.3537L31.9443 30.2715C31.3463 30.7569 30.6582 31.119 29.9197 31.3369C29.1812 31.5548 28.407 31.6242 27.6416 31.541C26.8762 31.4579 26.1348 31.2239 25.4602 30.8526C24.7855 30.4812 24.191 29.9798 23.7109 29.3773Z" stroke="#808080" stroke-linecap="round" stroke-linejoin="round"/>
<path d="M348.32 282.651C346.258 283.23 344.428 284.439 343.084 286.108C341.74 287.777 340.949 289.825 340.822 291.965H328.067C327.923 290.834 327.378 289.792 326.532 289.028C325.686 288.265 324.595 287.83 323.456 287.803C322.317 287.776 321.206 288.158 320.325 288.88C319.444 289.603 318.85 290.617 318.652 291.741C318.454 292.864 318.664 294.02 319.245 295.001C319.826 295.983 320.738 296.723 321.817 297.088C322.896 297.453 324.071 297.419 325.127 296.992C326.183 296.564 327.051 295.772 327.574 294.759H341.027C341.419 296.592 342.304 298.283 343.586 299.649C344.867 301.016 346.497 302.006 348.299 302.514C350.102 303.022 352.008 303.028 353.813 302.531C355.619 302.035 357.255 301.054 358.545 299.696L365.141 304.828" stroke="#808080" stroke-linecap="round" stroke-linejoin="round"/>
<path d="M368.722 307.613L376.769 313.881C376.556 314.421 376.446 314.996 376.444 315.576C376.438 316.65 376.793 317.696 377.453 318.543C378.112 319.391 379.037 319.992 380.079 320.25C381.121 320.507 382.219 320.407 383.197 319.964C384.174 319.521 384.975 318.762 385.47 317.808C385.964 316.855 386.124 315.762 385.923 314.707C385.722 313.651 385.173 312.694 384.363 311.989C383.553 311.284 382.53 310.873 381.458 310.82C380.386 310.768 379.328 311.078 378.453 311.701L360.163 297.46C361.05 295.8 361.463 293.927 361.356 292.048C361.249 290.168 360.627 288.354 359.558 286.805L370.722 272.471C371.668 272.835 372.705 272.886 373.682 272.618C374.659 272.349 375.524 271.774 376.151 270.978C376.778 270.181 377.134 269.204 377.167 268.191C377.2 267.177 376.907 266.179 376.333 265.344C375.758 264.508 374.932 263.879 373.974 263.548C373.017 263.216 371.979 263.201 371.011 263.503C370.044 263.805 369.199 264.409 368.6 265.227C368 266.044 367.678 267.033 367.68 268.047C367.678 269.026 367.984 269.981 368.555 270.776L357.661 284.747C355.81 283.185 353.466 282.33 351.046 282.335" stroke="#808080" stroke-linecap="round" stroke-linejoin="round"/>
<path d="M208.631 28.3901V72.1656C208.631 73.0792 208.452 73.9839 208.103 74.8281C207.753 75.6722 207.241 76.4392 206.596 77.0852C205.951 77.7313 205.185 78.2438 204.341 78.5934C203.498 78.9431 202.595 79.1231 201.682 79.1231C200.769 79.1231 199.866 78.9431 199.022 78.5934C198.179 78.2438 197.413 77.7313 196.768 77.0852C196.123 76.4392 195.611 75.6722 195.261 74.8281C194.912 73.9839 194.732 73.0792 194.732 72.1656V15.9653H208.631V25.8101" stroke="#808080" stroke-linecap="round" stroke-linejoin="round"/>
<path d="M201.682 79.1044C199.839 79.1044 198.071 78.3714 196.768 77.0666C195.465 75.7618 194.732 73.9921 194.732 72.1469V36.5583H208.631V72.1469C208.633 73.0609 208.454 73.9662 208.105 74.8109C207.756 75.6555 207.244 76.423 206.599 77.0693C205.953 77.7156 205.187 78.2281 204.343 78.5773C203.499 78.9265 202.595 79.1056 201.682 79.1044Z" stroke="#808080" stroke-linecap="round" stroke-linejoin="round"/>
<path d="M208.632 15.9647H210.623V10.8985H192.751V15.9647H194.733" stroke="#808080" stroke-linecap="round" stroke-linejoin="round"/>
<path d="M173.67 55.9872V15.9373H187.569V72.119C187.569 73.9642 186.837 75.7339 185.534 77.0387C184.23 78.3435 182.463 79.0765 180.619 79.0765C178.776 79.0765 177.009 78.3435 175.705 77.0387C174.402 75.7339 173.67 73.9642 173.67 72.119V59.6755" stroke="#808080" stroke-linecap="round" stroke-linejoin="round"/>
<path d="M173.67 55.9872V36.5583H187.569V72.1469C187.569 73.9921 186.837 75.7618 185.534 77.0666C184.23 78.3714 182.463 79.1044 180.619 79.1044C179.706 79.1056 178.802 78.9265 177.959 78.5773C177.115 78.2281 176.348 77.7156 175.703 77.0693C175.057 76.423 174.545 75.6555 174.196 74.8109C173.848 73.9662 173.669 73.0609 173.67 72.1469V60.7746" stroke="#808080" stroke-linecap="round" stroke-linejoin="round"/>
<path d="M187.57 15.9647H189.551V10.8985H171.68V15.9647H173.671" stroke="#808080" stroke-linecap="round" stroke-linejoin="round"/>
<path d="M58.5421 282.586C55.8633 283.536 53.4643 285.141 51.5633 287.256C49.6622 289.37 48.3195 291.927 47.6573 294.694C46.6759 290.664 44.2568 287.131 40.8554 284.762C37.454 282.392 33.3049 281.349 29.1889 281.829C25.0729 282.308 21.2739 284.278 18.507 287.366C15.7401 290.454 14.1961 294.448 14.1655 298.597C14.1655 302.779 15.9797 306.495 18.5753 309.894H36.8562L42.3172 296.818C42.4092 296.605 42.5633 296.426 42.7593 296.302C42.9552 296.179 43.1839 296.119 43.415 296.128C43.6453 296.138 43.8668 296.22 44.0486 296.362C44.2304 296.504 44.3634 296.699 44.429 296.92L51.0437 318.761L56.086 302.639C56.1553 302.413 56.2946 302.216 56.4837 302.075C56.6728 301.935 56.9017 301.858 57.1373 301.856C57.3719 301.86 57.6002 301.933 57.7926 302.068C57.985 302.202 58.1327 302.391 58.2165 302.611L61.0075 310.677H76.1067C79 307.268 81.1676 303.449 81.1676 298.569C81.1676 294.056 79.3769 289.727 76.1893 286.536C73.0017 283.345 68.6785 281.552 64.1706 281.552" stroke="#808080" stroke-linecap="round" stroke-linejoin="round"/>
<path d="M39.005 330.255C41.9169 333.17 44.8381 336.085 47.8245 338.907C54.6438 332.164 61.5096 325.458 68.2916 318.659C70.1523 316.796 72.199 314.933 74.0876 312.959H60.2257C59.9924 312.96 59.7645 312.887 59.5743 312.752C59.3841 312.617 59.241 312.425 59.1651 312.204L57.2115 306.616L52.0947 322.934C52.0248 323.163 51.883 323.364 51.6904 323.507C51.4977 323.649 51.2644 323.726 51.0248 323.726C50.7844 323.724 50.5508 323.645 50.3583 323.501C50.1658 323.357 50.0244 323.155 49.9549 322.925L43.2007 300.571L38.6514 311.487C38.5661 311.692 38.4229 311.867 38.2394 311.991C38.056 312.115 37.8402 312.183 37.6188 312.186H20.3984C24.1197 316.33 28.7156 319.991 32.1671 323.409C33.6835 324.908 35.1999 326.427 36.7071 327.945" stroke="#808080" stroke-linecap="round" stroke-linejoin="round"/>
<path d="M397.097 57.244L395.962 55.2604L401.581 52.0568L402.707 54.0404" stroke="#808080" stroke-linecap="round" stroke-linejoin="round"/>
<path d="M402.829 67.2851L399.368 61.2217V61.2031L404.969 57.9991H404.978L411.583 69.5856L405.964 72.7896L404.383 70.0234" stroke="#808080" stroke-linecap="round" stroke-linejoin="round"/>
<path d="M406.332 76.9952L414.993 72.0454L413.107 68.7374L404.446 73.6872L406.332 76.9952Z" stroke="#808080" stroke-linecap="round" stroke-linejoin="round"/>
<path d="M401.554 42.4169L391.571 24.8787" stroke="#808080" stroke-linecap="round" stroke-linejoin="round"/>
<path d="M406.838 51.6834L403.256 45.4066" stroke="#808080" stroke-linecap="round" stroke-linejoin="round"/>
<path d="M382.268 40.8521L377.681 32.8141" stroke="#808080" stroke-linecap="round" stroke-linejoin="round"/>
<path d="M392.957 59.6104L383.896 43.7115" stroke="#808080" stroke-linecap="round" stroke-linejoin="round"/>
<path d="M395.227 63.5781L399.367 61.2217V61.2031L404.968 57.9991H404.977L409.098 55.6426" stroke="#808080" stroke-linecap="round" stroke-linejoin="round"/>
<path d="M379.505 31.771L388.938 48.3125L391.255 46.9899L396.874 43.7766L399.172 42.454L389.748 25.9218" stroke="#808080" stroke-linecap="round" stroke-linejoin="round"/>
<path d="M402.707 54.0407L401.582 52.0568L396.874 43.7767" stroke="#808080" stroke-linecap="round" stroke-linejoin="round"/>
<path d="M391.255 46.99L395.962 55.2608L397.097 57.2446" stroke="#808080" stroke-linecap="round" stroke-linejoin="round"/>
<path d="M399.367 61.2031L395.227 63.5782L394.232 64.137L391.98 60.1693L392.957 59.6104L397.097 57.2447L402.707 54.0407L406.838 51.6843L407.833 51.1068L410.094 55.0745L409.098 55.6427L404.977 57.9991H404.968" stroke="#808080" stroke-linecap="round" stroke-linejoin="round"/>
<path d="M381.747 19.9703L375.979 23.2674L378.239 27.2445" stroke="#808080" stroke-linecap="round" stroke-linejoin="round"/>
<path d="M386.501 22.5219L384.231 18.5453" stroke="#808080" stroke-linecap="round" stroke-linejoin="round"/>
<path d="M379.505 31.7711L389.748 25.9219L391.571 24.8787L392.567 24.3199L390.297 20.3522L386.501 22.5223L378.24 27.2445L374.435 29.4146L376.695 33.3824L377.681 32.8235L379.505 31.7711Z" stroke="#808080" stroke-linecap="round" stroke-linejoin="round"/>
<path d="M379.56 20.3428L368.62 1.15613" stroke="#808080" stroke-linecap="round" stroke-linejoin="round"/>
<path d="M319.491 234.014C365.805 234.014 403.351 196.426 403.351 150.058C403.351 103.691 365.805 66.1023 319.491 66.1023C273.177 66.1023 235.631 103.691 235.631 150.058C235.631 196.426 273.177 234.014 319.491 234.014Z" fill="#9CC2DD"/>
<path d="M273.682 240.236L273.971 173.101C273.971 173.101 262.127 174.74 260.146 175.029C258.164 175.318 257.253 173.017 251.578 167.345C245.903 161.673 246.768 146.072 254.136 140.968C261.504 135.864 277.645 117.133 278.78 115.997C279.915 114.861 287.851 115.997 290.968 116.565C294.084 117.133 299.75 120.291 301.201 120.542C302.652 120.794 313.109 122.526 313.109 122.526L351.643 129.614C354.76 130.182 368.641 138.406 372.046 138.928C375.451 139.45 379.414 144.889 379.981 147.441C380.549 149.993 385.926 195.38 388.196 198.5C390.466 201.62 398.113 241.037 398.113 241.037" fill="white"/>
<path d="M273.682 240.236L273.971 173.101C273.971 173.101 262.127 174.74 260.146 175.029C258.164 175.318 257.253 173.017 251.578 167.345C245.903 161.673 246.768 146.072 254.136 140.968C261.504 135.864 277.645 117.133 278.78 115.997C279.915 114.861 287.851 115.997 290.968 116.565C294.084 117.133 299.75 120.291 301.201 120.542C302.652 120.794 313.109 122.526 313.109 122.526L351.643 129.614C354.76 130.182 368.641 138.406 372.046 138.928C375.451 139.45 379.414 144.889 379.981 147.441C380.549 149.993 385.926 195.38 388.196 198.5C390.466 201.62 398.113 241.037 398.113 241.037" stroke="#3C5B5F" stroke-linecap="round" stroke-linejoin="round"/>
<path d="M338.535 144.731H342.043L352.239 148.875L340.768 138.658L338.535 144.731Z" fill="#3C5B5F" stroke="#3C5B5F" stroke-linecap="round" stroke-linejoin="round"/>
<path d="M316.533 145.69L330.246 143.771L325.464 136.749L316.533 145.69Z" fill="#3C5B5F" stroke="#3C5B5F" stroke-linecap="round" stroke-linejoin="round"/>
<path d="M282.036 129.223C282.036 129.223 283.571 149.984 281.264 158.832C278.957 167.68 277.041 170.009 277.041 170.009" stroke="#3C5B5F" stroke-linecap="round" stroke-linejoin="round"/>
<path d="M280.483 177.544C280.139 178.736 279.776 179.928 279.385 181.129L280.483 177.544Z" fill="white"/>
<path d="M280.483 177.544C280.139 178.736 279.776 179.928 279.385 181.129" stroke="#3C5B5F" stroke-linecap="round" stroke-linejoin="round"/>
<path d="M285.497 143.455C285.272 153.77 283.902 164.029 281.413 174.041L285.497 143.455Z" fill="white"/>
<path d="M285.497 143.455C285.272 153.77 283.902 164.029 281.413 174.041" stroke="#3C5B5F" stroke-linecap="round" stroke-linejoin="round"/>
<path d="M375.552 236.417C375.552 236.417 370.026 211.837 370.585 209.285C371.143 206.733 372.855 160.778 372.855 160.778" stroke="#3C5B5F" stroke-linecap="round" stroke-linejoin="round"/>
<path d="M304.671 135.258C305.18 136.668 305.726 138.176 306.309 139.784" stroke="#3C5B5F" stroke-linecap="round" stroke-linejoin="round"/>
<path d="M299.471 121.623C299.471 121.623 301.006 125.348 303.694 132.669" stroke="#3C5B5F" stroke-linecap="round" stroke-linejoin="round"/>
<path d="M311.006 162.259C311.304 163.833 311.518 165.422 311.649 167.018" stroke="#3C5B5F" stroke-linecap="round" stroke-linejoin="round"/>
<path d="M301.164 134.988C305.011 142.551 308.057 150.495 310.253 158.692" stroke="#3C5B5F" stroke-linecap="round" stroke-linejoin="round"/>
<path d="M334.712 151.083C334.712 151.083 338.005 181.763 338.005 186.019C338.005 190.276 340.452 237.823 340.452 237.823" stroke="#3C5B5F" stroke-linecap="round" stroke-linejoin="round"/>
<path d="M368.892 194.383L349.625 192.53V162.408L368.892 164.253V194.383Z" fill="white" stroke="#3C5B5F" stroke-linecap="round" stroke-linejoin="round"/>
<path d="M361.235 165.175L356.425 164.886V155.525L361.235 155.814V165.175Z" fill="#9CC2DD" stroke="#3C5B5F" stroke-linecap="round" stroke-linejoin="round"/>
<path d="M319.361 115.308C319.361 115.308 317.203 115.066 316.729 115.792C316.254 116.519 310.728 122.75 310.728 122.75C311.269 125.921 311.509 129.136 311.444 132.352C311.444 138.593 314.328 148.186 314.328 148.186L326.069 140.521L333.744 138.36C335.249 138.098 336.788 138.098 338.294 138.36C338.294 138.36 355.086 152.526 356.044 152.042C357.002 151.558 353.17 135.715 350.527 128.757C347.885 121.8 340.452 117.953 340.452 117.953C340.452 117.953 323.436 114.833 319.361 115.308Z" fill="white" stroke="#3C5B5F" stroke-linecap="round" stroke-linejoin="round"/>
<path d="M316.244 86.0155C311.949 86.7371 307.859 88.3762 304.252 90.8215C298.977 94.6588 303.536 108.108 310.011 111.47C316.486 114.833 321.035 113.864 323.677 107.866C326.32 101.868 325.119 89.62 323.436 87.7013C321.752 85.7826 316.244 86.0155 316.244 86.0155Z" fill="#3C5B5F"/>
<path d="M322.003 91.5387L319.603 117.711C321.436 123.777 323.68 129.712 326.32 135.473C328.674 140.899 331.474 146.121 334.693 151.083C334.693 151.083 340.442 140.521 341.884 136.916C343.067 133.544 344.033 130.101 344.778 126.606L348.397 110.986C348.397 110.986 341.884 109.31 334.004 103.302C329.477 99.959 325.438 95.9997 322.003 91.5387Z" fill="white" stroke="#3C5B5F" stroke-linecap="round" stroke-linejoin="round"/>
<path d="M348.396 110.986C348.396 110.986 341.884 109.31 334.004 103.302C331.953 101.746 329.99 100.076 328.125 98.3005V109.021C328.125 109.021 334.162 119.611 340.219 122.638C341.841 123.424 343.589 123.916 345.382 124.091L348.396 110.986Z" fill="#3C5B5F"/>
<path d="M364.929 87.4871C364.929 87.4871 366.845 85.5684 367.087 89.6479C367.329 93.7274 364.687 97.0991 363.003 98.5334C361.319 99.9678 360.612 100.452 360.612 100.452L364.929 87.4871Z" fill="white" stroke="#3C5B5F" stroke-linecap="round" stroke-linejoin="round"/>
<path d="M348.397 49.747C342.114 48.8497 335.73 50.4475 330.609 54.1991C322.087 60.5046 321.306 75.7236 321.306 75.7236C321.306 75.7236 318.347 73.125 316.487 76.4594C314.626 79.7938 314.626 88.3347 316.124 89.0798C317.622 89.8249 319.454 90.5607 319.454 90.5607C319.454 90.5607 321.678 101.691 323.901 105.035C326.125 108.378 334.284 116.91 339.103 116.91C343.922 116.91 352.071 114.311 355.774 109.459C359.08 104.917 361.704 99.9152 363.561 94.6123C365.04 90.5327 367.636 70.871 367.636 70.871C367.636 70.871 368.743 61.9669 361.71 55.6614C354.676 49.3559 348.397 49.747 348.397 49.747Z" fill="white" stroke="#3C5B5F" stroke-linecap="round" stroke-linejoin="round"/>
<path d="M323.92 105.035C326.144 108.369 334.303 116.91 339.122 116.91C343.941 116.91 352.09 114.311 355.793 109.459C359.099 104.917 361.723 99.9152 363.58 94.6122C364.093 92.9198 364.497 91.1963 364.789 89.4523C363.859 88.5209 357.263 82.2433 348.862 80.4644C339.745 78.5457 323.194 77.1113 323.194 77.1113L321.334 75.6956L319.641 91.2685C320.171 93.8392 322.041 102.212 323.92 105.035Z" fill="#9CC2DD" stroke="#3C5B5F" stroke-linecap="round" stroke-linejoin="round"/>
<path d="M352.211 81.6938C352.211 81.6938 353.653 74.4942 354.369 72.5755C355.086 70.6568 359.886 68.971 363.486 74.252" stroke="#3C5B5F" stroke-linecap="round" stroke-linejoin="round"/>
<path d="M344.061 67.7691C344.061 67.7691 339.27 61.7717 331.595 67.052" stroke="#3C5B5F" stroke-linecap="round" stroke-linejoin="round"/>
<path d="M336.823 73.0129C336.563 73.9442 335.828 74.6054 335.195 74.4285C334.563 74.2515 334.265 73.3389 334.516 72.3797C334.767 71.4204 335.512 70.7779 336.144 70.9548C336.777 71.1317 337.084 72.0537 336.823 73.0129Z" fill="#3C5B5F"/>
<path d="M357.923 78.117C357.663 79.0483 356.928 79.7095 356.295 79.5325C355.662 79.3556 355.365 78.4429 355.616 77.4837C355.867 76.5245 356.611 75.8912 357.244 76.0682C357.877 76.2451 358.193 77.1578 357.923 78.117Z" fill="#3C5B5F"/>
<path d="M321.324 75.7236C321.709 75.8457 322.124 75.8391 322.505 75.7047C322.886 75.5702 323.212 75.3153 323.436 74.9785C324.162 73.777 322.72 69.4553 327.995 64.1743C333.27 58.8933 339.27 58.1668 342.145 55.7918C345.02 53.4167 345.503 52.1966 343.587 49.7936C341.67 47.3906 338.786 43.2738 328.236 49.3186C317.687 55.3633 313.844 59.1541 315.528 64.4351C316.435 67.4276 317.81 70.257 319.603 72.8176L321.324 75.7236Z" fill="#3C5B5F"/>
<path d="M341.186 47.847C341.186 47.847 343.344 52.8858 347.177 54.8045C351.01 56.7232 356.053 57.4497 362.063 61.0542C368.072 64.6587 366.863 75.4535 366.863 75.4535C366.863 75.4535 375.013 79.533 378.371 73.5348C381.73 67.5367 384.883 57.4497 371.654 50.0078C358.425 42.566 348.619 33.6805 341.186 47.847Z" fill="#3C5B5F"/>
<path d="M303.741 33.9692V68.1606C303.739 69.1002 303.364 70.0004 302.7 70.6639C302.035 71.3273 301.135 71.6999 300.197 71.6999C299.26 71.6975 298.362 71.3238 297.7 70.6606C297.037 69.9974 296.664 69.0986 296.662 68.1606V33.9692H303.741Z" fill="white" stroke="#3C5B5F" stroke-linecap="round" stroke-linejoin="round"/>
<path d="M303.741 52.0941V68.1327C303.739 69.0722 303.364 69.9724 302.7 70.6359C302.035 71.2994 301.135 71.6719 300.197 71.6719C299.26 71.6695 298.362 71.2958 297.7 70.6326C297.037 69.9694 296.664 69.0706 296.662 68.1327V52.0941H303.741Z" fill="#9CC2DD" stroke="#3C5B5F" stroke-linecap="round" stroke-linejoin="round"/>
<path d="M304.848 32.2648H295.498V35.1052H304.848V32.2648Z" fill="white" stroke="#3C5B5F" stroke-linecap="round" stroke-linejoin="round"/>
<path d="M281.897 102.054C281.897 102.054 281.897 101.206 277.934 98.3284C273.971 95.4504 258.946 95.2083 255.829 98.8966C252.713 102.585 263.765 112.793 266.882 114.218C269.998 115.643 275.664 113.082 277.366 111.098C279.069 109.114 281.897 102.054 281.897 102.054Z" fill="white" stroke="#3C5B5F" stroke-linecap="round" stroke-linejoin="round"/>
<path d="M261.495 80.4923L258.704 101.765C258.704 101.765 264.091 109.142 268.938 109.431C273.785 109.719 278.008 105.174 278.008 105.174L279.143 83.9012C279.143 83.9012 268.017 83.6125 261.495 80.4923Z" fill="white" stroke="#3C5B5F" stroke-linecap="round" stroke-linejoin="round"/>
<path d="M264.611 66.3071C264.611 66.3071 265.179 52.4107 265.746 46.7478C266.314 41.085 268.016 37.0986 268.863 37.0986C269.709 37.0986 280.203 29.7406 280.203 29.7406C280.203 29.7406 297.2 30.8769 298.903 30.8769C300.605 30.8769 304.001 32.0132 303.722 33.6711L303.434 35.3662C303.58 36.2918 303.58 37.2348 303.434 38.1604C303.201 38.7331 302.807 39.2252 302.299 39.5761C302.446 40.0282 302.41 40.5204 302.197 40.9459C301.985 41.3713 301.614 41.6957 301.164 41.8487C299.47 42.6963 292.381 46.3846 292.381 46.3846C290.648 49.9774 289.135 53.6725 287.851 57.4496C286.716 61.4266 282.185 65.6738 282.185 65.6738C282.185 65.6738 282.464 69.6508 282.464 72.1935C282.282 74.4196 281.806 76.6118 281.05 78.7133C281.192 80.225 281.192 81.7467 281.05 83.2585C280.771 84.106 279.915 85.2423 279.068 85.2423C278.222 85.2423 271.979 86.3786 268.835 85.8105C265.69 85.2423 261.188 81.554 261.188 81.554L262.602 75.8818V71.3366C262.629 69.716 264.611 66.3071 264.611 66.3071Z" fill="#9CC2DD" stroke="#3C5B5F" stroke-linecap="round" stroke-linejoin="round"/>
<path d="M274.25 65.739C274.25 65.739 280.204 63.4757 280.762 59.7874C281.32 56.0991 284.158 46.7479 284.158 46.7479L292.372 46.4592" stroke="#3C5B5F" stroke-linecap="round" stroke-linejoin="round"/>
<path d="M277.366 42.7798C277.366 42.7798 284.734 40.2281 286.716 40.2281C288.697 40.2281 302.298 39.66 302.298 39.66" stroke="#3C5B5F" stroke-linecap="round" stroke-linejoin="round"/>
<path d="M277.087 36.2602C280.516 35.4018 284.029 34.927 287.563 34.8447C292.67 34.8447 303.434 35.4034 303.434 35.4034" stroke="#3C5B5F" stroke-linecap="round" stroke-linejoin="round"/>
<path d="M264.333 77.3722C264.333 77.3722 268.054 81.3394 275.952 80.492" stroke="#3C5B5F" stroke-linecap="round" stroke-linejoin="round"/>
<path d="M280.483 76.2358C280.483 76.2358 279.068 77.0926 272.547 77.0926" stroke="#3C5B5F" stroke-linecap="round" stroke-linejoin="round"/>
<path d="M258.666 101.765L255.829 98.9712C255.829 98.9712 240.246 157.975 239.967 162.231C239.688 166.488 246.2 173.576 249.884 175.271C253.568 176.966 265.746 175.55 269.719 173.566C273.691 171.583 276.231 163.638 278.501 156.261C280.771 148.885 278.212 135.836 278.78 131.868C279.347 127.9 281.896 102.063 281.896 102.063L277.933 105.184C277.933 105.184 266.881 104.886 258.666 101.765Z" fill="white" stroke="#3C5B5F" stroke-linecap="round" stroke-linejoin="round"/>
<path d="M260.434 240.636H408.542" stroke="#3C5B5F" stroke-linecap="round" stroke-linejoin="round"/>
<path d="M101.709 232.43C148.024 232.43 185.569 194.842 185.569 148.475C185.569 102.107 148.024 64.5187 101.709 64.5187C55.3948 64.5187 17.8496 102.107 17.8496 148.475C17.8496 194.842 55.3948 232.43 101.709 232.43Z" fill="#9CC2DD"/>
<path d="M43.7683 236.752L45.6289 194.197C45.6289 194.197 38.484 216.252 34.7627 221.84C31.0414 227.429 28.2504 229.608 22.9755 228.677C17.7005 227.746 7.77393 211.586 7.77393 203.529C7.77393 195.473 16.1469 174.954 18.0075 170.297C19.8682 165.64 29.8041 126.186 31.0321 124.007C32.2601 121.827 72.6084 109.654 72.6084 109.654L75.3994 103.749C75.3994 103.749 116.669 99.0921 119.46 99.4088C122.251 99.7255 121.944 104.373 121.944 104.373C121.944 104.373 126.977 108.732 127.6 109.663C128.223 110.595 151.109 121.837 158.245 124.324C165.381 126.81 166.004 129.288 166.311 130.536C166.618 131.784 185.243 173.715 192.072 180.831C198.9 187.947 181.522 201.639 175.623 204.116C169.725 206.594 161.669 205.355 158.878 201.015C156.087 196.674 149.305 191.086 149.305 191.086L150.449 237.441" fill="white"/>
<path d="M43.7683 236.752L45.6289 194.197C45.6289 194.197 38.484 216.252 34.7627 221.841C31.0414 227.429 28.2504 229.608 22.9755 228.677C17.7005 227.746 7.77393 211.586 7.77393 203.529C7.77393 195.473 16.1469 174.954 18.0075 170.297C19.8682 165.64 29.8041 126.186 31.0321 124.007C32.2601 121.827 72.6084 109.654 72.6084 109.654L75.3994 103.749C75.3994 103.749 116.669 99.0921 119.46 99.4088C122.251 99.7255 121.944 104.373 121.944 104.373C121.944 104.373 126.977 108.732 127.6 109.663C128.223 110.595 151.109 121.837 158.245 124.324C165.381 126.81 166.004 129.288 166.311 130.536C166.618 131.784 185.243 173.715 192.072 180.831C198.9 187.947 181.522 201.639 175.623 204.116C169.725 206.594 161.669 205.355 158.878 201.015C156.087 196.674 149.305 191.086 149.305 191.086L150.449 237.441" stroke="#3C5B5F" stroke-linecap="round" stroke-linejoin="round"/>
<path d="M45.6385 194.197L45.1636 163.144" stroke="#3C5B5F" stroke-linecap="round" stroke-linejoin="round"/>
<path d="M42.9868 178.782L43.7039 183.913" stroke="#3C5B5F" stroke-linecap="round" stroke-linejoin="round"/>
<path d="M40.0659 158.04L42.308 173.939" stroke="#3C5B5F" stroke-linecap="round" stroke-linejoin="round"/>
<path d="M145.919 171.601C145.68 173.01 145.555 174.437 145.546 175.866" stroke="#3C5B5F" stroke-linecap="round" stroke-linejoin="round"/>
<path d="M154.235 149.154C151.112 155.009 148.617 161.178 146.792 167.559" stroke="#3C5B5F" stroke-linecap="round" stroke-linejoin="round"/>
<path d="M144.923 159.093C144.923 159.093 142.439 167.475 142.755 174.311" stroke="#3C5B5F" stroke-linecap="round" stroke-linejoin="round"/>
<path d="M110.082 120.198C109.319 120.943 108.519 121.678 107.691 122.377" stroke="#3C5B5F" stroke-linecap="round" stroke-linejoin="round"/>
<path d="M121.339 105.91C118.821 110.068 115.908 113.973 112.641 117.571" stroke="#3C5B5F" stroke-linecap="round" stroke-linejoin="round"/>
<path d="M94.0994 229.767L94.0342 237.059" stroke="#3C5B5F" stroke-linecap="round" stroke-linejoin="round"/>
<path d="M94.8254 145.299L94.1362 225.296" stroke="#3C5B5F" stroke-linecap="round" stroke-linejoin="round"/>
<path d="M93.7266 118.642L94.9639 124.547L94.8616 140.828" stroke="#3C5B5F" stroke-linecap="round" stroke-linejoin="round"/>
<path d="M31.0508 201.34L24.5385 190.164L24.2222 202.905C24.2222 202.905 28.8831 204.135 31.0508 201.34Z" fill="white" stroke="#3C5B5F" stroke-linecap="round" stroke-linejoin="round"/>
<path d="M43.4609 148.717L38.7907 153.271L5.60596 117.878L10.2762 113.324L43.4609 148.717Z" fill="#3C5B5F" stroke="#3C5B5F" stroke-linecap="round" stroke-linejoin="round"/>
<path d="M9.78077 111.019L3.33154 117.31L5.18191 119.211L11.6311 112.919L9.78077 111.019Z" fill="white" stroke="#3C5B5F" stroke-linecap="round" stroke-linejoin="round"/>
<path d="M42.8795 149.282L39.395 152.681L42.2128 155.576L45.6972 152.177L42.8795 149.282Z" fill="white" stroke="#3C5B5F" stroke-linecap="round" stroke-linejoin="round"/>
<path d="M41.3866 147.869C41.2336 148.023 41.0517 148.145 40.8513 148.229C40.6509 148.312 40.4361 148.355 40.2191 148.355C40.0021 148.355 39.7872 148.312 39.5868 148.229C39.3865 148.145 39.2045 148.023 39.0515 147.869L13.7746 120.617C13.6207 120.463 13.4986 120.281 13.4153 120.081C13.332 119.88 13.2891 119.665 13.2891 119.448C13.2891 119.23 13.332 119.015 13.4153 118.815C13.4986 118.614 13.6207 118.432 13.7746 118.279C13.9276 118.125 14.1095 118.003 14.3099 117.919C14.5102 117.836 14.7251 117.793 14.9421 117.793C15.1591 117.793 15.374 117.836 15.5744 117.919C15.7747 118.003 15.9567 118.125 16.1097 118.279L41.3866 145.522C41.5408 145.676 41.6631 145.859 41.7465 146.06C41.83 146.262 41.8729 146.478 41.8729 146.696C41.8729 146.914 41.83 147.13 41.7465 147.331C41.6631 147.532 41.5408 147.715 41.3866 147.869Z" fill="white" stroke="#3C5B5F" stroke-linecap="round" stroke-linejoin="round"/>
<path d="M43.3071 154.493L44.5802 153.251L62.4747 171.648C62.5488 171.724 62.6072 171.815 62.6466 171.913C62.686 172.012 62.7055 172.118 62.7041 172.224C62.7027 172.331 62.6804 172.436 62.6384 172.534C62.5964 172.631 62.5356 172.72 62.4595 172.794L62.3528 172.898C62.1973 173.05 61.9879 173.133 61.7708 173.13C61.5537 173.127 61.3466 173.038 61.1951 172.883L43.3071 154.493Z" fill="white" stroke="#3C5B5F" stroke-linecap="round" stroke-linejoin="round"/>
<path d="M12.4348 160.955L8.09021 147.599L10.5742 132.995C10.5742 132.995 17.4028 125.236 18.3331 124.92C19.2634 124.603 27.6364 124.612 27.6364 124.612C27.6364 124.612 29.19 123.988 29.19 125.544C29.2187 125.953 29.1492 126.364 28.9874 126.742C28.8256 127.119 28.5761 127.452 28.2597 127.714C28.2597 127.714 31.674 128.03 32.6043 128.03C33.5346 128.03 34.465 128.655 34.465 130.201C34.465 131.747 31.981 132.38 31.0507 132.687C30.1203 132.995 26.706 134.243 26.706 134.243L21.4311 140.148H27.3294C28.4853 140.236 29.6293 140.442 30.7437 140.763C31.3577 141.694 31.674 145.112 31.674 145.112C32.7097 146.79 33.2455 148.729 33.2183 150.701C33.2183 154.109 34.1487 155.982 33.2183 156.289C32.288 156.596 30.1203 158.152 30.1203 156.596C30.1067 155.556 30.004 154.518 29.8133 153.495L26.399 154.109L25.1524 156.596C25.1524 156.596 27.9434 162.809 27.9434 165.296C27.9434 167.782 26.706 176.165 26.706 176.165L25.4687 199.776C22.6624 199.598 19.9199 198.86 17.4028 197.606C12.7511 195.426 7.7832 187.36 7.7832 187.36L13.3652 168.099L12.4348 160.955Z" fill="#9CC2DD" stroke="#3C5B5F" stroke-linecap="round" stroke-linejoin="round"/>
<path d="M17.0865 183.318C14.4723 182.89 12.0627 180.878 10.2393 178.875L7.7832 187.36C7.7832 187.36 12.7418 195.435 17.3935 197.606C19.9141 198.86 22.6595 199.598 25.4687 199.776L26.399 181.893C23.9058 182.852 20.2961 183.858 17.0865 183.318Z" fill="#D1D1D1" stroke="#3C5B5F" stroke-linecap="round" stroke-linejoin="round"/>
<path d="M21.124 150.709C21.124 150.709 21.738 149.154 22.6684 148.847C23.5987 148.54 31.9716 146.37 31.9716 146.37" stroke="#3C5B5F" stroke-linecap="round" stroke-linejoin="round"/>
<path d="M17.4033 145.112L18.3336 142.011L21.4316 140.139" stroke="#3C5B5F" stroke-linecap="round" stroke-linejoin="round"/>
<path d="M13.6724 139.524C13.6724 139.524 17.71 132.38 18.9473 131.141C20.1846 129.903 27.3203 128.347 28.2506 127.723" stroke="#3C5B5F" stroke-linecap="round" stroke-linejoin="round"/>
<path d="M25.4691 199.785L31.051 201.34C31.051 201.34 32.6047 223.396 32.6047 226.19C32.6047 228.984 26.0924 232.402 18.9475 233.026C11.8026 233.651 0.638672 228.053 0.638672 223.089C0.638672 218.124 8.03477 184.277 8.03477 184.277C8.03477 184.277 13.3655 198.23 25.4691 199.785Z" fill="white" stroke="#3C5B5F" stroke-linecap="round" stroke-linejoin="round"/>
<path d="M110.175 185.805C107.519 185.743 104.893 185.22 102.416 184.259C99.5244 183.081 96.5051 182.247 93.4197 181.772C91.5591 181.455 88.1448 183.011 85.6608 181.455C83.1769 179.9 81.0092 178.661 85.0375 177.106C89.0658 175.55 95.5874 177.422 98.0621 177.73C100.537 178.037 105.198 177.106 105.198 177.106L110.175 185.805Z" fill="#9CC2DD" stroke="#3C5B5F" stroke-linecap="round" stroke-linejoin="round"/>
<path d="M69.2128 188.916C82.063 188.916 92.4802 185.092 92.4802 180.375C92.4802 175.658 82.063 171.834 69.2128 171.834C56.3625 171.834 45.9453 175.658 45.9453 180.375C45.9453 185.092 56.3625 188.916 69.2128 188.916Z" fill="#3C5B5F" stroke="#3C5B5F" stroke-linecap="round" stroke-linejoin="round"/>
<path d="M69.2129 187.677C81.2102 187.677 90.936 184.408 90.936 180.375C90.936 176.342 81.2102 173.073 69.2129 173.073C57.2155 173.073 47.4897 176.342 47.4897 180.375C47.4897 184.408 57.2155 187.677 69.2129 187.677Z" fill="white" stroke="#3C5B5F" stroke-linecap="round" stroke-linejoin="round"/>
<path d="M138.41 208.177C138.41 208.177 137.61 194.113 137.61 191.924C137.61 189.735 147.797 193.386 147.797 193.386C147.797 193.386 142.485 206.929 138.41 208.177Z" fill="white" stroke="#3C5B5F" stroke-linecap="round" stroke-linejoin="round"/>
<path d="M143.723 179.909C143.723 179.909 132.559 176.798 129.452 175.56C126.344 174.321 111.143 167.484 108.352 165.612C105.561 163.74 97.4857 163.135 97.4857 163.135C97.4857 163.135 90.3501 160.024 89.4198 160.024C88.4894 160.024 75.1486 165.305 72.3576 166.544C69.5666 167.782 69.8736 170.586 71.1109 171.517C72.3483 172.449 84.4611 166.86 84.4611 166.86L81.0468 176.174C81.0468 176.174 76.7022 179.592 78.2558 181.763C79.8095 183.933 84.4704 180.207 86.0148 179.276C87.5591 178.344 96.5647 173.995 96.5647 173.995C96.5647 173.995 88.4987 183.001 86.9451 185.488C85.3914 187.975 89.1221 187.975 90.3594 187.351C91.5967 186.727 100.286 180.207 100.286 180.207C100.286 180.207 113.013 188.906 116.427 188.906C119.841 188.906 125.423 186.727 125.423 186.727L144.653 197.615C144.653 197.615 147.751 192.334 148.068 188.599C148.384 184.864 148.375 180.216 148.375 180.216L143.723 179.909Z" fill="#9CC2DD" stroke="#3C5B5F" stroke-linecap="round" stroke-linejoin="round"/>
<path d="M81.0093 176.174L88.1449 169.962L94.0338 167.168" stroke="#3C5B5F" stroke-linecap="round" stroke-linejoin="round"/>
<path d="M84.4233 166.86L85.9677 163.442" stroke="#3C5B5F" stroke-linecap="round" stroke-linejoin="round"/>
<path d="M90.936 169.03L92.1734 165.305" stroke="#3C5B5F" stroke-linecap="round" stroke-linejoin="round"/>
<path d="M100.239 180.216L108.622 178.037" stroke="#3C5B5F" stroke-linecap="round" stroke-linejoin="round"/>
<path d="M96.5176 174.004L100.862 171.517" stroke="#3C5B5F" stroke-linecap="round" stroke-linejoin="round"/>
<path d="M140.401 178.978C141.513 182.174 141.697 185.62 140.932 188.916C140.471 190.801 139.751 192.613 138.792 194.299L144.653 197.615C144.653 197.615 147.751 192.334 148.067 188.599C148.384 184.864 148.374 180.217 148.374 180.217L143.723 179.909L140.401 178.978Z" fill="#D1D1D1" stroke="#3C5B5F" stroke-linecap="round" stroke-linejoin="round"/>
<path d="M179.075 168.723C179.075 168.723 170.702 170.893 167.279 172.765C163.855 174.637 150.216 176.491 148.979 177.106C147.742 177.72 140.42 178.968 140.42 178.968C140.42 178.968 144.011 186.42 142.151 192.325C140.29 198.23 138.429 208.158 138.429 208.158C138.429 208.158 154.245 212.508 167.902 209.09C181.559 205.672 190.555 195.734 193.021 194.485C195.486 193.237 196.742 187.966 196.742 185.479C196.742 182.992 188.676 173.986 186.815 173.371" fill="white"/>
<path d="M179.075 168.723C179.075 168.723 170.702 170.893 167.279 172.765C163.855 174.637 150.216 176.491 148.979 177.106C147.742 177.72 140.42 178.968 140.42 178.968C140.42 178.968 144.011 186.42 142.151 192.325C140.29 198.23 138.429 208.158 138.429 208.158C138.429 208.158 154.245 212.508 167.902 209.09C181.559 205.672 190.555 195.734 193.021 194.485C195.486 193.237 196.742 187.966 196.742 185.479C196.742 182.992 188.676 173.986 186.815 173.371" stroke="#3C5B5F" stroke-linecap="round" stroke-linejoin="round"/>
<path d="M90.0057 37.8809C90.0057 37.8809 81.0094 40.6751 75.7345 45.6488C70.4595 50.6224 70.4595 69.865 70.4595 72.3611C70.4595 74.8573 69.5292 89.7596 70.1432 94.1092C70.7572 98.4588 83.1678 116.779 91.5407 117.096C99.9137 117.413 112.938 107.465 115.115 104.354C117.739 100.633 120.024 96.6836 121.944 92.5537C123.181 89.4429 124.735 78.2662 125.051 74.8573C125.219 71.96 125.219 69.0553 125.051 66.158C125.051 66.158 126.912 57.1515 123.497 51.2558C120.083 45.36 110.473 38.2163 102.705 36.9682C94.9364 35.7201 90.0057 37.8809 90.0057 37.8809Z" fill="white" stroke="#3C5B5F" stroke-linecap="round" stroke-linejoin="round"/>
<path d="M70.4595 67.7041C70.4595 67.7041 76.9718 62.1157 91.5593 61.7991C100.307 61.6461 108.843 64.4958 115.748 69.8742C115.748 69.8742 117.925 68.3188 117.301 76.7107C116.678 85.1025 115.748 86.956 108.929 89.4428C102.109 91.9297 86.8984 93.7924 80.3861 91.9296C73.8738 90.0669 70.4316 82.9324 70.1525 80.7529C69.8734 78.5735 70.4595 67.7041 70.4595 67.7041Z" fill="#D1D1D1" stroke="#3C5B5F" stroke-linecap="round" stroke-linejoin="round"/>
<path d="M70.4594 64.91C78.7327 68.2047 87.6154 69.6847 96.5086 69.2503C111.71 68.6356 123.842 64.1928 125.395 63.8855C126.949 63.5781 125.712 66.3164 125.712 66.3164L116.985 70.8057C116.985 70.8057 116.985 79.1882 115.124 81.9824C113.264 84.7766 109.235 86.6394 104.891 86.6394C100.546 86.6394 96.5179 84.1619 94.0246 81.9824C92.992 81.051 90.6196 81.3584 89.68 82.6065C88.7404 83.8545 87.5123 85.708 83.4747 85.4006C79.4371 85.0933 74.7948 84.1526 72.9248 81.6751C71.0549 79.1976 70.4501 72.3611 70.4501 72.3611C70.4501 72.3611 70.1431 66.1487 70.4594 64.91Z" fill="white" stroke="#3C5B5F" stroke-linecap="round" stroke-linejoin="round"/>
<path d="M82.4882 112.243C83.4315 114.84 85.0775 117.123 87.2422 118.838C90.8983 121.762 93.0939 122.861 97.1129 121.762C101.132 120.663 113.933 114.078 109.542 114.805C106.943 115.246 104.379 115.868 101.867 116.668C101.867 116.668 109.914 112.271 115.031 107.512C116.483 106.213 117.505 104.502 117.962 102.607C118.419 100.712 118.289 98.7226 117.589 96.9034C117.589 96.9034 82.1254 107.857 79.5298 106.385C76.9341 104.913 82.4882 112.243 82.4882 112.243Z" fill="#3C5B5F"/>
<path d="M125.116 74.8479C125.209 73.7861 125.247 72.5381 125.247 71.3273C124.428 72.3239 120.828 76.6921 118.911 78.8809C116.734 81.3677 111.766 85.4006 92.2201 84.4692C72.674 83.5378 70.19 80.7437 70.19 80.7437C69.9946 85.8011 69.8551 91.641 70.19 94.0998C70.8133 98.4495 83.2146 116.77 91.5875 117.087C99.9604 117.403 112.985 107.456 115.162 104.345C117.786 100.624 120.071 96.6742 121.991 92.5444L119.507 96.27L120.437 81.051L125.116 74.8479Z" fill="#9CC2DD" stroke="#3C5B5F" stroke-linecap="round" stroke-linejoin="round"/>
<path d="M89.0754 75.4623C89.0754 75.4623 85.3541 70.8059 77.5952 72.0538" stroke="#3C5B5F" stroke-linecap="round" stroke-linejoin="round"/>
<path d="M98.6948 75.4624C98.6948 75.4624 103.653 72.6686 112.036 73.9165" stroke="#3C5B5F" stroke-linecap="round" stroke-linejoin="round"/>
<path d="M78.5254 77.9495C78.5254 77.9495 81.3164 82.6059 86.8983 79.812" stroke="#3C5B5F" stroke-linecap="round" stroke-linejoin="round"/>
<path d="M99.9321 80.129C99.9321 80.129 103.039 85.0927 110.482 80.129" stroke="#3C5B5F" stroke-linecap="round" stroke-linejoin="round"/>
<path d="M9.93213 237.302H187.522" stroke="#3C5B5F" stroke-linecap="round" stroke-linejoin="round"/>
<path d="M219.936 392.49C266.25 392.49 303.795 354.902 303.795 308.535C303.795 262.167 266.25 224.579 219.936 224.579C173.621 224.579 136.076 262.167 136.076 308.535C136.076 354.902 173.621 392.49 219.936 392.49Z" fill="#9CC2DD"/>
<path d="M175.224 226.33C175.224 226.33 164.06 218.879 151.473 219.195C138.885 219.512 134.159 232.449 133.489 236.184C132.82 239.919 133.834 241.959 126.372 241.959C118.911 241.959 103.291 240.599 97.1881 248.758C91.0851 256.917 90.3967 266.082 95.8298 271.856C101.263 277.631 103.272 280.006 103.272 280.006C103.272 280.006 97.5044 285.445 100.221 292.915C102.937 300.385 112.78 303.784 119.227 303.784C125.675 303.784 135.508 294.61 138.225 289.18C140.941 283.75 148.747 285.455 154.85 276.951C160.953 268.447 157.91 257.923 156.887 252.148C155.864 246.373 157.231 234.452 165.372 231.434C173.512 228.416 174.87 228.37 174.87 228.37L175.224 226.33Z" fill="#3C5B5F" stroke="#3C5B5F" stroke-linecap="round" stroke-linejoin="round"/>
<path d="M80.5537 391.773L104.984 347.951C105.79 340.444 107.38 333.042 109.729 325.868C113.804 312.959 118.558 292.235 124.326 285.101C130.094 277.966 149.444 271.512 149.444 271.512C149.444 271.512 168.107 279.671 173.196 283.406C178.284 287.14 186.769 293.595 189.476 299.37C192.184 305.144 194.575 319.069 198.984 324.163C203.394 329.258 213.237 339.457 212.893 348.966C212.548 358.476 210.855 362.211 210.855 364.595C210.855 366.979 206.111 364.092 197.291 365.107C188.472 366.123 182.192 369.029 181.476 370.044C180.759 371.059 163.688 398.572 163.688 398.572" fill="white"/>
<path d="M80.5537 391.773L104.984 347.951C105.79 340.444 107.38 333.042 109.729 325.868C113.804 312.959 118.558 292.235 124.326 285.101C130.094 277.966 149.444 271.512 149.444 271.512C149.444 271.512 168.107 279.671 173.196 283.406C178.284 287.14 186.769 293.595 189.476 299.37C192.184 305.144 194.575 319.069 198.984 324.163C203.394 329.258 213.237 339.457 212.893 348.966C212.548 358.476 210.855 362.211 210.855 364.595C210.855 366.979 206.111 364.092 197.291 365.107C188.472 366.123 182.192 369.029 181.476 370.044C180.759 371.059 163.688 398.572 163.688 398.572" stroke="#3C5B5F" stroke-linecap="round" stroke-linejoin="round"/>
<path d="M190.146 314.654C190.146 314.654 193.542 333.682 194.221 338.432C194.9 343.182 185.402 362.555 183.057 364.595" stroke="#3C5B5F" stroke-linecap="round" stroke-linejoin="round"/>
<path d="M182.351 314.654C182.351 314.654 181.671 330.618 182.685 338.432C183.7 346.247 185.737 356.129 184.044 359.156" stroke="#3C5B5F" stroke-linecap="round" stroke-linejoin="round"/>
<path d="M193.207 343.527C193.207 343.527 198.975 338.777 206.436 340.817" stroke="#3C5B5F" stroke-linecap="round" stroke-linejoin="round"/>
<path d="M196.258 339.456C196.258 339.456 200.668 336.737 204.743 336.737" stroke="#3C5B5F" stroke-linecap="round" stroke-linejoin="round"/>
<path d="M183.02 288.156L186.081 294.275L189.802 311.599L184.369 302.089L181.662 313.639L178.266 292.58C178.266 292.58 179.634 285.445 183.02 288.156Z" fill="white" stroke="#3C5B5F" stroke-linecap="round" stroke-linejoin="round"/>
<path d="M169.456 256.907C169.456 256.907 165.381 260.633 162.329 262.002C159.278 263.371 155.538 264.722 155.538 264.722L174.2 302.089L181.643 313.639C181.643 313.639 181.299 303.784 181.299 300.385C181.255 297.993 181.028 295.608 180.62 293.25L189.439 282.381C189.439 282.381 192.156 257.233 189.783 253.173C187.411 249.112 173.866 252.493 169.456 256.907Z" fill="white" stroke="#3C5B5F" stroke-linecap="round" stroke-linejoin="round"/>
<path d="M190.305 272.918L183.793 267.088C183.793 267.088 182.323 268.485 181.281 277.538C180.936 281.629 181.813 285.73 183.802 289.32L189.384 282.381C189.384 282.381 189.924 278.171 190.305 272.918Z" fill="#3C5B5F" stroke="#3C5B5F" stroke-linecap="round" stroke-linejoin="round"/>
<path d="M231.536 246.094C231.536 246.094 229.127 257.792 227.071 261.574C225.015 265.355 222.112 267.432 221.87 269.109C221.173 274.911 221.191 277.361 219.47 279.773C217.749 282.185 208.129 288.035 202.287 289.404C196.445 290.773 192.984 291.816 191.281 290.093C189.579 288.37 183.383 279.429 183.383 275.647C183.383 271.866 182.35 270.832 183.383 268.419C184.415 266.007 184.415 259.813 184.415 259.813C184.415 259.813 184.415 256.721 188.537 251.561C192.658 246.401 200.566 245.041 206.408 245.041C212.251 245.041 212.921 240.906 219.126 239.192C225.331 237.479 229.815 242.648 231.536 246.094Z" fill="white" stroke="#3C5B5F" stroke-linecap="round" stroke-linejoin="round"/>
<path d="M218.019 266.743C217.302 267.944 216.251 268.652 215.684 268.316C215.116 267.981 215.237 266.715 215.963 265.523C216.688 264.331 217.73 263.613 218.298 263.949C218.865 264.284 218.744 265.532 218.019 266.743Z" fill="#3C5B5F"/>
<path d="M216.391 260.121C216.391 260.121 220.735 258.323 222.987 262.374" stroke="#3C5B5F" stroke-linecap="round" stroke-linejoin="round"/>
<path d="M219.508 279.81C220.374 278.31 220.951 276.661 221.21 274.949C218.54 273.486 212.66 270.04 209.535 266.389C205.413 261.574 197.171 249.875 197.171 249.875L195.822 251.599L202.697 262.952C202.697 262.952 194.789 269.472 189.291 269.472C185.011 269.472 184.062 267.814 183.858 267.069C183.759 267.536 183.622 267.994 183.448 268.438C182.416 270.85 183.448 271.875 183.448 275.666C183.448 279.456 189.635 288.398 191.347 290.112C193.058 291.825 196.51 290.801 202.352 289.422C208.195 288.044 217.787 282.223 219.508 279.81Z" fill="#9CC2DD" stroke="#3C5B5F" stroke-linecap="round" stroke-linejoin="round"/>
<path d="M194.416 254.346C197.425 252.571 200.894 251.734 204.38 251.943C210.223 252.288 217.098 254.691 218.819 251.598C220.54 248.506 220.884 242.648 226.038 244.026C231.192 245.405 231.881 248.497 231.881 248.497C231.881 248.497 242.533 248.152 243.566 242.303C244.598 236.454 238.756 227.168 234.969 226.469C231.183 225.771 227.75 225.091 227.75 225.091C227.75 225.091 214.725 211.67 199.226 212.051C183.727 212.433 176.898 218.571 173.112 231.667C169.326 244.762 171.047 249.559 167.949 254.02C164.851 258.481 163.139 262.971 170.74 262.282C178.34 261.592 183.457 256.777 187.234 255.054C189.484 254.028 192.01 253.779 194.416 254.346Z" fill="#3C5B5F" stroke="#3C5B5F" stroke-linecap="round" stroke-linejoin="round"/>
<path d="M195.449 256.758C195.449 256.758 199.571 251.598 195.793 246.094C192.016 240.589 181.011 251.254 182.769 257.103C184.527 262.952 188.956 262.263 188.956 262.263" fill="white"/>
<path d="M195.449 256.758C195.449 256.758 199.571 251.598 195.793 246.094C192.016 240.589 181.011 251.254 182.769 257.103C184.527 262.952 188.956 262.263 188.956 262.263" stroke="#3C5B5F" stroke-linecap="round" stroke-linejoin="round"/>
<path d="M158.255 260.307L178.955 302.425L171.828 313.974L146.719 270.496L158.255 260.307Z" fill="white" stroke="#3C5B5F" stroke-linecap="round" stroke-linejoin="round"/>
<path d="M183.373 366.253C183.373 366.253 182.899 358.122 193.254 357.312C203.608 356.501 211.637 360.963 212.074 367.836C212.511 374.71 191.365 370.277 189.011 370.277C186.658 370.277 183.373 366.253 183.373 366.253Z" fill="white" stroke="#3C5B5F" stroke-linecap="round" stroke-linejoin="round"/>
<path d="M299.069 388.094H161.306V395.843H298.734" fill="white"/>
<path d="M299.069 388.094H161.306V395.843H298.734" stroke="#3C5B5F" stroke-linecap="round" stroke-linejoin="round"/>
<path d="M250.208 305.489L214.242 320.428V376.144H227.815V323.828L252.925 309.904L250.208 305.489Z" fill="white" stroke="#3C5B5F" stroke-linecap="round" stroke-linejoin="round"/>
<path d="M268.954 358.522C268.711 358.41 268.505 358.23 268.361 358.003C268.217 357.777 268.14 357.515 268.14 357.246C268.14 356.978 268.217 356.716 268.361 356.489C268.505 356.263 268.711 356.083 268.954 355.97C268.954 355.6 268.807 355.245 268.545 354.983C268.284 354.721 267.929 354.573 267.559 354.573H255.595C255.621 356.015 255.126 357.418 254.199 358.522C254.2 358.791 254.277 359.054 254.422 359.28C254.567 359.507 254.774 359.686 255.018 359.798C254.773 359.907 254.566 360.085 254.42 360.31C254.275 360.535 254.198 360.797 254.199 361.065C254.442 361.178 254.648 361.358 254.792 361.584C254.937 361.81 255.013 362.073 255.013 362.341C255.013 362.609 254.937 362.872 254.792 363.098C254.648 363.324 254.442 363.504 254.199 363.617C254.2 363.886 254.277 364.149 254.422 364.375C254.567 364.601 254.774 364.781 255.018 364.893C254.773 365.002 254.566 365.179 254.42 365.404C254.275 365.629 254.198 365.892 254.199 366.16C254.198 366.344 254.233 366.527 254.303 366.697C254.372 366.868 254.475 367.023 254.605 367.154C254.734 367.285 254.889 367.388 255.059 367.459C255.228 367.53 255.411 367.566 255.595 367.566H267.559C267.743 367.566 267.925 367.53 268.095 367.459C268.265 367.388 268.419 367.285 268.549 367.154C268.679 367.023 268.781 366.868 268.851 366.697C268.92 366.527 268.955 366.344 268.954 366.16C268.955 365.892 268.879 365.629 268.733 365.404C268.588 365.179 268.38 365.002 268.136 364.893C267.891 364.244 267.839 363.538 267.984 362.859C268.129 362.18 268.466 361.558 268.954 361.065C268.955 360.797 268.879 360.535 268.733 360.31C268.588 360.085 268.38 359.907 268.136 359.798C268.38 359.686 268.586 359.507 268.731 359.28C268.876 359.054 268.954 358.791 268.954 358.522Z" fill="#3C5B5F" stroke="#3C5B5F" stroke-linecap="round" stroke-linejoin="round"/>
<path d="M279.904 367.315H213.991V380.82H279.904V367.315Z" fill="white" stroke="#3C5B5F" stroke-linecap="round" stroke-linejoin="round"/>
<path d="M279.904 373.676H213.991V380.811H279.904V373.676Z" fill="#3C5B5F" stroke="#3C5B5F" stroke-linecap="round" stroke-linejoin="round"/>
<path d="M226.206 380.559H218.316V387.945H226.206V380.559Z" fill="#3C5B5F" stroke="#3C5B5F" stroke-linecap="round" stroke-linejoin="round"/>
<path d="M250.124 380.559H242.235V387.945H250.124V380.559Z" fill="#3C5B5F" stroke="#3C5B5F" stroke-linecap="round" stroke-linejoin="round"/>
<path d="M274.043 380.559H266.154V387.945H274.043V380.559Z" fill="#3C5B5F" stroke="#3C5B5F" stroke-linecap="round" stroke-linejoin="round"/>
<path d="M281.179 341.32H222.643V344.374H281.179V341.32Z" fill="white" stroke="#3C5B5F" stroke-linecap="round" stroke-linejoin="round"/>
<path d="M277.867 344.123H227.731V348.705H277.867V344.123Z" fill="#3C5B5F" stroke="#3C5B5F" stroke-linecap="round" stroke-linejoin="round"/>
<path d="M225.51 265.936L220.011 271.944L254.533 303.614L260.032 297.606L225.51 265.936Z" fill="#3C5B5F" stroke="#3C5B5F" stroke-linecap="round" stroke-linejoin="round"/>
<path d="M259.745 314.421H253.297V331.065H259.745V314.421Z" fill="#3C5B5F" stroke="#3C5B5F" stroke-linecap="round" stroke-linejoin="round"/>
<path d="M259.047 331.298H254.042V334.082H259.047V331.298Z" fill="#3C5B5F" stroke="#3C5B5F" stroke-linecap="round" stroke-linejoin="round"/>
<path d="M265.683 309.344L259.782 311.943L266.475 327.179L272.376 324.58L265.683 309.344Z" fill="#3C5B5F" stroke="#3C5B5F" stroke-linecap="round" stroke-linejoin="round"/>
<path d="M271.818 325.075L267.237 327.092L268.357 329.641L272.938 327.624L271.818 325.075Z" fill="#3C5B5F" stroke="#3C5B5F" stroke-linecap="round" stroke-linejoin="round"/>
<path d="M254.962 292.235L248.171 299.034V318.398L269.894 312.959V300.05L254.962 292.235Z" fill="white" stroke="#3C5B5F" stroke-linecap="round" stroke-linejoin="round"/>
<path d="M269.894 307.911L248.171 313.527V318.398L269.894 312.959V307.911Z" fill="#3C5B5F" stroke="#3C5B5F" stroke-linecap="round" stroke-linejoin="round"/>
<path d="M211.526 362.555C211.526 362.555 221.703 355.756 223.741 353.381C225.778 351.006 233.24 341.497 235.277 341.152C237.314 340.807 244.441 340.817 245.799 340.817C247.157 340.817 251.567 344.887 252.581 345.567C253.595 346.247 253.939 349.292 252.925 349.646C251.911 350 246.478 347.271 246.478 347.271L237.314 348.966C237.314 348.966 251.223 352.366 252.2 353.046C253.176 353.726 252.879 357.116 252.879 357.116L248.85 359.156C248.85 359.156 252.925 358.82 252.925 361.196C252.925 363.571 252.925 365.955 251.223 365.955H249.53C249.53 365.955 253.251 369.681 252.246 370.705C251.045 371.812 249.469 372.421 247.836 372.41C246.134 372.41 242.068 374.44 237.314 376.135C232.56 377.83 225.443 380.885 221.703 381.565C217.964 382.245 212.549 382.925 212.549 382.925C212.549 382.925 212.205 374.095 211.526 371.376C210.847 368.656 209.488 363.561 209.488 363.561L211.526 362.555Z" fill="white" stroke="#3C5B5F" stroke-linecap="round" stroke-linejoin="round"/>
<path d="M248.85 359.156L241.649 360.46" stroke="#3C5B5F" stroke-linecap="round" stroke-linejoin="round"/>
<path d="M249.53 365.955L242.422 367.408" stroke="#3C5B5F" stroke-linecap="round" stroke-linejoin="round"/>
<path d="M128.392 292.58C123.982 299.37 118.893 314.998 118.893 322.813C118.893 330.627 112.446 360.516 111.767 371.385C111.088 382.254 111.432 389.081 118.214 390.413C124.996 391.745 146.375 393.468 155.883 392.444C165.391 391.419 176.285 391.429 191.17 391.429C206.055 391.429 213.228 390.413 213.228 390.413C214.183 385.585 214.86 380.706 215.256 375.8C215.601 369.69 213.228 360.516 212.205 360.516C211.181 360.516 194.901 363.235 180.992 364.93C167.084 366.626 160.293 364.251 157.92 363.235C156.857 362.697 155.708 362.351 154.525 362.211V357.796L150.45 357.461L154.171 333.682C154.171 333.682 157.232 331.642 158.246 329.267C159.26 326.892 160.618 314.654 159.939 307.184C159.26 299.714 152.134 295.29 152.134 295.29" fill="white"/>
<path d="M128.392 292.58C123.982 299.37 118.893 314.998 118.893 322.813C118.893 330.627 112.446 360.516 111.767 371.385C111.088 382.254 111.432 389.081 118.214 390.413C124.996 391.745 146.375 393.468 155.883 392.444C165.391 391.419 176.285 391.429 191.17 391.429C206.055 391.429 213.228 390.413 213.228 390.413C214.183 385.585 214.86 380.706 215.256 375.8C215.601 369.69 213.228 360.516 212.205 360.516C211.181 360.516 194.901 363.235 180.992 364.93C167.084 366.626 160.293 364.251 157.92 363.235C156.857 362.697 155.708 362.351 154.525 362.211V357.796L150.45 357.461L154.171 333.682C154.171 333.682 157.232 331.642 158.246 329.267C159.26 326.892 160.618 314.654 159.939 307.184C159.26 299.714 152.134 295.29 152.134 295.29" stroke="#3C5B5F" stroke-linecap="round" stroke-linejoin="round"/>
<path d="M149.77 360.18C149.77 360.18 147.053 364.93 136.875 369.01" stroke="#3C5B5F" stroke-linecap="round" stroke-linejoin="round"/>
<path d="M150.794 363.915C150.794 363.915 135.518 375.464 132.131 379.879" stroke="#3C5B5F" stroke-linecap="round" stroke-linejoin="round"/>
<path d="M119.535 368.329C119.535 368.329 132.429 367.985 141.593 362.211" stroke="#3C5B5F" stroke-linecap="round" stroke-linejoin="round"/>
<path d="M152.487 332.322C152.487 332.322 149.435 327.563 141.63 323.148" stroke="#3C5B5F" stroke-linecap="round" stroke-linejoin="round"/>
</svg>
