<svg width="242" height="27" viewBox="0 0 242 27" fill="none" xmlns="http://www.w3.org/2000/svg">
<path d="M0.718876 0.0221558C1.04269 0.0221558 1.26288 0.170437 1.37946 0.466998L11.8323 24.237L21.2165 0.486338C21.3331 0.176883 21.5597 0.0221558 21.8966 0.0221558C22.0908 0.0221558 22.2592 0.093073 22.4017 0.234906C22.5441 0.37674 22.6154 0.544361 22.6154 0.737771C22.6154 0.776453 22.6089 0.821582 22.596 0.87316C22.583 0.924733 22.5701 0.969859 22.5571 1.00855L12.5317 26.3839C12.4151 26.6804 12.195 26.8287 11.8712 26.8287C11.5473 26.8287 11.3272 26.6868 11.2106 26.4032L0.0582913 1.02789C0.0194297 0.950519 0 0.853821 0 0.737771C0 0.260695 0.239627 0.0221558 0.718876 0.0221558ZM43.5389 6.96555C44.0311 6.96555 44.2772 7.21054 44.2772 7.70051L44.2189 26.1324H44.2384C44.2384 26.3387 44.1671 26.5128 44.0247 26.6546C43.8822 26.7964 43.7073 26.8673 43.5001 26.8673C43.2928 26.8673 43.118 26.7964 42.9755 26.6546C42.833 26.5128 42.7618 26.3387 42.7618 26.1324V26.1131L42.7812 22.0708C42.0299 23.386 40.9484 24.5078 39.5366 25.4361C38.1376 26.3516 36.6028 26.8093 34.9319 26.8093C33.6366 26.8093 32.432 26.545 31.3181 26.0164C30.2042 25.4748 29.2327 24.7399 28.4037 23.8115C27.5748 22.8832 26.9271 21.8259 26.4608 20.6396C25.9945 19.4534 25.7613 18.2156 25.7613 16.9262C25.7613 15.6368 25.988 14.3989 26.4413 13.2127C26.9077 12.0135 27.5553 10.9498 28.3843 10.0214C29.2262 9.08017 30.2106 8.33876 31.3375 7.79721C32.4644 7.25567 33.6949 6.98489 35.029 6.98489C36.2077 6.98489 37.2893 7.26212 38.2737 7.81656C39.2711 8.3581 40.1518 9.04793 40.916 9.88604C41.6932 10.7242 42.3214 11.5816 42.8006 12.4584L42.8201 7.70051C42.8201 7.21054 43.0597 6.96555 43.5389 6.96555ZM42.6646 16.8681C42.6646 15.3853 42.3343 14.0057 41.6737 12.7292C41.0261 11.4526 40.1259 10.4212 38.9731 9.6346C37.8333 8.83518 36.5251 8.43547 35.0485 8.43547C33.5589 8.43547 32.2183 8.83518 31.0266 9.6346C29.8479 10.434 28.9153 11.4849 28.2288 12.7872C27.5553 14.0766 27.2186 15.4562 27.2186 16.9262C27.2186 18.3961 27.5553 19.7757 28.2288 21.0651C28.9024 22.3416 29.8221 23.3796 30.9877 24.179C32.1535 24.9656 33.4682 25.3588 34.9319 25.3588C36.4085 25.3588 37.7297 24.9591 38.8954 24.1597C40.0611 23.3603 40.9808 22.3158 41.6543 21.0264C42.3279 19.737 42.6646 18.3509 42.6646 16.8681ZM49.7741 16.8294C49.7741 15.05 50.1951 13.4061 51.037 11.8974C51.8789 10.3889 53.0187 9.17687 54.4565 8.2614C55.8942 7.33304 57.5004 6.86885 59.2749 6.86885C60.5831 6.86885 61.7683 7.11383 62.8304 7.6038C63.9055 8.08088 64.8316 8.71268 65.6088 9.49922C66.3988 10.2857 67.0077 11.1496 67.4351 12.0909C67.474 12.1683 67.4934 12.2715 67.4934 12.4004C67.4934 12.8774 67.2538 13.116 66.7745 13.116C66.4378 13.116 66.211 12.9742 66.0946 12.6904C65.5634 11.5171 64.7021 10.4985 63.5104 9.6346C62.3188 8.75782 60.9069 8.31942 59.2749 8.31942C57.7724 8.31942 56.4124 8.71268 55.1948 9.49922C53.9773 10.2857 53.0123 11.3237 52.2999 12.6131C51.5875 13.9025 51.2312 15.308 51.2312 16.8294C51.2312 18.3381 51.5875 19.7434 52.2999 21.0457C53.0123 22.348 53.9773 23.3989 55.1948 24.1983C56.4124 24.9849 57.7789 25.3781 59.2943 25.3781C60.9263 25.3781 62.3382 24.9462 63.5298 24.0823C64.7345 23.2055 65.6023 22.1805 66.1334 21.0071C66.2499 20.7234 66.4702 20.5816 66.794 20.5816C67.0012 20.5816 67.1761 20.6525 67.3185 20.7943C67.461 20.9232 67.5323 21.0909 67.5323 21.2972C67.5323 21.4003 67.5063 21.5035 67.4545 21.6066C67.0271 22.535 66.4184 23.3989 65.6282 24.1983C64.8511 24.9849 63.925 25.6231 62.8498 26.1131C61.7877 26.5902 60.6025 26.8287 59.2943 26.8287C57.5068 26.8287 55.8942 26.3645 54.4565 25.4361C53.0187 24.5078 51.8789 23.2894 51.037 21.7807C50.1951 20.2593 49.7741 18.6088 49.7741 16.8294ZM72.2326 16.8294C72.2326 15.05 72.6535 13.4061 73.4954 11.8974C74.3374 10.3889 75.4772 9.17687 76.9149 8.2614C78.3527 7.33304 79.9588 6.86885 81.7333 6.86885C83.0416 6.86885 84.2268 7.11383 85.2889 7.6038C86.3639 8.08088 87.2901 8.71268 88.0672 9.49922C88.8573 10.2857 89.4661 11.1496 89.8936 12.0909C89.9324 12.1683 89.9519 12.2715 89.9519 12.4004C89.9519 12.8774 89.7122 13.116 89.2329 13.116C88.8962 13.116 88.6695 12.9742 88.5529 12.6904C88.0219 11.5171 87.1605 10.4985 85.9689 9.6346C84.7772 8.75782 83.3654 8.31942 81.7333 8.31942C80.2308 8.31942 78.8707 8.71268 77.6533 9.49922C76.4357 10.2857 75.4707 11.3237 74.7583 12.6131C74.0459 13.9025 73.6897 15.308 73.6897 16.8294C73.6897 18.3381 74.0459 19.7434 74.7583 21.0457C75.4707 22.348 76.4357 23.3989 77.6533 24.1983C78.8707 24.9849 80.2373 25.3781 81.7528 25.3781C83.3848 25.3781 84.7967 24.9462 85.9883 24.0823C87.1929 23.2055 88.0607 22.1805 88.5918 21.0071C88.7084 20.7234 88.9285 20.5816 89.2523 20.5816C89.4596 20.5816 89.6345 20.6525 89.777 20.7943C89.9194 20.9232 89.9906 21.0909 89.9906 21.2972C89.9906 21.4003 89.9648 21.5035 89.913 21.6066C89.4855 22.535 88.8767 23.3989 88.0867 24.1983C87.3095 24.9849 86.3833 25.6231 85.3083 26.1131C84.2462 26.5902 83.061 26.8287 81.7528 26.8287C79.9653 26.8287 78.3527 26.3645 76.9149 25.4361C75.4772 24.5078 74.3374 23.2894 73.4954 21.7807C72.6535 20.2593 72.2326 18.6088 72.2326 16.8294ZM107.94 7.77787V7.75853C107.94 7.52644 108.017 7.35238 108.173 7.23633C108.329 7.12028 108.497 7.06226 108.679 7.06226C108.86 7.06226 109.022 7.12028 109.164 7.23633C109.319 7.35238 109.397 7.52644 109.397 7.75853V12.1683C110.161 10.6726 111.172 9.44119 112.428 8.47415C113.684 7.50711 115.116 7.02358 116.721 7.02358C118.509 7.02358 119.973 7.44263 121.113 8.28074C122.252 9.11885 123.088 10.2535 123.619 11.6847C124.163 13.1031 124.435 14.6891 124.435 16.4426V26.1131C124.435 26.3452 124.357 26.5193 124.202 26.6353C124.06 26.7513 123.898 26.8093 123.717 26.8093C123.535 26.8093 123.366 26.7513 123.211 26.6353C123.056 26.5193 122.979 26.3452 122.979 26.1131V16.4426C122.979 14.9598 122.771 13.6188 122.357 12.4197C121.942 11.2206 121.281 10.2664 120.374 9.55724C119.481 8.84807 118.296 8.49349 116.819 8.49349C115.459 8.49349 114.216 8.88676 113.089 9.67329C111.961 10.4469 111.061 11.4398 110.388 12.6518C109.727 13.8509 109.397 15.1016 109.397 16.4039L109.436 26.1518C109.436 26.3839 109.358 26.5579 109.203 26.674C109.048 26.8029 108.879 26.8673 108.698 26.8673C108.517 26.8673 108.348 26.8029 108.192 26.674C108.05 26.5579 107.978 26.3839 107.978 26.1518L107.94 7.77787Z" fill="#7FA9C7"/>
<path d="M130.113 0.270774C132.86 0.270774 135.372 0.270774 137.652 0.270774C139.931 0.25788 142.121 0.251433 144.219 0.251433C146.331 0.238539 148.493 0.232091 150.709 0.232091C151.187 0.232091 151.427 0.47063 151.427 0.947704C151.427 1.15401 151.356 1.32808 151.213 1.46992C151.084 1.61175 150.916 1.68266 150.709 1.68266H150.689L141.169 1.702L141.053 26.1103C141.053 26.3166 140.981 26.4842 140.839 26.6131C140.695 26.755 140.521 26.8259 140.313 26.8259C139.835 26.8259 139.595 26.5809 139.595 26.0909L139.712 1.702L130.113 1.72134C129.906 1.72134 129.731 1.65043 129.589 1.50859C129.447 1.36676 129.375 1.19269 129.375 0.986383C129.375 0.780085 129.447 0.612464 129.589 0.483523C129.731 0.34169 129.906 0.270774 130.113 0.270774ZM155.952 0.696274C155.952 0.464183 156.031 0.290114 156.186 0.174068C156.341 0.0580231 156.509 0 156.691 0C156.872 0 157.04 0.0580231 157.196 0.174068C157.352 0.290114 157.422 0.47063 157.41 0.715616V12.6103C157.863 11.7335 158.394 10.9276 159.003 10.1927C159.625 9.44483 160.343 8.80658 161.16 8.27793C161.756 7.8911 162.383 7.5881 163.044 7.3689C163.717 7.13681 164.424 7.02077 165.162 7.02077C166.911 7.02077 168.303 7.47849 169.339 8.39397C170.388 9.30944 171.139 10.5214 171.593 12.0301C172.047 13.5387 172.273 15.1762 172.273 16.9427L172.253 26.1296C172.253 26.3617 172.176 26.5358 172.021 26.6518C171.878 26.7679 171.716 26.8259 171.534 26.8259C171.353 26.8259 171.178 26.7679 171.01 26.6518C170.855 26.5358 170.783 26.3552 170.796 26.1103L170.816 16.9427C170.816 15.4599 170.648 14.0802 170.311 12.8037C169.973 11.5143 169.397 10.4764 168.582 9.68982C167.765 8.89039 166.632 8.49067 165.182 8.49067C164.055 8.49067 162.979 8.82592 161.957 9.49641C161.179 10.0122 160.441 10.6827 159.741 11.5078C159.055 12.3331 158.492 13.2549 158.051 14.2736C157.623 15.2793 157.41 16.3173 157.41 17.3875V26.1296C157.41 26.3359 157.339 26.51 157.196 26.6518C157.066 26.7936 156.898 26.8645 156.691 26.8645C156.483 26.8645 156.309 26.7936 156.166 26.6518C156.024 26.51 155.952 26.3359 155.952 26.1296V0.696274ZM187.446 27C185.567 27 183.864 26.5358 182.335 25.6074C180.82 24.6662 179.609 23.4155 178.703 21.8552C177.809 20.2951 177.362 18.5867 177.362 16.73C177.362 14.9634 177.782 13.3324 178.625 11.8367C179.479 10.328 180.626 9.11603 182.064 8.20056C183.514 7.27219 185.134 6.80801 186.921 6.80801C188.566 6.80801 190.075 7.21417 191.447 8.02649C192.821 8.83881 193.915 9.92838 194.731 11.2951C195.561 12.649 195.975 14.164 195.975 15.8402C195.975 16.2013 195.943 16.543 195.878 16.8653C195.813 17.1877 195.593 17.3489 195.218 17.3489L178.839 17.3682C178.955 18.8381 179.396 20.192 180.16 21.4298C180.937 22.6676 181.953 23.6669 183.21 24.4276C184.466 25.1755 185.872 25.5494 187.427 25.5494C188.67 25.5494 189.874 25.2786 191.04 24.7371C192.218 24.1826 193.203 23.4283 193.993 22.4741C194.135 22.2937 194.33 22.2034 194.576 22.2034C194.783 22.2034 194.952 22.2743 195.081 22.4161C195.224 22.558 195.295 22.7321 195.295 22.9384C195.295 23.106 195.237 23.2607 195.12 23.4025C194.187 24.5372 193.041 25.4204 191.681 26.0522C190.321 26.684 188.909 27 187.446 27ZM194.517 15.8596C194.517 14.4541 194.168 13.1776 193.469 12.0301C192.782 10.8825 191.862 9.967 190.709 9.28365C189.556 8.60028 188.287 8.25859 186.901 8.25859C185.451 8.25859 184.143 8.61317 182.977 9.32233C181.811 10.0315 180.865 10.9664 180.14 12.1267C179.415 13.2872 178.987 14.5508 178.858 15.9176L194.517 15.8982V15.8596ZM202.929 11.6819C203.291 10.8567 203.803 10.0895 204.464 9.38036C205.125 8.6583 205.914 8.07162 206.835 7.62033C207.767 7.16904 208.809 6.9434 209.962 6.9434C210.299 6.9434 210.591 6.98853 210.836 7.07879C211.082 7.16904 211.206 7.37535 211.206 7.6977C211.206 8.17477 210.966 8.41331 210.487 8.41331C210.357 8.41331 210.235 8.40686 210.117 8.39397C210.001 8.38107 209.884 8.37463 209.768 8.37463C208.693 8.37463 207.735 8.63896 206.892 9.1676C206.051 9.68337 205.331 10.3796 204.736 11.2564C204.153 12.1332 203.706 13.1003 203.396 14.1576C203.084 15.2149 202.929 16.285 202.929 17.3682V26.0909C202.929 26.2972 202.857 26.4713 202.715 26.6131C202.573 26.755 202.398 26.8259 202.191 26.8259C201.983 26.8259 201.809 26.755 201.666 26.6131C201.523 26.4713 201.452 26.2972 201.452 26.0909V7.85242C201.452 7.64612 201.523 7.47849 201.666 7.34956C201.809 7.20773 201.983 7.13681 202.191 7.13681C202.398 7.13681 202.573 7.20773 202.715 7.34956C202.857 7.47849 202.929 7.64612 202.929 7.85242V11.6819ZM215.323 7.56231C215.323 7.3818 215.388 7.22707 215.518 7.09813C215.66 6.95629 215.822 6.88538 216.003 6.88538C216.184 6.88538 216.34 6.95629 216.47 7.09813C216.612 7.22707 216.683 7.3818 216.683 7.56231V12.4169C216.942 11.553 217.376 10.7084 217.985 9.88322C218.594 9.05801 219.365 8.38107 220.297 7.85242C221.23 7.31087 222.311 7.04011 223.542 7.04011C225.342 7.04011 226.754 7.5752 227.777 8.6454C228.8 9.7156 229.299 11.0953 229.273 12.7844C229.519 11.8044 229.934 10.8761 230.517 9.99928C231.113 9.10958 231.883 8.38752 232.829 7.83309C233.787 7.27864 234.934 7.00786 236.268 7.02077C237.343 7.03366 238.243 7.29798 238.968 7.81375C239.707 8.31661 240.296 8.99354 240.736 9.8445C241.177 10.6955 241.494 11.6368 241.688 12.6683C241.882 13.6869 241.98 14.712 241.98 15.7436L242 26.149C242 26.3295 241.928 26.4842 241.786 26.6131C241.656 26.755 241.5 26.8259 241.319 26.8259C241.138 26.8259 240.976 26.755 240.834 26.6131C240.704 26.4842 240.639 26.3295 240.639 26.149L240.62 15.7436C240.62 14.596 240.496 13.4549 240.251 12.3201C240.017 11.1855 239.583 10.2443 238.949 9.49641C238.327 8.74856 237.434 8.37463 236.268 8.37463C234.687 8.37463 233.386 8.81302 232.362 9.68982C231.34 10.5666 230.582 11.7335 230.089 13.1905C229.597 14.6347 229.351 16.227 229.351 17.9678V26.0909C229.351 26.2715 229.279 26.4326 229.137 26.5745C229.008 26.7034 228.853 26.7679 228.671 26.7679C228.49 26.7679 228.327 26.7034 228.185 26.5745C228.056 26.4326 227.991 26.2715 227.991 26.0909V15.2987C227.991 14.1254 227.861 13.0165 227.602 11.9721C227.357 10.9148 226.909 10.0573 226.261 9.3997C225.627 8.72922 224.72 8.39397 223.542 8.39397C221.935 8.39397 220.627 8.81947 219.617 9.67048C218.607 10.5214 217.868 11.6562 217.402 13.0745C216.935 14.4928 216.703 16.0595 216.703 17.7744L216.722 26.1296C216.722 26.3101 216.651 26.4649 216.509 26.5938C216.378 26.7356 216.223 26.8065 216.042 26.8065C215.861 26.8065 215.699 26.7356 215.557 26.5938C215.426 26.4649 215.362 26.3101 215.362 26.1296L215.323 7.58165V7.56231Z" fill="#ECEBE7"/>
<path d="M101.902 19.7852V10.9348C101.902 9.80835 101.099 8.89236 100.111 8.89236V5.48836C100.111 5.11256 99.8432 4.80756 99.5139 4.80756C99.1846 4.80756 98.917 5.11256 98.917 5.48836V8.89236C97.9294 8.89236 97.1262 9.80835 97.1262 10.9348V19.7852C96.7967 19.7852 96.5293 20.0902 96.5293 20.466C96.5293 20.8418 96.7967 21.1468 97.1262 21.1468H98.917V25.2316C98.917 25.2316 97.8139 25.2316 97.4844 25.2316C97.1549 25.2316 96.8875 25.5366 96.8875 25.9124C96.8875 26.2882 97.1549 26.5932 97.4844 26.5932C97.8139 26.5932 101.611 26.5932 101.611 26.5932C101.94 26.5932 102.208 26.2882 102.208 25.9124C102.208 25.5366 101.94 25.2316 101.611 25.2316H100.111V21.1468H101.902C102.231 21.1468 102.499 20.8418 102.499 20.466C102.499 20.0902 102.231 19.7852 101.902 19.7852ZM98.3201 18.4236C98.3201 18.1726 98.3201 18.1273 98.3201 17.7515C98.3201 17.3757 98.3201 17.3857 98.3201 17.062V15.7004C98.3201 15.169 98.3201 15.2791 98.3201 14.9033C98.3201 14.6376 98.3201 14.6376 98.3201 14.3388V12.9772C98.3201 12.5122 98.3201 12.6224 98.3201 12.2466C98.3201 11.8708 98.3201 11.9809 98.3201 11.6156V10.9348C98.3201 10.5593 98.5877 10.254 98.917 10.254H100.111C100.44 10.254 100.708 10.5593 100.708 10.9348V19.7852H98.3201V18.4236Z" fill="#7FA9C7"/>
</svg>
