<svg width="28" height="34" viewBox="0 0 28 34" fill="none" xmlns="http://www.w3.org/2000/svg">
  <path d="M7.24823 33C6.89589 32.5691 6.63697 32.0674 6.48841 31.5277C6.33985 30.9881 6.30499 30.4225 6.38612 29.8682L9.73875 15.7682C9.78673 15.6285 9.78673 15.4764 9.73875 15.3367C9.36411 14.5445 9.12795 13.6919 9.04086 12.8173C9.02553 12.3393 9.11004 11.8634 9.28881 11.4211C9.46757 10.9788 9.73653 10.58 10.0779 10.2512C10.4193 9.92232 10.8254 9.67085 11.2694 9.51337C11.7133 9.35588 12.1851 9.29595 12.6535 9.33754C13.5257 9.26241 14.3953 9.50948 15.103 10.0335C15.2693 10.2203 15.3944 10.4412 15.4699 10.6813C15.5455 10.9213 15.5696 11.1751 15.5409 11.4254C15.4168 13.2957 14.7341 15.0829 13.584 16.5476C13.5196 16.6108 13.4682 16.6864 13.433 16.7701C13.3977 16.8538 13.3793 16.9438 13.3788 17.0348C13.372 17.5104 13.4623 17.9823 13.644 18.4206C13.8257 18.8588 14.0948 19.254 14.4343 19.5811C14.7739 19.9081 15.1765 20.16 15.6166 20.3206C16.0567 20.4813 16.5249 20.5474 16.9914 20.5146C20.0293 20.5146 22.9988 15.9491 22.9988 12.1631C22.9851 8.05698 19.564 4.46585 14.6924 4.46585C9.08191 4.46585 5.1956 7.33319 5.1956 12.8173C5.20509 13.5108 5.35036 14.1954 5.62291 14.8311C5.89546 15.4668 6.28982 16.0409 6.78296 16.5198L5.64717 20.3475C4.31938 19.4258 3.2178 18.2057 2.42765 16.7817C1.63749 15.3577 1.17992 13.7679 1.09033 12.1353C1.09033 8.11266 3.55349 1 14.7745 1C24.463 1 27.0903 7.95955 27.0903 12.1353C27.0903 15.0722 26.064 23.2706 17.703 23.2706C16.3231 23.2776 14.975 22.8497 13.844 22.0457C13.7118 21.9384 13.5479 21.8796 13.3788 21.8786H13.2009C13.0923 21.9042 12.9912 21.9553 12.9057 22.0278C12.8201 22.1003 12.7525 22.1923 12.7082 22.2962C12.7082 22.2962 10.1082 29.2558 9.36928 30.8008C8.84789 31.6978 8.11999 32.4526 7.24823 33Z" stroke="#3C5B5F" stroke-opacity="0.7" stroke-width="1.5" stroke-linecap="round" stroke-linejoin="round"/>
</svg>
