<svg width="41" height="34" viewBox="0 0 41 34" fill="none" xmlns="http://www.w3.org/2000/svg">
  <path d="M3.40966 2.68508C5.4624 5.20175 8.02588 7.25411 10.9307 8.70651C13.8355 10.1589 17.0155 10.9783 20.2604 11.1105C19.8223 9.32428 19.7886 4.47126 23.1925 2.44917C24.5762 1.53957 26.1878 1.0374 27.8433 1C28.9236 1.00245 29.9917 1.22825 30.9805 1.66323C31.9694 2.0982 32.8576 2.73296 33.5894 3.52762C35.363 3.15011 37.068 2.50222 38.6446 1.60663C38.0911 3.41504 36.8915 4.95653 35.2745 5.93728C36.8176 5.80375 38.3302 5.42845 39.7568 4.82513C38.6831 6.42498 37.3235 7.8131 35.7463 8.91987C36.9427 19.6538 27.3209 32.9996 13.6381 32.9996C9.20016 33.0239 4.83657 31.8603 1 29.6295C3.09172 29.8899 5.21448 29.7256 7.24125 29.1466C9.26801 28.5675 11.1571 27.5855 12.7955 26.2593C10.9828 26.1526 9.23534 25.5448 7.74774 24.5034C6.26015 23.4621 5.09086 22.0282 4.37016 20.3615C6.05523 20.9008 7.65606 21.1704 8.58285 20.3615C6.68962 19.8798 5.00121 18.8026 3.76646 17.2888C2.5317 15.7749 1.81592 13.9044 1.72458 11.953C2.2813 12.4973 2.94001 12.9264 3.66292 13.2156C4.38584 13.5047 5.15874 13.6483 5.93728 13.6381C4.24168 12.4436 3.04625 10.6657 2.57988 8.64472C2.1135 6.62375 2.40895 4.50177 3.40966 2.68508Z" stroke="#3C5B5F" stroke-opacity="0.7" stroke-width="1.5" stroke-linecap="round" stroke-linejoin="round"/>
</svg>
